<svg xmlns="http://www.w3.org/2000/svg" width="14.399" height="14.477" viewBox="0 0 14.399 14.477">
    <defs>
        <style>
            .cls-1{opacity:.45}.cls-2,.cls-3{fill:#f49917;stroke:#f49917}.cls-2{stroke-width:.4px}.cls-3{stroke-width:.1px}
        </style>
    </defs>
    <g id="birthday-cake" class="cls-1" transform="translate(-.192 .05)">
        <path id="Path_2571" d="M14.392 134.053v-2.088a1.165 1.165 0 0 0-1.167-1.16h-.933v-2.32a.233.233 0 0 0-.233-.232h-1.4a.233.233 0 0 0-.233.232v2.32h-2.1v-2.784a.233.233 0 0 0-.233-.232h-1.4a.233.233 0 0 0-.233.232v2.784h-2.1v-2.32a.233.233 0 0 0-.233-.232h-1.4a.233.233 0 0 0-.233.232v2.32h-.935a1.165 1.165 0 0 0-1.167 1.16v2.088a1.344 1.344 0 0 0 .7 1.2v2.512H.626a.232.232 0 1 0 0 .464h13.533a.232.232 0 1 0 0-.464h-.467v-2.509a1.4 1.4 0 0 0 .7-1.203zm-3.5-5.336h.933v2.088h-.933zm-3.967-.464h.933v2.552h-.932zm-3.967.464h.933v2.088h-.932zm-2.1 3.248a.7.7 0 0 1 .7-.7h11.667a.7.7 0 0 1 .7.7v2.088a.933.933 0 0 1-.558.851.959.959 0 0 1-1.035-.193.929.929 0 0 1-.273-.658v-.928a.925.925 0 0 0-.517-.826l-.014-.008a.9.9 0 0 0-.115-.045.884.884 0 0 0-.068-.021.906.906 0 0 0-.09-.016c-.021 0-.04-.009-.061-.011h-.068c-.012 0-.051.005-.076.007s-.053 0-.079.008a.938.938 0 0 0-.119.03c-.021.006-.042.011-.063.019a.9.9 0 0 0-.126.063c-.015.008-.03.014-.045.023a.938.938 0 0 0-.151.121.919.919 0 0 0-.274.656v.464a.933.933 0 0 1-1.867 0v-.464a.925.925 0 0 0-.517-.826l-.014-.008a.9.9 0 0 0-.115-.045.884.884 0 0 0-.068-.021.906.906 0 0 0-.09-.016c-.021 0-.04-.009-.061-.011h-.068c-.012 0-.051.005-.076.007s-.053 0-.079.008a.94.94 0 0 0-.119.03c-.021.006-.043.011-.063.019a.907.907 0 0 0-.125.062l-.045.023a.929.929 0 0 0-.151.121.919.919 0 0 0-.274.657v1.392a.933.933 0 0 1-1.867 0v-1.392a.925.925 0 0 0-.517-.826l-.014-.008a.894.894 0 0 0-.115-.045.884.884 0 0 0-.068-.021.9.9 0 0 0-.09-.016c-.021 0-.04-.009-.061-.011h-.068a.931.931 0 0 0-.933.928v.928a.927.927 0 0 1-.271.656.967.967 0 0 1-.872.246.934.934 0 0 1-.163-.05.96.96 0 0 1-.287-.194.929.929 0 0 1-.273-.658zm.7 5.8v-2.339c.023 0 .047 0 .07.008h.018a1.413 1.413 0 0 0 .6-.07 1.428 1.428 0 0 0 .173-.074l.036-.019a1.435 1.435 0 0 0 .132-.081l.041-.028a1.35 1.35 0 0 0 .56-1.112v-.928a.459.459 0 0 1 .137-.328.473.473 0 0 1 .077-.061l.015-.008a.463.463 0 0 1 .072-.036l.022-.007a.45.45 0 0 1 .07-.017h.034a.511.511 0 0 1 .059 0h.044a.406.406 0 0 1 .052.01l.017.005a.507.507 0 0 1 .335.482v1.353a1.4 1.4 0 0 0 2.8 0v-1.392a.462.462 0 0 1 .214-.389l.013-.007a.467.467 0 0 1 .074-.037l.02-.006a.5.5 0 0 1 .07-.018h.034a.465.465 0 0 1 .059 0h.044a.407.407 0 0 1 .052.01l.017.005a.507.507 0 0 1 .337.482v.425a1.4 1.4 0 0 0 2.8 0v-.464a.459.459 0 0 1 .137-.328.474.474 0 0 1 .077-.061l.015-.008a.478.478 0 0 1 .071-.035l.023-.007a.437.437 0 0 1 .069-.017h.034a.511.511 0 0 1 .059 0h.044a.4.4 0 0 1 .052.01l.017.005a.507.507 0 0 1 .335.482v.889a1.389 1.389 0 0 0 .41.986 1.424 1.424 0 0 0 .148.125l.047.031c.039.027.079.051.12.074l.049.025a1.433 1.433 0 0 0 .144.062l.029.011a1.426 1.426 0 0 0 .4.074 1.4 1.4 0 0 0 .2-.006h.023c.023 0 .047 0 .07-.007v2.339zm0 0" class="cls-2" data-name="Path 2571" transform="translate(0 -124.002)"/>
        <path id="Path_2572" d="M201.583 3.313a1.187 1.187 0 0 0 1.185-1.185 5.829 5.829 0 0 0-.99-2.028.246.246 0 0 0-.39 0 5.827 5.827 0 0 0-.99 2.031 1.187 1.187 0 0 0 1.185 1.182zm0-2.653a4.613 4.613 0 0 1 .711 1.468.711.711 0 1 1-1.422 0 4.613 4.613 0 0 1 .711-1.469zm0 0" class="cls-3" data-name="Path 2572" transform="translate(-194.191)"/>
        <path id="Path_2573" d="M337.583 19.313a1.187 1.187 0 0 0 1.185-1.185 5.829 5.829 0 0 0-.99-2.031.246.246 0 0 0-.39 0 5.827 5.827 0 0 0-.99 2.031 1.187 1.187 0 0 0 1.185 1.185zm0-2.653a4.613 4.613 0 0 1 .711 1.468.711.711 0 0 1-1.422 0 4.613 4.613 0 0 1 .711-1.469zm0 0" class="cls-3" data-name="Path 2573" transform="translate(-326.273 -15.526)"/>
        <path id="Path_2574" d="M65.583 19.313a1.187 1.187 0 0 0 1.185-1.185 5.829 5.829 0 0 0-.99-2.031.246.246 0 0 0-.39 0 5.827 5.827 0 0 0-.99 2.031 1.187 1.187 0 0 0 1.185 1.185zm0-2.653a4.613 4.613 0 0 1 .711 1.468.711.711 0 0 1-1.422 0 4.613 4.613 0 0 1 .711-1.469zm0 0" class="cls-3" data-name="Path 2574" transform="translate(-62.109 -15.526)"/>
    </g>
</svg>
