<svg xmlns="http://www.w3.org/2000/svg" width="15.472" height="15.472" viewBox="0 0 15.472 15.472">
    <defs>
        <style>
            .cls-1{fill:#fff;stroke:#707070}.cls-2{clip-path:url(#clip-path)}.cls-3{fill:#1b84e7}
        </style>
        <clipPath id="clip-path">
            <path id="Rectangle_656" d="M0 0h15.471v15.471H0z" class="cls-1" data-name="Rectangle 656"/>
        </clipPath>
    </defs>
    <g id="Mask_Group_93" class="cls-2" data-name="Mask Group 93">
        <g id="calendar">
            <g id="Group_646" data-name="Group 646">
                <g id="Group_645" data-name="Group 645">
                    <circle id="Ellipse_160" cx=".604" cy=".604" r=".604" class="cls-3" data-name="Ellipse 160" transform="translate(11.06 5.741)"/>
                    <path id="Path_2455" d="M13.054 1.209h-.786V.6a.6.6 0 1 0-1.208 0v.6H8.31V.6A.6.6 0 0 0 7.1.6v.6H4.382V.6a.6.6 0 0 0-1.209 0v.6h-.756A2.42 2.42 0 0 0 0 3.626v9.428a2.42 2.42 0 0 0 2.417 2.417h4.624a.6.6 0 1 0 0-1.209H2.417a1.21 1.21 0 0 1-1.209-1.209V3.626a1.21 1.21 0 0 1 1.209-1.209h.755v.6a.6.6 0 1 0 1.209 0v-.6H7.1v.6a.6.6 0 1 0 1.209 0v-.6h2.75v.6a.6.6 0 1 0 1.209 0v-.6h.786a1.21 1.21 0 0 1 1.209 1.209v3.445a.6.6 0 0 0 1.209 0V3.626a2.42 2.42 0 0 0-2.418-2.417z" class="cls-3" data-name="Path 2455"/>
                    <path id="Path_2456" d="M14.2 10.547a3.656 3.656 0 1 0 3.66 3.653 3.66 3.66 0 0 0-3.66-3.653zm0 6.1a2.448 2.448 0 1 1 2.451-2.447 2.45 2.45 0 0 1-2.451 2.451z" class="cls-3" data-name="Path 2456" transform="translate(-2.388 -2.388)"/>
                    <path id="Path_2457" d="M15.973 14.13H15.7v-.635a.6.6 0 1 0-1.209 0v1.239a.6.6 0 0 0 .6.6h.876a.6.6 0 1 0 0-1.209z" class="cls-3" data-name="Path 2457" transform="translate(-3.281 -2.919)"/>
                    <circle id="Ellipse_161" cx=".604" cy=".604" r=".604" class="cls-3" data-name="Ellipse 161" transform="translate(8.431 5.741)"/>
                    <circle id="Ellipse_162" cx=".604" cy=".604" r=".604" class="cls-3" data-name="Ellipse 162" transform="translate(5.802 8.37)"/>
                    <circle id="Ellipse_163" cx=".604" cy=".604" r=".604" class="cls-3" data-name="Ellipse 163" transform="translate(3.173 5.741)"/>
                    <circle id="Ellipse_164" cx=".604" cy=".604" r=".604" class="cls-3" data-name="Ellipse 164" transform="translate(3.173 8.37)"/>
                    <circle id="Ellipse_165" cx=".604" cy=".604" r=".604" class="cls-3" data-name="Ellipse 165" transform="translate(3.173 10.999)"/>
                    <circle id="Ellipse_166" cx=".604" cy=".604" r=".604" class="cls-3" data-name="Ellipse 166" transform="translate(5.802 10.999)"/>
                    <circle id="Ellipse_167" cx=".604" cy=".604" r=".604" class="cls-3" data-name="Ellipse 167" transform="translate(5.802 5.741)"/>
                </g>
            </g>
        </g>
    </g>
</svg>
