<svg xmlns="http://www.w3.org/2000/svg" xmlns:xlink="http://www.w3.org/1999/xlink" id="dashboard_icon" width="26" height="19.037" data-name="dashboard icon" viewBox="0 0 26 19.037">
    <defs>
        <style>
            .cls-1,.cls-7,.cls-8{fill:none}.cls-2{fill:#f49917;stroke:#f49917}.cls-3,.cls-4,.cls-6{fill:#fff}.cls-3{stroke:#fff;stroke-width:2px}.cls-5,.cls-6{stroke:none}.cls-8{clip-path:url(#clip)}
        </style>
        <clipPath id="clip">
            <use xlink:href="#fill"/>
        </clipPath>
    </defs>
    <g id="Path_2479" class="cls-1" data-name="Path 2479">
        <path d="M13 0a13 13 0 0 1 13 13c0 7.18-5.82 5.958-13 5.958S0 20.18 0 13A13 13 0 0 1 13 0z" class="cls-5"/>
        <path d="M13 2c-2.938 0-5.7 1.144-7.778 3.222A10.928 10.928 0 0 0 2 13c0 1 .133 1.797.395 2.367.195.424.454.716.838.949 1.051.635 2.933.721 4.635.721.735 0 1.511-.018 2.333-.037.9-.02 1.831-.042 2.799-.042s1.899.022 2.8.042c.82.02 1.597.037 2.332.037 1.702 0 3.583-.086 4.634-.721a2.04 2.04 0 0 0 .839-.95c.262-.57.395-1.365.395-2.366 0-2.938-1.144-5.7-3.222-7.778A10.928 10.928 0 0 0 13 2m0-2c7.18 0 13 5.82 13 13 0 5.357-3.24 6.037-7.868 6.037-1.575 0-3.309-.079-5.132-.079-1.823 0-3.558.079-5.132.079C3.24 19.037 0 18.357 0 13 0 5.82 5.82 0 13 0z" class="cls-6"/>
    </g>
    <g id="Ellipse_172" class="cls-2" data-name="Ellipse 172" transform="translate(11.5 11.005)">
        <circle cx="1.5" cy="1.5" r="1.5" class="cls-5"/>
        <circle cx="1.5" cy="1.5" r="1" class="cls-7"/>
    </g>
    <g id="Rectangle_674" class="cls-2" data-name="Rectangle 674" transform="rotate(-48 20.06 -8.202)">
        <rect width="5" height="1" class="cls-5" rx=".5"/>
        <rect width="4" x=".5" y=".5" class="cls-7"/>
    </g>
    <g id="Rectangle_678" class="cls-3" data-name="Rectangle 678" transform="translate(12 3.282)">
        <rect id="fill" width="2" height="2" class="cls-5" rx="1"/>
        <path d="M0 1h2M1 0v2m1-1H0m1 1V0" class="cls-8"/>
    </g>
    <g id="Rectangle_679" class="cls-3" data-name="Rectangle 679" transform="rotate(-2 160.42 -184.796)">
        <rect width="2" height="2" class="cls-5" rx="1"/>
        <rect x="1" y="1" class="cls-7"/>
    </g>
    <g id="Path_2480" class="cls-4" data-name="Path 2480">
        <path d="M1 0a1 1 0 1 1-1 1 1 1 0 0 1 1-1z" class="cls-5" transform="rotate(-2 284.278 -93.836)"/>
        <path d="M1 0a1 1 0 1 1 0 2 1 1 0 0 1 0-2z" class="cls-6" transform="rotate(-2 284.278 -93.836)"/>
    </g>
    <g id="Rectangle_682" class="cls-3" data-name="Rectangle 682" transform="rotate(-2 292.83 -583.722)">
        <rect width="2" height="2" class="cls-5" rx="1"/>
        <rect x="1" y="1" class="cls-7"/>
    </g>
    <g id="Rectangle_680" class="cls-3" data-name="Rectangle 680" transform="rotate(-2 165.63 -483.305)">
        <rect width="2" height="2" class="cls-5" rx="1"/>
        <rect x="1" y="1" class="cls-7"/>
    </g>
</svg>
