<svg xmlns="http://www.w3.org/2000/svg" width="24.301" height="24.303" viewBox="0 0 24.301 24.303">
    <defs>
        <style>
            .cls-1,.cls-2{fill:#f49917;stroke:#f49917;stroke-width:.3px}.cls-1{opacity:.2}
        </style>
    </defs>
    <g id="diamond" transform="translate(.15 .15)">
        <g id="Group_712" data-name="Group 712" transform="translate(.519 .521)">
            <path id="Path_2525" d="M183.977 150.582L195.434 136h-6.249zm0 0" class="cls-1" data-name="Path 2525" transform="translate(-172.473 -127.621)"/>
            <path id="Path_2526" d="M109.185 8l-5.208 8.333h10.416zm0 0" class="cls-1" data-name="Path 2526" transform="translate(-97.704 -8)"/>
            <path id="Path_2527" d="M7.977 136l11.457 14.582L14.226 136zm0 0" class="cls-1" data-name="Path 2527" transform="translate(-7.977 -127.621)"/>
        </g>
        <path id="Path_2528" d="M.016 8.99a.465.465 0 0 0 .015.045.573.573 0 0 0 .023.065.507.507 0 0 0 .046.066c.006.008.007.018.014.027L11.59 23.8s.007 0 .009.007a.511.511 0 0 0 .151.122.489.489 0 0 0 .046.023A.5.5 0 0 0 12 24a.508.508 0 0 0 .2-.047.657.657 0 0 0 .046-.023.513.513 0 0 0 .151-.122s.007 0 .009-.007L23.89 9.193c.006-.008.008-.018.014-.027a.265.265 0 0 0 .066-.131l.015-.045A.522.522 0 0 0 24 8.815c0-.01-.005-.019-.007-.029a.53.53 0 0 0-.045-.141.43.43 0 0 0-.026-.047.38.38 0 0 0-.022-.04L17.635.209C17.629.2 17.618.2 17.611.189a.51.51 0 0 0-.123-.1.611.611 0 0 0-.052-.035.506.506 0 0 0-.218-.054H6.782a.512.512 0 0 0-.219.052.438.438 0 0 0-.052.035.52.52 0 0 0-.123.1C6.382.2 6.371.2 6.364.209L.1 8.558c-.009.012-.014.027-.022.04a.475.475 0 0 0-.026.047.512.512 0 0 0-.045.141C.008 8.8 0 8.8 0 8.815a.515.515 0 0 0 .013.175zM7.3 1.044h3.755L7.3 7.051zm9.174 8.349L12 21.929 7.522 9.392zM7.723 8.349L12 1.507l4.277 6.842zm9.862 1.044h4.82l-8.837 11.248zM16.7 7.051l-3.759-6.007H16.7zM6.414 9.392l4.017 11.249L1.594 9.392zM17.74 8.349V2.087l4.7 6.262zM6.26 2.087v6.262h-4.7zm0 0" class="cls-2" data-name="Path 2528"/>
    </g>
</svg>
