<svg xmlns="http://www.w3.org/2000/svg" width="12.4" height="12.398" viewBox="0 0 12.4 12.398">
    <defs>
        <style>
            .cls-1,.cls-2{fill:#fff;stroke:#fff}.cls-1{stroke-width:.4px}.cls-2{stroke-width:.3px}
        </style>
    </defs>
    <g id="turn-right" transform="translate(.2 21.699)">
        <path id="Path_2602" d="M11.926 5.821L6.179.074a.253.253 0 0 0-.358 0L.074 5.821a.253.253 0 0 0 0 .358l5.747 5.747a.253.253 0 0 0 .358 0l4.143-4.143a.253.253 0 0 0-.358-.358L6 11.389.611 6 6 .611l5.568 5.568a.253.253 0 0 0 .358-.358z" class="cls-1" data-name="Path 2602" transform="translate(0 -21.5)"/>
        <path id="Path_2603" d="M102.934 98.584a.269.269 0 0 0 .367 0l.8-.756a.238.238 0 0 0 0-.349l-.8-.756a.269.269 0 0 0-.367 0 .238.238 0 0 0 0 .349l.352.335h-2.973a.253.253 0 0 0-.26.247v3.25a.26.26 0 0 0 .519 0v-3h2.713l-.352.335a.238.238 0 0 0 .001.345z" class="cls-2" data-name="Path 2603" transform="translate(-95.884 -114.15)"/>
    </g>
</svg>
