<svg xmlns="http://www.w3.org/2000/svg" width="13.98" height="14" viewBox="0 0 13.98 14">
    <defs>
        <style>
            .cls-1{fill:#343a40}
        </style>
    </defs>
    <path id="split" d="M13.98 2.577L11.4 0 8.827 2.577l.773.773 1.257-1.257V4.3a2.746 2.746 0 0 1-.948 2.076L7.768 8.229a3.914 3.914 0 0 0-.783.927 3.738 3.738 0 0 0-.768-.922L4.071 6.373A2.746 2.746 0 0 1 3.123 4.3V2.092L4.38 3.35l.773-.773L2.576 0 0 2.577l.773.773L2.03 2.092V4.3a3.838 3.838 0 0 0 1.325 2.9L5.5 9.06a2.737 2.737 0 0 1 .929 2.064V14h1.094v-2.869a2.753 2.753 0 0 1 .962-2.076l2.14-1.855a3.838 3.838 0 0 0 1.325-2.9V2.092l1.257 1.258zm0 0" class="cls-1"/>
</svg>
