<svg xmlns="http://www.w3.org/2000/svg" width="167.835" height="184.047" viewBox="0 0 167.835 184.047">
    <defs>
        <style>
            .cls-1{fill:none;stroke:#fff;stroke-linejoin:round;stroke-width:4px}
        </style>
    </defs>
    <g id="dr_pic" data-name="dr pic" transform="translate(-637.987 -884.313)">
        <path id="_31375086_m" d="M8511.7 7535.282c-.315-17.687 0-62.379 0-62.379s1.241-14.967 13.7-22.817 52.953-30.773 52.953-30.773 9.961-6.909 24.915-2.511 56.07 31.714 56.07 31.714 13.706 8.268 15.262 24.386 0 63.846 0 63.846a33.746 33.746 0 0 1-10.589 21.666c-10.28 9.735-52.644 31.4-52.644 31.4a32.52 32.52 0 0 1-33.637 1.571c-18.693-9.733-52.331-30.772-52.331-30.772a30.371 30.371 0 0 1-13.699-25.331z" class="cls-1" data-name="31375086_m" transform="translate(-7871.556 -6529.007)"/>
    </g>
</svg>
