<svg xmlns="http://www.w3.org/2000/svg" width="12.147" height="13.497" viewBox="0 0 12.147 13.497">
    <defs>
        <style>
            .cls-1{fill:#343a40}
        </style>
    </defs>
    <g id="export" transform="translate(-.9)">
        <path id="Path_2386" d="M10.785 6.21H8.768v1.2h2.017c.6 0 1.065.306 1.065.57v5.307c0 .264-.465.57-1.065.57H3.162c-.6 0-1.065-.306-1.065-.57v-5.31c0-.264.465-.57 1.065-.57h2.016v-1.2H3.162A2.038 2.038 0 0 0 .9 7.977v5.307a2.038 2.038 0 0 0 2.262 1.767h7.624a2.038 2.038 0 0 0 2.262-1.767V7.977a2.038 2.038 0 0 0-2.263-1.767z" class="cls-1" data-name="Path 2386" transform="translate(0 -1.554)"/>
        <path id="Path_2387" d="M6.439 2.983a.6.6 0 0 0 .423-.175l.749-.749v6.087a.6.6 0 1 0 1.2 0V2.018l.79.79a.6.6 0 0 0 .846-.846L8.657.175A.6.6 0 0 0 8.234 0h-.009A.6.6 0 0 0 7.8.175L6.015 1.961a.6.6 0 0 0 .423 1.021z" class="cls-1" data-name="Path 2387" transform="translate(-1.236)"/>
    </g>
</svg>
