<svg xmlns="http://www.w3.org/2000/svg" width="15.5" height="9.879" viewBox="0 0 15.5 9.879">
    <defs>
        <style>
            .cls-1{fill:#6c757d}
        </style>
    </defs>
    <g id="Group_789" data-name="Group 789" transform="translate(-729.5 -244)">
        <path id="Path_2578" d="M15.4 97.473c-.138-.189-3.438-4.638-7.652-4.638S.237 97.284.1 97.473a.511.511 0 0 0 0 .6c.138.189 3.438 4.638 7.652 4.638s7.513-4.449 7.652-4.638a.511.511 0 0 0-.004-.6zm-7.65 4.219c-3.1 0-5.792-2.953-6.588-3.918.795-.966 3.477-3.917 6.588-3.917s5.792 2.952 6.588 3.918c-.795.966-3.477 3.917-6.588 3.917z" class="cls-1" data-name="Path 2578" transform="translate(729.5 151.165)"/>
        <path id="Path_2579" d="M157.393 154.725a2.671 2.671 0 1 0 2.671 2.671 2.674 2.674 0 0 0-2.671-2.671zm0 4.451a1.78 1.78 0 1 1 1.78-1.78 1.782 1.782 0 0 1-1.78 1.78z" class="cls-1" data-name="Path 2579" transform="translate(579.857 91.275)"/>
    </g>
</svg>
