<svg xmlns="http://www.w3.org/2000/svg" width="16.5" height="16.5" viewBox="0 0 16.5 16.5">
    <defs>
        <style>
            .cls-1{fill:#fff;stroke:#fff;stroke-width:.5px}
        </style>
    </defs>
    <g id="fullscreen" transform="translate(.25 .25)">
        <g id="Fullscreen-2" data-name="Fullscreen">
            <path id="Path_2598" d="M258.734.53A.526.526 0 0 0 258.2 0h-4.765a.524.524 0 0 0-.526.539.51.51 0 0 0 .526.522h4.234l-.009 4.254a.53.53 0 0 0 1.061 0l.009-4.777.004-.008z" class="cls-1" data-name="Path 2598" transform="translate(-242.734)"/>
            <path id="Path_2599" d="M5.311 0H.539a.526.526 0 0 0-.53.53L0 5.307a.524.524 0 0 0 .539.526.51.51 0 0 0 .522-.526l.008-4.247h4.242a.52.52 0 0 0 .53-.53.521.521 0 0 0-.53-.53z" class="cls-1" data-name="Path 2599"/>
            <path id="Path_2600" d="M5.295 257.41H1.061v-4.242a.52.52 0 0 0-.53-.53.52.52 0 0 0-.53.53v4.765a.526.526 0 0 0 .53.53h4.764a.524.524 0 0 0 .526-.539.51.51 0 0 0-.526-.514z" class="cls-1" data-name="Path 2600" transform="translate(0 -242.47)"/>
            <path id="Path_2601" d="M257.931 252.913a.509.509 0 0 0-.522.526v4.234h-4.242a.53.53 0 0 0 0 1.061h4.772a.526.526 0 0 0 .53-.53v-4.765a.524.524 0 0 0-.538-.526z" class="cls-1" data-name="Path 2601" transform="translate(-242.47 -242.734)"/>
        </g>
    </g>
</svg>
