<svg xmlns="http://www.w3.org/2000/svg" width="16.849" height="20" viewBox="0 0 16.849 20">
    <defs>
        <style>
            .cls-1{fill:#1b84e7}
        </style>
    </defs>
    <g id="hospital" transform="translate(0 2)">
        <g id="Group_718" data-name="Group 718" transform="translate(3.489 3.489)">
            <g id="Group_717" data-name="Group 717">
                <g id="Appratment" transform="translate(-6.489 -5.489)">
                    <g id="Group_740" data-name="Group 740" transform="translate(3)">
                        <path id="Path_2561" d="M19.491 3.019a.368.368 0 0 0 .358-.377V.377A.368.368 0 0 0 19.491 0H3.358A.368.368 0 0 0 3 .377v2.265a.368.368 0 0 0 .358.377h1.434v13.962h-.356A1.475 1.475 0 0 0 3 18.491v1.132a.368.368 0 0 0 .358.377h16.133a.368.368 0 0 0 .358-.377v-1.132a1.475 1.475 0 0 0-1.436-1.509h-.357V3.019zM3.717.755h15.415v1.509H3.717zm15.415 17.736v.755H3.717v-.755a.738.738 0 0 1 .719-.755h13.977a.738.738 0 0 1 .719.755zm-6.453-1.509H10.17v-4.529h2.509zm4.66 0H13.4v-4.907a.368.368 0 0 0-.358-.377H9.811a.368.368 0 0 0-.358.377v4.906H5.509V3.019H17.34z" class="cls-1" data-name="Path 2561" transform="translate(-3)"/>
                        <path id="Path_2562" d="M12.358 13.226h2.509a.359.359 0 0 0 .358-.358v-2.51a.359.359 0 0 0-.357-.358h-2.51a.359.359 0 0 0-.358.358v2.509a.359.359 0 0 0 .358.359zm.358-2.509h1.792v1.792h-1.791z" class="cls-1" data-name="Path 2562" transform="translate(-8.774 -6.188)"/>
                        <path id="Path_2563" d="M32.358 13.226h2.509a.359.359 0 0 0 .358-.358v-2.51a.359.359 0 0 0-.357-.358h-2.51a.359.359 0 0 0-.358.358v2.509a.359.359 0 0 0 .358.359zm.358-2.509h1.792v1.792h-1.791z" class="cls-1" data-name="Path 2563" transform="translate(-21.604 -6.188)"/>
                        <path id="Path_2564" d="M12.358 24.226h2.509a.359.359 0 0 0 .358-.358v-2.51a.359.359 0 0 0-.357-.358h-2.51a.359.359 0 0 0-.358.358v2.509a.359.359 0 0 0 .358.359zm.358-2.509h1.792v1.792h-1.791z" class="cls-1" data-name="Path 2564" transform="translate(-8.774 -12.994)"/>
                        <path id="Path_2565" d="M32.358 24.226h2.509a.359.359 0 0 0 .358-.358v-2.51a.359.359 0 0 0-.357-.358h-2.51a.359.359 0 0 0-.358.358v2.509a.359.359 0 0 0 .358.359zm.358-2.509h1.792v1.792h-1.791z" class="cls-1" data-name="Path 2565" transform="translate(-21.604 -12.994)"/>
                    </g>
                </g>
            </g>
        </g>
    </g>
</svg>
