<svg xmlns="http://www.w3.org/2000/svg" width="20.4" height="20.398" viewBox="0 0 20.4 20.398">
    <defs>
        <style>
            .cls-1,.cls-2{fill:#1b84e7;stroke:#1b84e7}.cls-1{stroke-width:.4px}.cls-2{stroke-width:.3px}
        </style>
    </defs>
    <g id="hospital" transform="translate(.2 5.199)">
        <g id="Group_716" data-name="Group 716">
            <g id="Group_715" data-name="Group 715">
                <path id="Path_2530" d="M10 0a10 10 0 1 0 10 10A10.006 10.006 0 0 0 10 0zm0 19.133A9.133 9.133 0 1 1 19.133 10 9.142 9.142 0 0 1 10 19.133z" class="cls-1" data-name="Path 2530" transform="translate(0 -5)"/>
            </g>
        </g>
        <g id="Group_718" data-name="Group 718" transform="translate(5.489 5.489)">
            <g id="Group_717" data-name="Group 717">
                <path id="Path_2531" d="M81.075 75.176h-2.429v-2.429a.346.346 0 0 0-.346-.347h-2.777a.346.346 0 0 0-.347.347v2.429h-2.429a.346.346 0 0 0-.347.347V78.3a.346.346 0 0 0 .347.347h2.429v2.429a.346.346 0 0 0 .347.347H78.3a.346.346 0 0 0 .347-.347v-2.43h2.429a.346.346 0 0 0 .347-.347v-2.776a.373.373 0 0 0-.348-.347zm-.328 2.776H78.3a.346.346 0 0 0-.347.347v2.429H75.87V78.3a.346.346 0 0 0-.347-.347h-2.429V75.87h2.429a.346.346 0 0 0 .347-.347v-2.429h2.1v2.429a.346.346 0 0 0 .347.347h2.429z" class="cls-2" data-name="Path 2531" transform="translate(-72.4 -76.4)"/>
            </g>
        </g>
    </g>
</svg>
