<svg xmlns="http://www.w3.org/2000/svg" width="65.006" height="68.331" viewBox="0 0 65.006 68.331">
    <defs>
        <style>
            .cls-1{fill:none;stroke-linejoin:round}.cls-1,.cls-4{stroke:#fff;stroke-width:2px}.cls-2,.cls-3{fill:#fff;font-family:CenturyGothic,Century Gothic}.cls-2{font-size:19px}.cls-3{font-size:23px}.cls-4{fill:#f49917;stroke-miterlimit:10}
        </style>
    </defs>
    <g id="logo" transform="translate(-247.549 -110.245)">
        <path id="Path_2478" d="M8511.607 7459.467c-.116-6.508 0-22.951 0-22.951s.457-5.507 5.041-8.395 19.483-11.322 19.483-11.322a11.226 11.226 0 0 1 9.166-.924c5.5 1.617 20.629 11.668 20.629 11.668a12.693 12.693 0 0 1 5.616 8.972c.571 5.93 0 23.49 0 23.49a12.414 12.414 0 0 1-3.9 7.971c-3.781 3.581-19.367 11.552-19.367 11.552a11.965 11.965 0 0 1-12.376.578c-6.878-3.582-19.254-11.322-19.254-11.322a11.174 11.174 0 0 1-5.038-9.317z" class="cls-1" data-name="Path 2478" transform="translate(-8263.001 -7304)"/>
        <text id="SFA" class="cls-2" transform="translate(262.205 138.888)">
            <tspan x="0" y="0">SFA</tspan>
        </text>
        <text id="_360" class="cls-3" data-name="360" transform="translate(259.705 162.769)">
            <tspan x="0" y="0">360</tspan>
        </text>
        <circle id="Ellipse_170" cx="6" cy="6" r="6" class="cls-4" data-name="Ellipse 170" transform="translate(299.555 123.097)"/>
    </g>
</svg>
