<svg xmlns="http://www.w3.org/2000/svg" width="18" height="18" viewBox="0 0 18 18">
    <defs>
        <style>
            .cls-1{fill:#fff;stroke:#6c757d}.cls-2{clip-path:url(#clip-path)}.cls-3{fill:#7a7b7b}.cls-4{fill:#6c757d}
        </style>
        <clipPath id="clip-path">
            <path id="Rectangle_553" d="M0 0h18v18H0z" class="cls-1" data-name="Rectangle 553" transform="translate(1520 154.804)"/>
        </clipPath>
    </defs>
    <g id="Mask_Group_49" class="cls-2" data-name="Mask Group 49" transform="translate(-1520 -154.805)">
        <g id="pdf-file" transform="translate(1520 154.804)">
            <path id="Path_2383" d="M5.3 11.581c0-.3-.207-.477-.573-.477a1.269 1.269 0 0 0-.3.029v.959a1.15 1.15 0 0 0 .246.019c.388-.001.627-.198.627-.53z" class="cls-3" data-name="Path 2383"/>
            <path id="Path_2384" d="M7.568 11.114a1.514 1.514 0 0 0-.332.029v2.124a1.329 1.329 0 0 0 .255.015 1.007 1.007 0 0 0 1.1-1.137.931.931 0 0 0-1.023-1.031z" class="cls-3" data-name="Path 2384"/>
            <path id="Path_2385" d="M11.777 0H4.548a1.919 1.919 0 0 0-1.916 1.916V9h-.187a.772.772 0 0 0-.772.772v4.682a.772.772 0 0 0 .772.772h.187v.858A1.918 1.918 0 0 0 4.548 18h9.864a1.918 1.918 0 0 0 1.915-1.916V4.534zM3.7 10.617a6.051 6.051 0 0 1 .992-.067 1.557 1.557 0 0 1 .992.26.949.949 0 0 1 .347.751 1.038 1.038 0 0 1-.3.771 1.506 1.506 0 0 1-1.055.342 1.9 1.9 0 0 1-.251-.014v1.161H3.7zm10.714 6.21H4.548a.743.743 0 0 1-.742-.743v-.858H13a.772.772 0 0 0 .772-.772V9.772A.772.772 0 0 0 13 9H3.8V1.916a.743.743 0 0 1 .742-.741l6.791-.007v2.51a1.329 1.329 0 0 0 1.329 1.329L15.126 5l.028 11.085a.743.743 0 0 1-.742.742zM6.5 13.806v-3.189a6.612 6.612 0 0 1 .992-.067 2.091 2.091 0 0 1 1.33.347 1.437 1.437 0 0 1 .548 1.223 1.646 1.646 0 0 1-.54 1.315 2.331 2.331 0 0 1-1.5.419 6.356 6.356 0 0 1-.83-.048zm5.258-1.888v.6H10.59v1.306h-.737v-3.25h1.985v.6H10.59v.742z" class="cls-4" data-name="Path 2385"/>
        </g>
    </g>
</svg>
