<svg xmlns="http://www.w3.org/2000/svg" width="20.227" height="16" viewBox="0 0 20.227 16">
    <defs>
        <style>
            .cls-1{fill:#1b84e7}
        </style>
    </defs>
    <path id="portfolio" d="M19.638 2.133h-5.376V1.6A1.7 1.7 0 0 0 12.484 0H7.743a1.7 1.7 0 0 0-1.777 1.6v.533H.593A.567.567 0 0 0 0 2.667V14.4A1.7 1.7 0 0 0 1.778 16h16.671a1.7 1.7 0 0 0 1.778-1.6V2.676a.549.549 0 0 0-.589-.542zM7.151 1.6a.566.566 0 0 1 .593-.533h4.741a.566.566 0 0 1 .593.533v.533H7.151zm11.661 1.6l-1.84 4.969a.59.59 0 0 1-.562.365h-3.334V8a.565.565 0 0 0-.593-.533h-4.74A.565.565 0 0 0 7.151 8v.533H3.817a.59.59 0 0 1-.562-.365L1.415 3.2zm-6.921 5.333V9.6H8.336V8.533zm7.15 5.867a.566.566 0 0 1-.593.533H1.778a.566.566 0 0 1-.593-.533V5.953l.945 2.553A1.77 1.77 0 0 0 3.817 9.6h3.334v.533a.565.565 0 0 0 .593.533h4.741a.565.565 0 0 0 .593-.533V9.6h3.332a1.77 1.77 0 0 0 1.69-1.094l.946-2.553zm0 0" class="cls-1"/>
</svg>
