<svg xmlns="http://www.w3.org/2000/svg" width="23.188" height="27.014" viewBox="0 0 23.188 27.014">
    <defs>
        <style>
            .cls-1,.cls-2,.cls-5,.cls-8{fill:none}.cls-1,.cls-2,.cls-3,.cls-5{stroke:#fff}.cls-1,.cls-2,.cls-5{stroke-linecap:round}.cls-1{stroke-width:2px}.cls-2{stroke-width:1.5px}.cls-3,.cls-6{fill:#f49917}.cls-4{fill:#fff;stroke:#f49917}.cls-7{stroke:none}
        </style>
    </defs>
    <g id="stp_template" data-name="stp template" transform="translate(-600.75 -447)">
        <path id="Path_2482" d="M10088.314 7761.279a1.743 1.743 0 0 0-.839 1.113c-.314.912-2.726 15.183-2.726 15.183s0 2.226 2.726 1.113a25.219 25.219 0 0 1 6.078-2.025l.215-.021c.348-.017.1.78.414 1.235.15.219 2.045-.283 4.349-.708a45.19 45.19 0 0 0 5.188-1.013c.645-.27.871-.77 1.152-1.721a13.169 13.169 0 0 0 .366-2.023l.683-6.274s.261-1.366-1.782-1.62c-.779-.1-.5-1.294-.732-2.632-.117-.659-.241-1.927-.473-2.884a2.1 2.1 0 0 0-.839-1.315" class="cls-1" data-name="Path 2482" transform="translate(-9483 -7306)"/>
        <path id="Path_2483" d="M10092.563 7759.313s-.312-4.5 2.375-4.062 1.563.25 1.563.25" class="cls-2" data-name="Path 2483" transform="translate(-9485.369 -7306)"/>
        <g id="Group_666" data-name="Group 666" transform="translate(607.464 453.91)">
            <g id="Ellipse_177" class="cls-3" data-name="Ellipse 177">
                <circle cx="3" cy="3" r="3" class="cls-7"/>
                <circle cx="3" cy="3" r="2.5" class="cls-8"/>
            </g>
            <g id="Ellipse_178" class="cls-4" data-name="Ellipse 178" transform="translate(2 2)">
                <circle cx="1" cy="1" r="1" class="cls-7"/>
                <circle cx="1" cy="1" r=".5" class="cls-8"/>
            </g>
            <path id="Path_2484" d="M10094 7766.438v4" class="cls-5" data-name="Path 2484" transform="translate(-10091 -7761)"/>
        </g>
        <g id="Group_668" data-name="Group 668" transform="translate(612.981 459.284)">
            <g id="Ellipse_177-2" class="cls-3" data-name="Ellipse 177">
                <circle cx="3" cy="3" r="3" class="cls-7"/>
                <circle cx="3" cy="3" r="2.5" class="cls-8"/>
            </g>
            <g id="Ellipse_178-2" class="cls-4" data-name="Ellipse 178" transform="translate(2 2)">
                <circle cx="1" cy="1" r="1" class="cls-7"/>
                <circle cx="1" cy="1" r=".5" class="cls-8"/>
            </g>
            <path id="Path_2484-2" d="M10094 7766.438v4" class="cls-5" data-name="Path 2484" transform="translate(-10091 -7761)"/>
        </g>
        <g id="Group_667" data-name="Group 667" transform="translate(612.429 447)">
            <g id="Ellipse_177-3" class="cls-3" data-name="Ellipse 177">
                <circle cx="3" cy="3" r="3" class="cls-7"/>
                <circle cx="3" cy="3" r="2.5" class="cls-8"/>
            </g>
            <circle id="Ellipse_178-3" cx="1" cy="1" r="1" class="cls-6" data-name="Ellipse 178" transform="translate(2 2)"/>
            <path id="Path_2484-3" d="M10094 7766.438v4" class="cls-5" data-name="Path 2484" transform="translate(-10091 -7761)"/>
        </g>
    </g>
</svg>
