<svg xmlns="http://www.w3.org/2000/svg" width="383.993" height="347.032" viewBox="0 0 383.993 347.032">
    <defs>
        <style>
            .cls-1{fill:#dddfe3;opacity:.23}.cls-2,.cls-6{fill:#647ddd}.cls-2{opacity:.5}.cls-3{fill:#57438e}.cls-4{fill:#381e60}.cls-5{fill:#fff2ff}.cls-6{opacity:.8}.cls-7{fill:#fccf4f}.cls-8{fill:#b99255}.cls-9{fill:#806cbe}.cls-10,.cls-20{fill:#fff9ff}.cls-11{fill:#87ceff}.cls-12{fill:#ff6690}.cls-13{fill:#d3bae7}.cls-14{fill:#752939}.cls-15{fill:#bcbace}.cls-16{fill:#1a685a}.cls-17{fill:#409682}.cls-18{fill:#4eaf9d}.cls-19{fill:#8e90ff}.cls-20{opacity:.2}
        </style>
    </defs>
    <g id="walk_through_illustration_1" data-name="walk through illustration_1" transform="translate(-403.133 -537.442)">
        <path id="Path_356" d="M181.33 6.323c56.724 27.194 44.277 92.475 72.659 149.5s22.068 106.772-7.223 138.936-102.066 45.626-169.651 2.594c-34.224-21.79-81.448-56.39-76.8-138.162C5.493 68.093 115.087-25.433 181.33 6.323z" class="cls-1" data-name="Path 356" transform="rotate(-105.01 576.068 260.515)"/>
        <g id="Group_369" data-name="Group 369" transform="translate(465.795 570.427)">
            <g id="Group_281" data-name="Group 281" transform="translate(32.646 144.923)">
                <path id="Path_2101" d="M48.7 218.085a.779.779 0 0 1 0-.421 1.977 1.977 0 0 1 .837-.956L92.5 191.9a4.157 4.157 0 0 1 3.909 0s17.577 10.148 19.528 11.276c.737.426.916.852.856 1.216v2c.1.72-.856 1.274-.856 1.274s-41.01 23.684-42.964 24.808a3.709 3.709 0 0 1-1.789.5 4.453 4.453 0 0 1-2.116-.5L51.49 222.319l-1.953-1.127a1.6 1.6 0 0 1-.833-.875.779.779 0 0 1 0-.421v-1.811z" class="cls-2" data-name="Path 2101" transform="translate(-44.465 -191.396)"/>
                <g id="Group_280" data-name="Group 280">
                    <g id="Group_279" data-name="Group 279">
                        <path id="Path_2102" d="M43.15 221.033a.786.786 0 0 1 0-.421v-2.233l4.641-.921 39.156-22.613a4.157 4.157 0 0 1 3.909 0l18.133 10.47 2.251-.447v2.232c.1.72-.856 1.274-.856 1.274s-41.01 23.684-42.964 24.808a3.708 3.708 0 0 1-1.789.5 4.453 4.453 0 0 1-2.116-.5l-17.578-10.148-1.953-1.127a1.594 1.594 0 0 1-.834-.874z" class="cls-3" data-name="Path 2102" transform="translate(-43.117 -192.112)"/>
                        <path id="Path_2103" d="M45.935 220.087l17.577 10.149a4.163 4.163 0 0 0 3.906 0c1.954-1.124 42.964-24.808 42.964-24.808s1.951-1.125 0-2.253S90.854 191.9 90.854 191.9a4.157 4.157 0 0 0-3.909 0l-42.959 24.81s-1.957 1.125 0 2.253z" class="cls-4" data-name="Path 2103" transform="translate(-43.115 -191.396)"/>
                        <path id="Path_2104" d="M54.6 215.347l35.132-20.3 19.533 11.272-35.17 20.281z" class="cls-5" data-name="Path 2104" transform="translate(-45.905 -192.281)"/>
                        <path id="Path_2105" d="M54.843 226.616l.331-.192a1.587 1.587 0 0 1 1.587 0l10.017 5.776a.611.611 0 0 1 0 1.059l-.12.07a1.831 1.831 0 0 1-1.831 0l-9.984-5.759a.552.552 0 0 1 0-.954z" class="cls-5" data-name="Path 2105" transform="translate(-45.896 -199.85)"/>
                        <ellipse id="Ellipse_46" cx=".977" cy=".41" class="cls-5" data-name="Ellipse 46" rx=".977" ry=".41" transform="translate(54.573 6.703)"/>
                    </g>
                </g>
            </g>
            <g id="Group_282" data-name="Group 282" transform="translate(221.041 172.456)">
                <path id="Path_2106" d="M308.882 271.865c-.454.424-20.718 13.194-20.718 13.194s-26.116-15.224-25.217-14.953 45.935 1.759 45.935 1.759z" class="cls-6" data-name="Path 2106" transform="translate(-262.924 -257.727)"/>
                <path id="Path_2107" d="M308.889 267.9l-24.509-14.142-21.425 12.379 21.535 12.433 6.02-.062z" class="cls-7" data-name="Path 2107" transform="translate(-262.932 -253.758)"/>
                <path id="Path_2108" d="M294.357 281.853l3.059 3.476-6.02.062z" class="cls-8" data-name="Path 2108" transform="translate(-269.837 -260.58)"/>
            </g>
            <g id="Group_323" data-name="Group 323" transform="translate(0 78.884)">
                <path id="Path_2109" d="M50.824 182.014l72.165-39.8L76 132.773 0 152.67z" class="cls-6" data-name="Path 2109" transform="translate(0 -111.123)"/>
                <g id="Group_322" data-name="Group 322">
                    <g id="Group_283" data-name="Group 283" transform="translate(51.005 21.267)">
                        <path id="Path_2110" d="M69.918 132.522a2.219 2.219 0 0 0-2.1.018c-.585.34-.631.85-.016 1.205a2.216 2.216 0 0 0 2.09-.013c.586-.339.656-.846.026-1.21zm-1.5.361a1.01 1.01 0 0 1 .97-.06c.258.149.232.385-.087.57a1.021 1.021 0 0 1-.979.055c-.244-.142-.223-.379.1-.565" class="cls-9" data-name="Path 2110" transform="translate(-67.361 -132.267)"/>
                    </g>
                    <g id="Group_321" data-name="Group 321">
                        <g id="Group_284" data-name="Group 284" transform="translate(51.804 21.725)">
                            <path id="Path_2111" d="M69.561 133.54a1.021 1.021 0 0 1-.979.055c-.245-.142-.223-.379.1-.565a1.01 1.01 0 0 1 .97-.06c.254.149.228.384-.091.57z" class="cls-10" data-name="Path 2111" transform="translate(-68.416 -132.872)"/>
                        </g>
                        <g id="Group_285" data-name="Group 285" transform="translate(48.906 22.927)">
                            <path id="Path_2112" d="M71.6 134.459l.638.369-7.006.729-.639-.369z" class="cls-9" data-name="Path 2112" transform="translate(-64.589 -134.459)"/>
                        </g>
                        <g id="Group_286" data-name="Group 286" transform="translate(52.212 24.411)">
                            <path id="Path_2113" d="M69.216 136.577a1.019 1.019 0 0 1 .988-.055c.245.142.223.379-.1.567a1 1 0 0 1-.97.055c-.263-.151-.234-.381.082-.567z" class="cls-10" data-name="Path 2113" transform="translate(-68.955 -136.419)"/>
                        </g>
                        <g id="Group_287" data-name="Group 287" transform="translate(43.98 18.214)">
                            <path id="Path_2114" d="M71.985 136.279l1.191.688a13.754 13.754 0 0 1-12.486 0c-1.676-.968-2.6-2.249-2.607-3.616s.9-2.649 2.566-3.616a13.756 13.756 0 0 1 12.487 0l-1.183.688a11.142 11.142 0 0 0-10.111 0 3.551 3.551 0 0 0-2.078 2.929 3.6 3.6 0 0 0 2.111 2.929 11.142 11.142 0 0 0 10.111 0z" class="cls-9" data-name="Path 2114" transform="translate(-58.083 -128.235)"/>
                        </g>
                        <g id="Group_288" data-name="Group 288" transform="translate(69.052 3.964)">
                            <path id="Path_2115" d="M137.788 134.533l-3.087 1.794-43.506-25.118 3.087-1.794z" class="cls-9" data-name="Path 2115" transform="translate(-91.195 -109.415)"/>
                        </g>
                        <g id="Group_289" data-name="Group 289" transform="translate(66.451 30.182)">
                            <path id="Path_2116" d="M88.9 144.708a1.015 1.015 0 0 1-.975.058c-.249-.144-.228-.382.092-.567a1.01 1.01 0 0 1 .97-.06c.267.151.237.384-.087.569z" class="cls-10" data-name="Path 2116" transform="translate(-87.76 -144.041)"/>
                        </g>
                        <g id="Group_290" data-name="Group 290" transform="translate(60.361 27.675)">
                            <path id="Path_2117" d="M91.939 147.8a3.484 3.484 0 0 0 2.078-3.033 3.677 3.677 0 0 0-2.11-2.824 11.142 11.142 0 0 0-10.111 0 3.548 3.548 0 0 0-2.078 2.929 3.6 3.6 0 0 0 2.111 2.929 10.314 10.314 0 0 0 5.063 1.213 10.205 10.205 0 0 0 5.047-1.214z" class="cls-10" data-name="Path 2117" transform="translate(-79.717 -140.73)"/>
                        </g>
                        <g id="Group_291" data-name="Group 291" transform="translate(66.86 32.867)">
                            <path id="Path_2118" d="M88.561 147.745a1.017 1.017 0 0 1 .988-.055c.249.144.223.379-.1.567a1 1 0 0 1-.97.055c-.259-.149-.238-.381.082-.567z" class="cls-10" data-name="Path 2118" transform="translate(-88.301 -147.587)"/>
                        </g>
                        <g id="Group_292" data-name="Group 292" transform="translate(61.933 9.063)">
                            <path id="Path_2119" d="M126.731 141.267l-1.431.831-43.506-25.118 1.431-.831z" class="cls-9" data-name="Path 2119" transform="translate(-81.794 -116.149)"/>
                        </g>
                        <g id="Group_293" data-name="Group 293" transform="translate(58.843 10.857)">
                            <path id="Path_2120" d="M122.653 143.636l-1.435.834-43.506-25.118 1.436-.834z" class="cls-9" data-name="Path 2120" transform="translate(-77.712 -118.518)"/>
                        </g>
                        <g id="Group_294" data-name="Group 294" transform="translate(58.681 26.702)">
                            <path id="Path_2121" d="M92.551 140.943l-1.183.688a3.672 3.672 0 0 1 2.11 2.824 3.486 3.486 0 0 1-2.078 3.033 3.485 3.485 0 0 0 2.078-3.033 3.675 3.675 0 0 0-2.11-2.824 11.142 11.142 0 0 0-10.111 0 3.548 3.548 0 0 0-2.078 2.929 3.6 3.6 0 0 0 2.111 2.929l-1.183.688a13.776 13.776 0 0 0 12.491 0 13.776 13.776 0 0 1-12.491 0c-1.671-.965-2.6-2.249-2.607-3.616s.9-2.649 2.566-3.616a13.754 13.754 0 0 1 12.486 0z" class="cls-9" data-name="Path 2121" transform="translate(-77.499 -139.445)"/>
                        </g>
                        <g id="Group_295" data-name="Group 295" transform="translate(61.288 28.201)">
                            <path id="Path_2122" d="M93.387 141.424a4.531 4.531 0 0 1 2.606 3.485c.071 1.417-.837 2.749-2.561 3.75a13.776 13.776 0 0 1-12.491 0l1.183-.688a10.314 10.314 0 0 0 5.063 1.213 10.208 10.208 0 0 0 5.049-1.213 3.485 3.485 0 0 0 2.078-3.033 3.675 3.675 0 0 0-2.11-2.824z" class="cls-11" data-name="Path 2122" transform="translate(-80.942 -141.424)"/>
                        </g>
                        <g id="Group_296" data-name="Group 296" transform="translate(55.756 12.653)">
                            <path id="Path_2123" d="M118.572 146.008l-1.431.831-43.506-25.117 1.431-.831z" class="cls-9" data-name="Path 2123" transform="translate(-73.635 -120.891)"/>
                        </g>
                        <g id="Group_297" data-name="Group 297" transform="translate(81.1 38.641)">
                            <path id="Path_2124" d="M108.249 155.877a1.015 1.015 0 0 1-.975.058c-.249-.144-.223-.379.1-.565a1.013 1.013 0 0 1 .97-.061c.256.15.224.382-.095.568z" class="cls-10" data-name="Path 2124" transform="translate(-107.107 -155.212)"/>
                        </g>
                        <g id="Group_298" data-name="Group 298" transform="translate(75.062 36.163)">
                            <path id="Path_2125" d="M111.355 159.01a3.484 3.484 0 0 0 2.078-3.033 3.675 3.675 0 0 0-2.11-2.824 11.142 11.142 0 0 0-10.111 0 3.548 3.548 0 0 0-2.078 2.929 3.6 3.6 0 0 0 2.111 2.929 10.3 10.3 0 0 0 5.063 1.213 10.193 10.193 0 0 0 5.047-1.214z" class="cls-10" data-name="Path 2125" transform="translate(-99.133 -151.939)"/>
                        </g>
                        <g id="Group_299" data-name="Group 299" transform="translate(81.509 41.325)">
                            <path id="Path_2126" d="M107.909 158.916a1.018 1.018 0 0 1 .984-.058c.249.144.228.382-.1.57a1.006 1.006 0 0 1-.975.052c-.254-.148-.229-.38.091-.564z" class="cls-10" data-name="Path 2126" transform="translate(-107.646 -158.757)"/>
                        </g>
                        <g id="Group_300" data-name="Group 300" transform="translate(9.531 31.956)">
                            <path id="Path_2127" d="M30.954 148.713l-14.331 8.328-4.035-2.329 14.331-8.329z" class="cls-11" data-name="Path 2127" transform="translate(-12.588 -146.383)"/>
                        </g>
                        <g id="Group_301" data-name="Group 301" transform="translate(75.948 35.19)">
                            <path id="Path_2128" d="M112.789 152.153l-1.183.688a3.672 3.672 0 0 1 2.11 2.824 3.485 3.485 0 0 1-2.078 3.033 3.485 3.485 0 0 0 2.078-3.033 3.675 3.675 0 0 0-2.11-2.824 11.142 11.142 0 0 0-10.111 0l-1.191-.688a13.754 13.754 0 0 1 12.486 0z" class="cls-9" data-name="Path 2128" transform="translate(-100.303 -150.655)"/>
                        </g>
                        <g id="Group_302" data-name="Group 302" transform="translate(14.078 38.692)">
                            <path id="Path_2129" d="M29.886 157.609l-7.258 4.218-4.036-2.33 7.258-4.218z" class="cls-12" data-name="Path 2129" transform="translate(-18.593 -155.279)"/>
                        </g>
                        <g id="Group_303" data-name="Group 303" transform="translate(23.173 44.97)">
                            <path id="Path_2130" d="M40.129 165.9l-5.49 3.19-4.035-2.33 5.49-3.19z" class="cls-11" data-name="Path 2130" transform="translate(-30.604 -163.571)"/>
                        </g>
                        <g id="Group_304" data-name="Group 304" transform="translate(29.595 27.856)">
                            <path id="Path_2131" d="M84.022 166.086l-1.43.831L39.086 141.8l1.431-.831z" class="cls-9" data-name="Path 2131" transform="translate(-39.086 -140.969)"/>
                        </g>
                        <g id="Group_305" data-name="Group 305" transform="translate(25.532 30.217)">
                            <path id="Path_2132" d="M78.656 169.205l-1.43.831-43.506-25.118 1.431-.831z" class="cls-9" data-name="Path 2132" transform="translate(-33.72 -144.087)"/>
                        </g>
                        <g id="Group_306" data-name="Group 306" transform="translate(40.453 45.608)">
                            <path id="Path_2133" d="M75.3 176.219l-1.431.831-20.444-11.806 1.431-.831z" class="cls-9" data-name="Path 2133" transform="translate(-53.425 -164.413)"/>
                        </g>
                        <g id="Group_307" data-name="Group 307" transform="translate(37.038 47.592)">
                            <path id="Path_2134" d="M70.794 178.84l-1.43.831-20.449-11.805 1.431-.832z" class="cls-9" data-name="Path 2134" transform="translate(-48.915 -167.034)"/>
                        </g>
                        <g id="Group_308" data-name="Group 308" transform="translate(33.627 49.575)">
                            <path id="Path_2135" d="M66.29 181.458l-1.431.831-20.449-11.806 1.431-.831z" class="cls-9" data-name="Path 2135" transform="translate(-44.41 -169.652)"/>
                        </g>
                        <g id="Group_309" data-name="Group 309" transform="translate(30.702 51.274)">
                            <path id="Path_2136" d="M62.427 183.7l-1.427.834-20.452-11.806 1.431-.831z" class="cls-9" data-name="Path 2136" transform="translate(-40.548 -171.897)"/>
                        </g>
                        <g id="Group_310" data-name="Group 310">
                            <path id="Path_2137" d="M0 145.727l50.824 29.343 71.494-41.548-50.824-29.342zm61.247-13.346a13.756 13.756 0 0 1 12.487 0 4.531 4.531 0 0 1 2.606 3.485c.071 1.417-.837 2.748-2.561 3.75a13.776 13.776 0 0 1-12.491 0c-1.671-.965-2.6-2.249-2.607-3.616s.9-2.648 2.565-3.616m14.7 8.488a13.754 13.754 0 0 1 12.486 0 4.526 4.526 0 0 1 2.606 3.485c.071 1.417-.837 2.748-2.561 3.75a13.776 13.776 0 0 1-12.491 0c-1.671-.965-2.6-2.249-2.607-3.616s.9-2.649 2.566-3.616m-29.4-16.975a12.589 12.589 0 0 1 6.235-1.5 12.706 12.706 0 0 1 6.252 1.5 4.531 4.531 0 0 1 2.606 3.485c.071 1.417-.842 2.746-2.565 3.747a12.589 12.589 0 0 1-6.235 1.5 12.664 12.664 0 0 1-6.251-1.5c-1.676-.968-2.6-2.249-2.607-3.616s.9-2.649 2.565-3.616m66.012 11.162l-43.505-25.124 3.086-1.794 43.506 25.118-3.086 1.794m-10.209 5.933l-43.506-25.118 1.436-.834 43.506 25.118-1.436.834m6.178-3.59L65.02 112.28l1.431-.831 43.506 25.118-1.431.831m-3.087 1.794l-43.506-25.118 1.431-.831 43.506 25.118-1.431.831m-6.178 3.59l-43.505-25.118 1.431-.831 43.506 25.118-1.431.831m-30.224 17.565l-43.506-25.119 1.431-.831 43.506 25.118-1.431.831m4.063-2.362L29.6 132.867l1.431-.831 43.506 25.118-1.431.831m4.387-2.549l-43.51-25.118 1.431-.831L78.919 154.6l-1.431.831m-63.922-8.642l-4.035-2.33 14.331-8.328 4.035 2.33-14.331 8.328m9.095 5.251l-4.035-2.33 10.794-6.273 4.035 2.33-10.794 6.273m-4.547-2.625l-4.035-2.33 7.258-4.218 4.035 2.33-7.258 4.218m39.372 14.99L37.038 152.6l1.431-.831 20.449 11.806-1.431.831m3.415-1.985l-20.449-11.802 1.431-.831 20.449 11.806-1.431.831m-6.826 3.967l-20.449-11.806 1.431-.831 20.449 11.806-1.431.831m-2.924 1.7L30.7 156.286l1.431-.831 20.449 11.806-1.431.831M27.208 154.67l-4.035-2.33 5.49-3.19 4.035 2.33-5.49 3.19m61.923 35.01l-20.449-11.806 1.431-.831 20.448 11.806-1.43.831m3.415-1.985L72.1 175.889l1.431-.831 20.449 11.806-1.431.831m-6.826 3.966l-20.452-11.805 1.431-.831 20.449 11.805-1.431.831m-2.924 1.7l-20.449-11.806 1.431-.831 20.449 11.806-1.431.831" class="cls-4" data-name="Path 2137" transform="translate(0 -104.18)"/>
                        </g>
                        <g id="Group_311" data-name="Group 311" transform="translate(57.849 19.713)">
                            <path id="Path_2138" d="M77.583 130.215a4.531 4.531 0 0 1 2.606 3.485c.071 1.417-.842 2.746-2.565 3.747l-1.191-.688a3.472 3.472 0 0 0 2.073-3.036A3.67 3.67 0 0 0 76.4 130.9z" class="cls-12" data-name="Path 2138" transform="translate(-76.4 -130.215)"/>
                        </g>
                        <g id="Group_312" data-name="Group 312" transform="translate(45.658 19.188)">
                            <path id="Path_2139" d="M60.3 133.663a3.551 3.551 0 0 1 2.078-2.929 11.142 11.142 0 0 1 10.111 0 3.669 3.669 0 0 1 2.106 2.821 3.471 3.471 0 0 1-2.073 3.036 11.142 11.142 0 0 1-10.111 0 3.6 3.6 0 0 1-2.111-2.928z" class="cls-10" data-name="Path 2139" transform="translate(-60.3 -129.521)"/>
                        </g>
                        <g id="Group_313" data-name="Group 313" transform="translate(65.02 7.269)">
                            <path id="Path_2140" d="M130.807 138.9l-1.43.831-43.506-25.12 1.431-.831z" class="cls-9" data-name="Path 2140" transform="translate(-85.871 -113.78)"/>
                        </g>
                        <g id="Group_314" data-name="Group 314" transform="translate(73.382 36.688)">
                            <path id="Path_2141" d="M111.966 152.634a4.526 4.526 0 0 1 2.606 3.485c.071 1.417-.837 2.749-2.561 3.75a13.776 13.776 0 0 1-12.491 0c-1.671-.965-2.6-2.249-2.607-3.616s.9-2.649 2.566-3.616l1.191.688a3.551 3.551 0 0 0-2.078 2.929 3.6 3.6 0 0 0 2.111 2.929 11.142 11.142 0 0 0 10.111 0 3.485 3.485 0 0 0 2.078-3.033 3.675 3.675 0 0 0-2.11-2.824z" class="cls-11" data-name="Path 2141" transform="translate(-96.914 -152.633)"/>
                        </g>
                        <g id="Group_315" data-name="Group 315" transform="translate(18.626 39.262)">
                            <path id="Path_2142" d="M39.429 158.362l-10.794 6.273-4.035-2.33 10.794-6.273z" class="cls-11" data-name="Path 2142" transform="translate(-24.599 -156.032)"/>
                        </g>
                        <g id="Group_316" data-name="Group 316" transform="translate(33.983 25.307)">
                            <path id="Path_2143" d="M89.816 162.719l-1.43.831-43.506-25.117 1.431-.831z" class="cls-9" data-name="Path 2143" transform="translate(-44.88 -137.602)"/>
                        </g>
                        <g id="Group_317" data-name="Group 317" transform="translate(44.589 80.219)">
                            <path id="Path_2144" d="M77.254 212.453l-14.331 8.328-4.035-2.33 14.331-8.328z" class="cls-11" data-name="Path 2144" transform="translate(-58.888 -210.123)"/>
                        </g>
                        <g id="Group_318" data-name="Group 318" transform="translate(49.136 86.955)">
                            <path id="Path_2145" d="M76.186 221.349l-7.258 4.218-4.036-2.33 7.258-4.218z" class="cls-12" data-name="Path 2145" transform="translate(-64.893 -219.019)"/>
                        </g>
                        <g id="Group_319" data-name="Group 319" transform="translate(58.231 93.233)">
                            <path id="Path_2146" d="M86.429 229.64l-5.49 3.19-4.039-2.33 5.49-3.19z" class="cls-11" data-name="Path 2146" transform="translate(-76.904 -227.31)"/>
                        </g>
                        <g id="Group_320" data-name="Group 320" transform="translate(53.684 87.524)">
                            <path id="Path_2147" d="M85.729 222.1l-10.794 6.273-4.035-2.33 10.794-6.273z" class="cls-11" data-name="Path 2147" transform="translate(-70.899 -219.771)"/>
                        </g>
                    </g>
                </g>
            </g>
            <g id="Group_327" data-name="Group 327" transform="translate(94.687)">
                <g id="Group_326" data-name="Group 326">
                    <g id="Group_325" data-name="Group 325" transform="translate(3.85 44.457)">
                        <g id="Group_324" data-name="Group 324" transform="translate(.001)">
                            <path id="Path_2148" d="M148.881 61.817l-18.745 6.3V91.7c0 4.775 6.354 8.646 14.193 8.646s14.193-3.871 14.193-8.646V68.112z" class="cls-10" data-name="Path 2148" transform="translate(-130.136 -59.467)"/>
                            <ellipse id="Ellipse_47" cx="14.193" cy="8.646" class="cls-13" data-name="Ellipse 47" rx="14.193" ry="8.646"/>
                            <path id="Path_2149" d="M132.837 73.211c2.5 2.466 6.975 4.11 12.082 4.11s9.581-1.644 12.081-4.11a4.745 4.745 0 0 0 .264-1.552c0-4.154-5.528-7.522-12.347-7.522s-12.347 3.368-12.347 7.522a4.783 4.783 0 0 0 .267 1.552z" class="cls-14" data-name="Path 2149" transform="translate(-130.727 -60.03)"/>
                        </g>
                        <path id="Path_2150" d="M144.328 59.707c7.154 0 13.2 3.5 13.2 7.651s-6.044 7.651-13.2 7.651-13.2-3.5-13.2-7.651 6.044-7.651 13.2-7.651m0-.994c-7.838 0-14.193 3.871-14.193 8.646S136.489 76 144.328 76s14.193-3.871 14.193-8.646-6.354-8.646-14.193-8.646z" class="cls-15" data-name="Path 2150" transform="translate(-130.135 -58.713)"/>
                    </g>
                    <path id="Path_2151" d="M159.472 17.525c-1.187 2.524-1.2 5.421-1.2 8.211l.021 9.4a38.578 38.578 0 0 1-.963 10.628c-.972 3.435-3.063 6.716-6.26 8.3a4.562 4.562 0 0 1-6.666-1.55c-3.6-5.647-.27-13.236 2.32-18.659a47.91 47.91 0 0 1 12.748-16.33z" class="cls-16" data-name="Path 2151" transform="translate(-129.367 -4.255)"/>
                    <path id="Path_2152" d="M128.212 39.047c-.89-11.71-.29-23.64-3.161-35.027A47.173 47.173 0 0 1 135.4 38.5c2.593-8.094 5.213-16.354 5.166-24.852C140.539 9.588 143.038 0 143.038 0s1.471 9.174 2.824 13.632a40.262 40.262 0 0 1 1.292 9.428q.4 6.948.794 13.9c3.853-11.646 14.17-27.7 14.17-27.7s-3.8 30.6-5.811 37.6c-2.284 7.942-9.719 13.343-18.234 11.465-7.747-1.706-9.373-12.843-9.861-19.278z" class="cls-17" data-name="Path 2152" transform="translate(-125.051)"/>
                    <path id="Path_2153" d="M136.981 56.944c-1.62-4.452-.114-9.344.9-13.972a39.146 39.146 0 0 0 .454-16.8 252.142 252.142 0 0 1 10.737 26.449c.8 2.329 1.559 4.863.8 7.205-.713 2.208-4.7 6.111-7.352 5.457-2.082-.513-4.828-6.383-5.539-8.339z" class="cls-18" data-name="Path 2153" transform="translate(-127.774 -6.355)"/>
                </g>
            </g>
            <g id="Group_360" data-name="Group 360" transform="translate(90.032 17.884)">
                <g id="Group_359" data-name="Group 359">
                    <g id="Group_332" data-name="Group 332">
                        <path id="Path_2154" d="M278.33 71.706l-82.179-47.075a7.287 7.287 0 0 0-5.051-.867c-2.328.537-4.513 1.27-4.508 3.308l-.124 76.384 7.23 4.271c-2.365 1.152-74.5 36.262-74.622 36.349l-.173 2.946a3.552 3.552 0 0 0 1.773 3.081c12.279 7.112 84.21 48.695 84.21 48.695a7.645 7.645 0 0 0 7.65 0l68.364-39.517a2.31 2.31 0 0 0 1.154-2l.119-78.966a7.648 7.648 0 0 0-3.843-6.609z" class="cls-3" data-name="Path 2154" transform="translate(-118.903 -23.619)"/>
                        <g id="Group_328" data-name="Group 328" transform="translate(67.3 1.052)">
                            <path id="Path_2155" d="M301.334 157.364L207.976 104.1l-.192-76.216a2.861 2.861 0 0 1 4.283-2.49l86.09 49.317a6.043 6.043 0 0 1 3.039 5.227z" class="cls-4" data-name="Path 2155" transform="translate(-207.784 -25.008)"/>
                            <path id="Path_2156" d="M212.857 31.357l85.468 49.057.179 71.752L212.857 103z" class="cls-4" data-name="Path 2156" transform="translate(-209.016 -26.55)"/>
                        </g>
                        <g id="Group_329" data-name="Group 329" transform="translate(.071 79.591)">
                            <path id="Path_2157" d="M279.722 182.543l-93.308-53.811-65.988 38.138a2.862 2.862 0 0 0 0 4.955l85.9 49.642a6.042 6.042 0 0 0 6.045 0z" class="cls-10" data-name="Path 2157" transform="translate(-118.996 -128.732)"/>
                        </g>
                        <g id="Group_331" data-name="Group 331" transform="translate(32.255 89.086)">
                            <g id="Group_330" data-name="Group 330">
                                <path id="Path_2158" d="M297.156 201.133l4.644 2.667 4.7-2.655-4.645-2.668z" class="cls-3" data-name="Path 2158" transform="translate(-194.44 -155.162)"/>
                                <path id="Path_2159" d="M288.1 195.933l4.645 2.668 4.7-2.655-4.646-2.668z" class="cls-3" data-name="Path 2159" transform="translate(-192.242 -153.9)"/>
                                <path id="Path_2160" d="M279.043 190.733l4.646 2.668 4.7-2.655-4.646-2.668z" class="cls-3" data-name="Path 2160" transform="translate(-190.042 -152.637)"/>
                                <path id="Path_2161" d="M269.986 185.532l4.646 2.668 4.7-2.655-4.646-2.668z" class="cls-3" data-name="Path 2161" transform="translate(-187.843 -151.374)"/>
                                <path id="Path_2162" d="M260.93 180.331l4.646 2.669 4.7-2.655-4.646-2.668z" class="cls-3" data-name="Path 2162" transform="translate(-185.644 -150.111)"/>
                                <path id="Path_2163" d="M251.873 175.13l4.646 2.668 4.7-2.655-4.646-2.668z" class="cls-3" data-name="Path 2163" transform="translate(-183.445 -148.848)"/>
                                <path id="Path_2164" d="M242.816 169.929l4.646 2.668 4.7-2.655-4.646-2.668z" class="cls-3" data-name="Path 2164" transform="translate(-181.246 -147.586)"/>
                                <path id="Path_2165" d="M233.759 164.728l4.646 2.668 4.7-2.655-4.646-2.668z" class="cls-3" data-name="Path 2165" transform="translate(-179.047 -146.323)"/>
                                <path id="Path_2166" d="M224.7 159.527l4.646 2.668 4.7-2.655-4.646-2.668z" class="cls-3" data-name="Path 2166" transform="translate(-176.848 -145.06)"/>
                                <path id="Path_2167" d="M215.645 154.327l4.646 2.673 4.7-2.655-4.646-2.668z" class="cls-3" data-name="Path 2167" transform="translate(-174.649 -143.797)"/>
                                <path id="Path_2168" d="M206.589 149.126l4.646 2.668 4.7-2.655-4.645-2.668z" class="cls-3" data-name="Path 2168" transform="translate(-172.45 -142.534)"/>
                                <path id="Path_2169" d="M197.533 143.927l4.645 2.668 4.7-2.655-4.645-2.668z" class="cls-3" data-name="Path 2169" transform="translate(-170.251 -141.272)"/>
                                <path id="Path_2170" d="M288.449 206.055l4.645 2.668 4.7-2.655-4.645-2.668z" class="cls-3" data-name="Path 2170" transform="translate(-192.326 -156.357)"/>
                                <path id="Path_2171" d="M279.393 200.855l4.646 2.668 4.7-2.655-4.645-2.668z" class="cls-3" data-name="Path 2171" transform="translate(-190.127 -155.095)"/>
                                <path id="Path_2172" d="M270.337 195.654l4.646 2.668 4.7-2.655-4.648-2.667z" class="cls-3" data-name="Path 2172" transform="translate(-187.928 -153.832)"/>
                                <path id="Path_2173" d="M261.28 190.453l4.646 2.668 4.7-2.655-4.646-2.668z" class="cls-3" data-name="Path 2173" transform="translate(-185.729 -152.569)"/>
                                <path id="Path_2174" d="M252.223 185.253l4.646 2.668 4.7-2.655-4.646-2.668z" class="cls-3" data-name="Path 2174" transform="translate(-183.53 -151.306)"/>
                                <path id="Path_2175" d="M243.166 180.052l4.646 2.668 4.7-2.655-4.646-2.668z" class="cls-3" data-name="Path 2175" transform="translate(-181.331 -150.044)"/>
                                <path id="Path_2176" d="M234.109 174.852l4.646 2.668 4.7-2.655-4.646-2.668z" class="cls-3" data-name="Path 2176" transform="translate(-179.132 -148.781)"/>
                                <path id="Path_2177" d="M225.052 169.65l4.646 2.668 4.7-2.655-4.646-2.668z" class="cls-3" data-name="Path 2177" transform="translate(-176.933 -147.518)"/>
                                <path id="Path_2178" d="M215.995 164.45l4.646 2.668 4.7-2.655-4.646-2.668z" class="cls-3" data-name="Path 2178" transform="translate(-174.734 -146.255)"/>
                                <path id="Path_2179" d="M206.938 159.248l4.646 2.668 4.7-2.655-4.646-2.668z" class="cls-3" data-name="Path 2179" transform="translate(-172.534 -144.992)"/>
                                <path id="Path_2180" d="M197.882 154.048l4.645 2.668 4.7-2.655-4.645-2.668z" class="cls-3" data-name="Path 2180" transform="translate(-170.335 -143.73)"/>
                                <path id="Path_2181" d="M188.826 148.848l7.789 4.473 4.7-2.655-7.789-4.473z" class="cls-3" data-name="Path 2181" transform="translate(-168.137 -142.467)"/>
                                <path id="Path_2182" d="M275.689 208.649l7.715 4.43 4.7-2.655-7.715-4.43z" class="cls-3" data-name="Path 2182" transform="translate(-189.228 -156.987)"/>
                                <path id="Path_2183" d="M270.686 205.777l4.645 2.668 4.7-2.655-4.646-2.668z" class="cls-3" data-name="Path 2183" transform="translate(-188.013 -156.29)"/>
                                <path id="Path_2184" d="M261.63 200.576l4.646 2.668 4.7-2.655-4.646-2.668z" class="cls-3" data-name="Path 2184" transform="translate(-185.814 -155.027)"/>
                                <path id="Path_2185" d="M252.573 195.375l4.646 2.668 4.7-2.655-4.646-2.668z" class="cls-3" data-name="Path 2185" transform="translate(-183.615 -153.764)"/>
                                <path id="Path_2186" d="M243.516 190.176l4.646 2.668 4.7-2.655-4.646-2.668c-1.882 1.061-2.816 1.592-4.7 2.655z" class="cls-3" data-name="Path 2186" transform="translate(-181.416 -152.502)"/>
                                <path id="Path_2187" d="M234.459 184.975l4.646 2.668 4.7-2.655-4.646-2.668a3019.371 3019.371 0 0 0-4.7 2.655z" class="cls-3" data-name="Path 2187" transform="translate(-179.217 -151.239)"/>
                                <path id="Path_2188" d="M225.4 179.773l4.646 2.668 4.7-2.655-4.646-2.668z" class="cls-3" data-name="Path 2188" transform="translate(-177.018 -149.976)"/>
                                <path id="Path_2189" d="M216.345 174.573l4.646 2.668 4.7-2.655-4.646-2.668z" class="cls-3" data-name="Path 2189" transform="translate(-174.819 -148.713)"/>
                                <path id="Path_2190" d="M207.288 169.371l4.646 2.668 4.7-2.655-4.646-2.668z" class="cls-3" data-name="Path 2190" transform="translate(-172.619 -147.45)"/>
                                <path id="Path_2191" d="M198.231 164.171l4.646 2.668 4.7-2.655-4.646-2.668z" class="cls-3" data-name="Path 2191" transform="translate(-170.42 -146.187)"/>
                                <path id="Path_2192" d="M189.175 158.97l4.646 2.668 4.7-2.655-4.646-2.668z" class="cls-3" data-name="Path 2192" transform="translate(-168.221 -144.925)"/>
                                <path id="Path_2193" d="M180.119 153.77l4.645 2.668 4.7-2.655-4.645-2.668z" class="cls-3" data-name="Path 2193" transform="translate(-166.022 -143.662)"/>
                                <path id="Path_2194" d="M271.036 215.9l4.645 2.668 4.7-2.655-4.645-2.668z" class="cls-3" data-name="Path 2194" transform="translate(-188.098 -158.748)"/>
                                <path id="Path_2195" d="M261.979 210.7l4.645 2.668 4.7-2.655-4.646-2.668z" class="cls-3" data-name="Path 2195" transform="translate(-185.899 -157.485)"/>
                                <path id="Path_2196" d="M252.923 205.5l4.646 2.668 4.7-2.655-4.646-2.668z" class="cls-3" data-name="Path 2196" transform="translate(-183.7 -156.222)"/>
                                <path id="Path_2197" d="M243.866 200.3l4.646 2.668 4.7-2.655-4.646-2.668z" class="cls-3" data-name="Path 2197" transform="translate(-181.501 -154.959)"/>
                                <path id="Path_2198" d="M234.809 195.1l4.646 2.668 4.7-2.655-4.646-2.668z" class="cls-3" data-name="Path 2198" transform="translate(-179.302 -153.697)"/>
                                <path id="Path_2199" d="M225.752 189.9l4.646 2.668 4.7-2.655-4.646-2.668z" class="cls-3" data-name="Path 2199" transform="translate(-177.103 -152.434)"/>
                                <path id="Path_2200" d="M216.7 184.7l4.646 2.668 4.7-2.655-4.646-2.668z" class="cls-3" data-name="Path 2200" transform="translate(-174.904 -151.171)"/>
                                <path id="Path_2201" d="M207.638 179.495l4.646 2.668 4.7-2.655-4.646-2.668z" class="cls-3" data-name="Path 2201" transform="translate(-172.704 -149.908)"/>
                                <path id="Path_2202" d="M198.581 174.293l4.646 2.668 4.7-2.655-4.646-2.668z" class="cls-3" data-name="Path 2202" transform="translate(-170.505 -148.645)"/>
                                <path id="Path_2203" d="M189.524 169.093l4.646 2.668 4.7-2.655-4.646-2.668z" class="cls-3" data-name="Path 2203" transform="translate(-168.306 -147.383)"/>
                                <path id="Path_2204" d="M176.556 161.645l7.608 4.369 4.7-2.655-7.608-4.369z" class="cls-3" data-name="Path 2204" transform="translate(-165.157 -145.574)"/>
                                <path id="Path_2205" d="M171.412 158.692l4.645 2.668 4.7-2.655-4.645-2.668z" class="cls-3" data-name="Path 2205" transform="translate(-163.908 -144.857)"/>
                                <path id="Path_2206" d="M261.125 221.5l4.645 2.668 4.7-2.655-4.645-2.668z" class="cls-3" data-name="Path 2206" transform="translate(-185.692 -160.108)"/>
                                <path id="Path_2207" d="M252.069 216.3l4.645 2.668 4.7-2.655-4.645-2.668z" class="cls-3" data-name="Path 2207" transform="translate(-183.493 -158.845)"/>
                                <path id="Path_2208" d="M243.013 211.1l4.646 2.668 4.7-2.655-4.646-2.668z" class="cls-3" data-name="Path 2208" transform="translate(-181.294 -157.582)"/>
                                <path id="Path_2209" d="M188.671 179.9l38.935 22.358 4.7-2.655-38.938-22.363z" class="cls-3" data-name="Path 2209" transform="translate(-168.099 -150.005)"/>
                                <path id="Path_2210" d="M179.614 174.7l4.646 2.668 4.7-2.655-4.646-2.668z" class="cls-3" data-name="Path 2210" transform="translate(-165.9 -148.743)"/>
                                <path id="Path_2211" d="M170.558 169.494l4.645 2.668 4.7-2.655-4.646-2.668z" class="cls-3" data-name="Path 2211" transform="translate(-163.701 -147.48)"/>
                                <path id="Path_2212" d="M161.5 164.294l4.645 2.668 4.7-2.655-4.645-2.668z" class="cls-3" data-name="Path 2212" transform="translate(-161.502 -146.217)"/>
                            </g>
                        </g>
                        <path id="Path_2213" d="M214.554 206.872l-32.016-18.484-18.294 11.271 32 18.492z" class="cls-3" data-name="Path 2213" transform="translate(-129.912 -63.627)"/>
                    </g>
                    <g id="Group_358" data-name="Group 358" transform="translate(78.515 29.488)">
                        <g id="Group_333" data-name="Group 333" transform="translate(.331 19.692)">
                            <path id="Path_2214" d="M228.591 91.779l-5.557-3.209v.23l5.462 3.153z" class="cls-9" data-name="Path 2214" transform="translate(-223.033 -88.57)"/>
                        </g>
                        <g id="Group_334" data-name="Group 334" transform="translate(8.097 24.175)">
                            <path id="Path_2215" d="M235.342 95.911l.108-.172-2.161-1.248.1.294z" class="cls-9" data-name="Path 2215" transform="translate(-233.289 -94.491)"/>
                        </g>
                        <g id="Group_335" data-name="Group 335" transform="translate(.313 25.865)">
                            <path id="Path_2216" d="M226.044 98.473l-3.033-1.751v.226l2.941 1.7z" class="cls-9" data-name="Path 2216" transform="translate(-223.01 -96.722)"/>
                        </g>
                        <g id="Group_347" data-name="Group 347" transform="translate(.293 6.953)">
                            <g id="Group_336" data-name="Group 336" transform="translate(0 13.98)">
                                <path id="Path_2217" d="M225.944 97.065l-2.961 5.5 3.657 2.112 10.2 5.891-5-14.122-.955-2.7-.1-.294-1.148-3.242-1.06 1.968-.1.178-2.445 4.537z" class="cls-19" data-name="Path 2217" transform="translate(-222.983 -90.209)"/>
                            </g>
                            <g id="Group_337" data-name="Group 337" transform="translate(8.862 16.383)">
                                <path id="Path_2218" d="M235.681 95.641l-.994 1.571 5 14.122 3.73-1.413-1.779-4.667-.111-.291-2.908-7.628-.114-.3-1.393-3.654-1.321 2.088z" class="cls-11" data-name="Path 2218" transform="translate(-234.687 -93.382)"/>
                            </g>
                            <g id="Group_338" data-name="Group 338" transform="translate(13.861 31.445)">
                                <path id="Path_2219" d="M248.825 113.31l-3.806 1.442-3.73 1.413 5.474 3.16 9.562 5.521-6.235-9.739-1.084-1.693-.089-.139z" class="cls-19" data-name="Path 2219" transform="translate(-241.289 -113.275)"/>
                            </g>
                            <g id="Group_339" data-name="Group 339" transform="translate(15.701 27.964)">
                                <path id="Path_2220" d="M251.258 113.257l.123-.156-7.662-4.423.111.291 5.585 3.225.092-.035.089.139z" class="cls-9" data-name="Path 2220" transform="translate(-243.719 -108.678)"/>
                            </g>
                            <g id="Group_340" data-name="Group 340" transform="translate(22.662 29.29)">
                                <path id="Path_2221" d="M253.49 113.683l-.578.733 6.235 9.739 1.455-2.833-1.942-4.654-.125-.3-2.478-5.939-2.443 3.1z" class="cls-11" data-name="Path 2221" transform="translate(-252.912 -110.429)"/>
                            </g>
                            <g id="Group_341" data-name="Group 341" transform="translate(28.285 35.23)">
                                <path id="Path_2222" d="M263.8 120.5l.089-.174-3.556-2.053.125.3z" class="cls-9" data-name="Path 2222" transform="translate(-260.338 -118.273)"/>
                            </g>
                            <g id="Group_342" data-name="Group 342" transform="translate(12.678 20.037)">
                                <path id="Path_2223" d="M261.246 110.866l.092-.18-21.611-12.478.114.3z" class="cls-9" data-name="Path 2223" transform="translate(-239.727 -98.208)"/>
                            </g>
                            <g id="Group_343" data-name="Group 343" transform="translate(28.897 30.525)">
                                <path id="Path_2224" d="M264 118.992l-1.4 2.726-1.455 2.833 3.473 2.005 9.029 5.213-4.139-13.4-.891-2.886-.088-.285-.97-3.139-1.022 1.99-.092.18-2.356 4.589z" class="cls-19" data-name="Path 2224" transform="translate(-261.146 -112.059)"/>
                            </g>
                            <g id="Group_344" data-name="Group 344" transform="translate(36.281 33.664)">
                                <path id="Path_2225" d="M272.932 117.613l.1-.173-2.137-1.234.088.285z" class="cls-9" data-name="Path 2225" transform="translate(-270.899 -116.205)"/>
                            </g>
                            <g id="Group_345" data-name="Group 345" transform="translate(.057 6.173)">
                                <path id="Path_2226" d="M264.341 103.733L223.058 79.9v.233l41.179 23.776z" class="cls-9" data-name="Path 2226" transform="translate(-223.058 -79.898)"/>
                            </g>
                            <g id="Group_346" data-name="Group 346" transform="translate(.074)">
                                <path id="Path_2227" d="M223.082 71.746v.233l69.433 40.087.267.154v-.233l-.267-.154z" class="cls-9" data-name="Path 2227" transform="translate(-223.081 -71.746)"/>
                            </g>
                        </g>
                        <g id="Group_348" data-name="Group 348" transform="translate(43.223 37.879)">
                            <path id="Path_2228" d="M306.506 128.077l-.267-.154-26.559-15.334.118.3 26.441 15.265.267.154z" class="cls-9" data-name="Path 2228" transform="translate(-279.68 -112.589)"/>
                        </g>
                        <g id="Group_349" data-name="Group 349" transform="translate(46.55 46.377)">
                            <path id="Path_2229" d="M286.448 125.416l.126-.161-2.5-1.443.119.3z" class="cls-9" data-name="Path 2229" transform="translate(-284.074 -123.812)"/>
                        </g>
                        <g id="Group_350" data-name="Group 350" transform="translate(64.77 63.078)">
                            <path id="Path_2230" d="M313.38 148.9l-.267-.154-4.977-2.874.151.314 4.826 2.786.267.154z" class="cls-9" data-name="Path 2230" transform="translate(-308.136 -145.869)"/>
                        </g>
                        <g id="Group_354" data-name="Group 354" transform="translate(41.692 43.577)">
                            <g id="Group_351" data-name="Group 351">
                                <path id="Path_2231" d="M284.89 124.519L283.725 126l-6.067 7.723 11.747 6.782 9.467 5.465-4.078-10.021-3.039-7.469-.124-.305-3.281-8.063-3.333 4.243z" class="cls-19" data-name="Path 2231" transform="translate(-277.658 -120.114)"/>
                            </g>
                            <g id="Group_352" data-name="Group 352" transform="translate(17.136 13.327)">
                                <path id="Path_2232" d="M303.258 137.715l-2.969 2.509 4.078 10.021 6.819 3.937-4.805-9.98-.151-.314z" class="cls-11" data-name="Path 2232" transform="translate(-300.289 -137.715)"/>
                            </g>
                            <g id="Group_353" data-name="Group 353" transform="translate(13.972 8.063)">
                                <path id="Path_2233" d="M310.477 139.056l-.267-.154-14.1-8.14.124.305 13.975 8.069.267.154z" class="cls-9" data-name="Path 2233" transform="translate(-296.111 -130.762)"/>
                            </g>
                        </g>
                        <g id="Group_355" data-name="Group 355" transform="translate(37.553 35.717)">
                            <path id="Path_2234" d="M273.246 116.041l-1.054 1.763 4.139 13.4 6.067-7.723-1.09-2.785-.119-.3-3.209-8.2-.118-.3-.847-2.163-.743 1.244-.1.174-2.818 4.717z" class="cls-11" data-name="Path 2234" transform="translate(-272.192 -109.733)"/>
                        </g>
                        <g id="Group_356" data-name="Group 356" transform="translate(.387)">
                            <path id="Path_2235" d="M223.108 62.563v.226l69.7 40.241v-.23z" class="cls-9" data-name="Path 2235" transform="translate(-223.107 -62.563)"/>
                        </g>
                        <g id="Group_357" data-name="Group 357" transform="translate(0 33.116)">
                            <path id="Path_2236" d="M292.415 113.613l-.018 6.61.267.154v.233l-.267-.154-.017 5.939.267.154v.234l-.267-.154-.018 6.333.267.154v.233l-.267-.154-.017 5.939.267.154v.226l-.267-.154-.02 7.194L222.6 106.3v.307l69.991 40.41.095-33.249z" class="cls-9" data-name="Path 2236" transform="translate(-222.596 -106.299)"/>
                        </g>
                    </g>
                    <path id="Path_2237" d="M212.916 25.392l86.09 49.317a6.043 6.043 0 0 1 3.039 5.227l.138 77.43-2.808-1.6c-16.741-24.742-79.823-118-88.1-130.74a2.821 2.821 0 0 1 1.641.366z" class="cls-20" data-name="Path 2237" transform="translate(-141.333 -23.958)"/>
                </g>
            </g>
            <g id="Group_368" data-name="Group 368" transform="translate(59.842 163.477)">
                <path id="Path_2238" d="M84.62 242.588a.779.779 0 0 1 0-.421 1.977 1.977 0 0 1 .837-.956l42.959-24.81a4.157 4.157 0 0 1 3.909 0s17.577 10.148 19.528 11.276c.737.426.916.852.856 1.216v2c.1.72-.856 1.274-.856 1.274s-41.01 23.684-42.964 24.808a3.709 3.709 0 0 1-1.789.5 4.453 4.453 0 0 1-2.116-.5l-17.578-10.153-1.953-1.127a1.6 1.6 0 0 1-.833-.875.779.779 0 0 1 0-.421v-1.811z" class="cls-2" data-name="Path 2238" transform="translate(-80.382 -215.9)"/>
                <g id="Group_362" data-name="Group 362">
                    <g id="Group_361" data-name="Group 361">
                        <path id="Path_2239" d="M104.261 260.154a.786.786 0 0 1 0-.421V257.5l4.641-.921 39.156-22.613a4.157 4.157 0 0 1 3.909 0l18.133 10.47 2.251-.447v2.232c.1.72-.856 1.274-.856 1.274s-41.01 23.684-42.964 24.808a3.709 3.709 0 0 1-1.789.5 4.453 4.453 0 0 1-2.116-.5l-17.577-10.149-1.953-1.127a1.6 1.6 0 0 1-.834-.875z" class="cls-3" data-name="Path 2239" transform="translate(-85.151 -220.165)"/>
                        <path id="Path_2240" d="M123.612 271.513a.786.786 0 0 1 0-.421v-2.232l4.641-.921 39.156-22.613a4.157 4.157 0 0 1 3.909 0L189.45 255.8l2.251-.447v2.232c.1.72-.856 1.274-.856 1.274s-41.01 23.684-42.964 24.808a3.709 3.709 0 0 1-1.789.5 4.453 4.453 0 0 1-2.116-.5L126.4 273.515l-1.953-1.127a1.594 1.594 0 0 1-.834-.875z" class="cls-3" data-name="Path 2240" transform="translate(-89.85 -222.923)"/>
                        <path id="Path_2241" d="M79.067 245.537a.786.786 0 0 1 0-.421v-2.233l4.641-.921 39.156-22.613a4.157 4.157 0 0 1 3.909 0l18.133 10.47 2.251-.447v2.232c.1.72-.856 1.274-.856 1.274s-41.01 23.684-42.964 24.808a3.709 3.709 0 0 1-1.789.5 4.453 4.453 0 0 1-2.116-.5l-17.578-10.148-1.954-1.128a1.591 1.591 0 0 1-.834-.874z" class="cls-3" data-name="Path 2241" transform="translate(-79.034 -216.616)"/>
                        <path id="Path_2242" d="M81.852 244.591l17.577 10.149a4.163 4.163 0 0 0 3.906 0c1.954-1.124 42.964-24.808 42.964-24.808s1.951-1.125 0-2.253L126.771 216.4a4.157 4.157 0 0 0-3.909 0L79.9 241.21s-1.957 1.125 0 2.253z" class="cls-4" data-name="Path 2242" transform="translate(-79.032 -215.9)"/>
                        <path id="Path_2243" d="M107.046 259.044l17.577 10.149a4.163 4.163 0 0 0 3.906 0c1.954-1.124 42.964-24.808 42.964-24.808s1.951-1.125 0-2.253-19.528-11.276-19.528-11.276a4.157 4.157 0 0 0-3.909 0L105.1 255.663s-1.957 1.125 0 2.253z" class="cls-4" data-name="Path 2243" transform="translate(-85.15 -219.409)"/>
                        <path id="Path_2244" d="M126.617 270.568l17.577 10.149a4.163 4.163 0 0 0 3.906 0c1.954-1.124 42.964-24.808 42.964-24.808s1.951-1.125 0-2.253-19.528-11.276-19.528-11.276a4.157 4.157 0 0 0-3.909 0l-42.959 24.81s-1.957 1.125 0 2.253z" class="cls-4" data-name="Path 2244" transform="translate(-89.902 -222.207)"/>
                        <path id="Path_2245" d="M93.482 238.069l35.131-20.3 19.534 11.273-35.175 20.284z" class="cls-5" data-name="Path 2245" transform="translate(-82.541 -216.352)"/>
                        <path id="Path_2246" d="M117.257 251.742l35.132-20.3 19.534 11.273-35.175 20.284z" class="cls-5" data-name="Path 2246" transform="translate(-88.314 -219.672)"/>
                        <path id="Path_2247" d="M132.889 260.686l35.132-20.3 19.534 11.272-35.175 20.28z" class="cls-5" data-name="Path 2247" transform="translate(-92.109 -221.844)"/>
                        <path id="Path_2248" d="M83.864 243.816L119 223.512l19.534 11.272-35.175 20.284z" class="cls-5" data-name="Path 2248" transform="translate(-80.206 -217.748)"/>
                        <path id="Path_2249" d="M108.87 258.324L144 238.019l19.534 11.273-35.174 20.284z" class="cls-5" data-name="Path 2249" transform="translate(-86.277 -221.271)"/>
                        <path id="Path_2250" d="M122.989 266.486l35.132-20.3 19.534 11.272-35.175 20.28z" class="cls-5" data-name="Path 2250" transform="translate(-89.706 -223.252)"/>
                        <ellipse id="Ellipse_48" cx=".977" cy=".41" class="cls-5" data-name="Ellipse 48" rx=".977" ry=".41" transform="translate(77.258 43.048)"/>
                    </g>
                </g>
                <g id="Group_363" data-name="Group 363" transform="translate(9.295 17.465)">
                    <path id="Path_2251" d="M109.675 241.3l-14.331 8.328-4.036-2.33 14.331-8.328z" class="cls-11" data-name="Path 2251" transform="translate(-91.308 -238.966)"/>
                </g>
                <g id="Group_364" data-name="Group 364" transform="translate(13.843 24.201)">
                    <path id="Path_2252" d="M108.607 250.192l-7.258 4.218-4.035-2.329 7.258-4.218z" class="cls-12" data-name="Path 2252" transform="translate(-97.314 -247.862)"/>
                </g>
                <g id="Group_365" data-name="Group 365" transform="translate(22.936 30.48)">
                    <path id="Path_2253" d="M118.849 258.484l-5.489 3.19-4.036-2.33 5.49-3.19z" class="cls-11" data-name="Path 2253" transform="translate(-109.324 -256.154)"/>
                </g>
                <g id="Group_366" data-name="Group 366" transform="translate(18.39 24.772)">
                    <path id="Path_2254" d="M118.149 250.945l-10.794 6.273-4.035-2.33 10.794-6.273z" class="cls-11" data-name="Path 2254" transform="translate(-103.319 -248.615)"/>
                </g>
                <path id="Path_2255" d="M147.58 272.314l-20.448-11.806 1.43-.831 20.449 11.806-1.431.831" class="cls-4" data-name="Path 2255" transform="translate(-90.712 -226.529)"/>
                <path id="Path_2256" d="M152.091 269.693l-20.449-11.806 1.431-.831 20.448 11.805-1.43.832" class="cls-4" data-name="Path 2256" transform="translate(-91.807 -225.893)"/>
                <path id="Path_2257" d="M143.076 274.931l-20.449-11.805 1.431-.832 20.449 11.806-1.431.831" class="cls-4" data-name="Path 2257" transform="translate(-89.618 -227.165)"/>
                <path id="Path_2258" d="M139.213 277.176l-20.448-11.806 1.43-.831 20.449 11.806-1.431.831" class="cls-4" data-name="Path 2258" transform="translate(-88.68 -227.71)"/>
                <path id="Path_2259" d="M144.994 241.774l-20.449-11.806 1.431-.831 20.448 11.806-1.43.831" class="cls-4" data-name="Path 2259" transform="translate(-90.083 -219.114)"/>
                <path id="Path_2260" d="M149.5 239.153l-20.449-11.806 1.431-.831 20.449 11.806-1.431.831" class="cls-4" data-name="Path 2260" transform="translate(-91.178 -218.477)"/>
                <path id="Path_2261" d="M140.489 244.392l-20.449-11.806 1.431-.831 20.449 11.806-1.431.831" class="cls-4" data-name="Path 2261" transform="translate(-88.989 -219.75)"/>
                <path id="Path_2262" d="M136.627 246.637l-20.449-11.805 1.431-.831 20.448 11.805-1.43.831" class="cls-4" data-name="Path 2262" transform="translate(-88.052 -220.295)"/>
                <g id="Group_367" data-name="Group 367" transform="translate(48.705 19.921)">
                    <path id="Path_2263" d="M172.172 257.467l-20.449-11.806 1.431-.831 20.446 11.806-1.431.831" class="cls-4" data-name="Path 2263" transform="translate(-145.388 -242.845)"/>
                    <path id="Path_2264" d="M176.682 254.846l-20.448-11.806 1.43-.831 20.449 11.806-1.431.831" class="cls-4" data-name="Path 2264" transform="translate(-146.483 -242.209)"/>
                    <path id="Path_2265" d="M167.668 260.085l-20.449-11.806 1.431-.831 20.45 11.806-1.43.831" class="cls-4" data-name="Path 2265" transform="translate(-144.294 -243.481)"/>
                    <path id="Path_2266" d="M163.8 262.33l-20.449-11.806 1.431-.831 20.454 11.807-1.431.832" class="cls-4" data-name="Path 2266" transform="translate(-143.356 -244.026)"/>
                </g>
            </g>
        </g>
        <g id="Group_370" data-name="Group 370" transform="translate(626.148 654.404)">
            <path id="Path_2267" d="M5.222 21.228L41.338 9.015l5.481 11.427L75.89 8.033l-2.57-5.221 14.965 5.166-7.18 10.5L77.4 13.8 42.852 28.444l-5.163-10.612-25.633 8.1z" class="cls-8" data-name="Path 2267" transform="translate(-1.268 -.683)"/>
            <path id="Path_2268" d="M0 18.416L36.116 6.2 41.6 17.63 70.669 5.222 68.1 0l14.963 5.166-7.18 10.5-3.7-4.684-34.553 14.65-5.163-10.612-25.633 8.1z" class="cls-7" data-name="Path 2268"/>
        </g>
    </g>
</svg>
