<svg xmlns="http://www.w3.org/2000/svg" xmlns:xlink="http://www.w3.org/1999/xlink" width="384" height="396.021" viewBox="0 0 384 396.021">
    <defs>
        <style>
            .cls-1{fill:#4b7dff;opacity:.3}.cls-2{fill:#1b84e7;opacity:.8}.cls-3{fill:#fff}.cls-4{fill:#31aee0}.cls-5{fill:#8cdeff}.cls-6{fill:url(#linear-gradient)}.cls-7{fill:url(#linear-gradient-3)}.cls-15,.cls-8,.cls-9{opacity:.2}.cls-10{fill:url(#linear-gradient-5)}.cls-11{fill:url(#linear-gradient-6)}.cls-12{fill:url(#linear-gradient-7)}.cls-13{fill:url(#linear-gradient-8)}.cls-14{fill:#916262}.cls-15,.cls-31{fill:#212226}.cls-16{fill:#221c7d}.cls-17{fill:#a67070}.cls-18{fill:#2d24a3}.cls-19{fill:#ffadad}.cls-20{fill:#b23424}.cls-21{fill:#f25f46}.cls-22{fill:#42444d}.cls-23{fill:#392ecf}.cls-24{fill:url(#linear-gradient-9)}.cls-25{fill:url(#linear-gradient-10)}.cls-26{fill:#ffe7db}.cls-27{fill:url(#linear-gradient-11)}.cls-28{fill:#9a9fb3}.cls-29{fill:url(#linear-gradient-12)}.cls-30{fill:url(#linear-gradient-13)}.cls-32{fill:#9fa9d1}.cls-33,.cls-34{fill:none;stroke:#fff;stroke-miterlimit:10}.cls-34{stroke-width:.5px}.cls-35{opacity:.53}.cls-36{fill:#ed7e7e}
        </style>
        <linearGradient id="linear-gradient" x1=".5" x2=".5" y1=".788" y2="-.044" gradientUnits="objectBoundingBox">
            <stop offset="0" stop-color="#ffe7db"/>
            <stop offset=".239" stop-color="#fde4d8"/>
            <stop offset=".409" stop-color="#f5dbd0"/>
            <stop offset=".557" stop-color="#e8cbc2"/>
            <stop offset=".693" stop-color="#d6b5ae"/>
            <stop offset=".821" stop-color="#be9994"/>
            <stop offset=".941" stop-color="#a27674"/>
            <stop offset="1" stop-color="#916262"/>
        </linearGradient>
        <linearGradient id="linear-gradient-3" x1=".5" x2=".5" y1=".808" y2="-.024" xlink:href="#linear-gradient"/>
        <linearGradient id="linear-gradient-5" x1="214.962" x2="214.962" y1=".788" y2="-.044" xlink:href="#linear-gradient"/>
        <linearGradient id="linear-gradient-6" x1="209.098" x2="209.098" y1=".788" y2="-.044" xlink:href="#linear-gradient"/>
        <linearGradient id="linear-gradient-7" x1="212.551" x2="212.551" y1=".808" y2="-.024" xlink:href="#linear-gradient"/>
        <linearGradient id="linear-gradient-8" x1="206.689" x2="206.689" y1=".808" y2="-.024" xlink:href="#linear-gradient"/>
        <linearGradient id="linear-gradient-9" x1=".236" x2=".236" y1=".973" y2="-.037" xlink:href="#linear-gradient"/>
        <linearGradient id="linear-gradient-10" x1="79.648" x2="79.648" y1=".973" y2="-.037" xlink:href="#linear-gradient"/>
        <linearGradient id="linear-gradient-11" x1=".5" x2=".5" y1="-4.639" y2="6.148" xlink:href="#linear-gradient"/>
        <linearGradient id="linear-gradient-12" x1=".621" x2=".621" y1=".607" y2="1.425" gradientUnits="objectBoundingBox">
            <stop offset="0" stop-color="#fff"/>
            <stop offset="1" stop-color="#ffadad"/>
        </linearGradient>
        <linearGradient id="linear-gradient-13" x1="48.654" x2="48.654" y1=".607" y2="1.425" xlink:href="#linear-gradient-12"/>
    </defs>
    <g id="walk_through_illustration_2_" data-name="walk through illustration_2" transform="translate(-471.042 -428.004)">
        <path id="Path_356" d="M159.194 5.158c49.728 24.366 38.606 83.3 63.359 134.668s19.062 96.265-6.753 125.374-89.757 41.461-148.977 2.838C36.836 248.475-4.529 217.4-.206 143.61 4.611 61.407 101.12-23.3 159.194 5.158z" class="cls-1" data-name="Path 356" transform="rotate(173 376.373 402.644)"/>
        <path id="Path_263" d="M170.164 5.938C223.4 31.455 211.726 92.7 238.367 146.2s20.721 100.172-6.766 130.345-95.782 42.791-159.215 2.414C40.265 258.517-4.057 226.053.3 149.337 5.149 63.873 107.993-23.861 170.164 5.938z" class="cls-2" data-name="Path 263" transform="rotate(144.99 320.614 473.598)"/>
        <g id="Group_63" data-name="Group 63" transform="translate(570.134 512.696)">
            <ellipse id="Ellipse_9" cx="101.006" cy="14.977" class="cls-3" data-name="Ellipse 9" rx="101.006" ry="14.977" transform="translate(1.543 195.473)"/>
            <g id="Group_31" data-name="Group 31" transform="translate(126.993 79.557)">
                <g id="Group_28" data-name="Group 28" transform="translate(16.84)">
                    <path id="Path_78" d="M192.846 94.633h-27.893a3.489 3.489 0 0 0-4.159 2.657l-12.158 55.146a3.477 3.477 0 0 0 4.129 4.159h26.421z" class="cls-4" data-name="Path 78" transform="translate(-148.554 -94.55)"/>
                    <path id="Path_79" d="M172.2 156.6a3.489 3.489 0 0 0 4.159-2.657l12.156-55.146a3.489 3.489 0 0 0-2.657-4.159 3.489 3.489 0 0 0-4.158 2.652l-12.156 55.146a3.491 3.491 0 0 0 2.656 4.164z" class="cls-5" data-name="Path 79" transform="translate(-141.563 -94.55)"/>
                </g>
                <g id="Group_30" data-name="Group 30" transform="translate(.616 63.758)">
                    <path id="Path_80" d="M175.411 204.133H172.6l-6.7-60.877h4.481z" class="cls-6" data-name="Path 80" transform="translate(-126.532 -142.022)"/>
                    <path id="Path_81" d="M144.989 204.133h2.811l6.709-60.877h-4.481z" class="cls-6" data-name="Path 81" transform="translate(-133.523 -142.022)"/>
                    <path id="Path_82" d="M166.818 203.207h-2.808l-6.71-60.876h4.481z" class="cls-7" data-name="Path 82" transform="translate(-129.405 -142.331)"/>
                    <path id="Path_83" d="M136.4 203.207h2.8l6.708-60.876h-4.481z" class="cls-7" data-name="Path 83" transform="translate(-136.396 -142.331)"/>
                    <g id="Group_29" class="cls-8" data-name="Group 29" transform="translate(4.362)">
                        <path id="Path_84" d="M139.665 150.456h4.258l.9-8.125h-4.481z" data-name="Path 84" transform="translate(-139.665 -142.331)"/>
                        <path id="Path_85" d="M148.335 150.147h4.291l.759-6.891H148.9z" data-name="Path 85" transform="translate(-136.766 -142.022)"/>
                        <path id="Path_86" d="M161.784 142.331H157.3l.9 8.125h4.258z" data-name="Path 86" transform="translate(-133.767 -142.331)"/>
                        <path id="Path_87" d="M170.377 143.256H165.9l.759 6.891h4.291z" data-name="Path 87" transform="translate(-130.894 -142.022)"/>
                    </g>
                </g>
                <path id="Path_88" d="M183.908 147.007h-47.974v-6h47.974a3 3 0 0 1 3 3 3 3 0 0 1-3 3z" class="cls-4" data-name="Path 88" transform="translate(-135.934 -79.015)"/>
                <path id="Rectangle_32" d="M0 0h24.015v5.998H0z" class="cls-9" data-name="Rectangle 32" transform="translate(0 61.992)"/>
            </g>
            <g id="Group_35" data-name="Group 35" transform="translate(14.377 79.557)">
                <g id="Group_32" data-name="Group 32">
                    <path id="Path_89" d="M53.594 94.633h27.893a3.489 3.489 0 0 1 4.159 2.657L97.8 152.435a3.477 3.477 0 0 1-4.129 4.159H67.253z" class="cls-4" data-name="Path 89" transform="translate(-50.851 -94.55)"/>
                    <path id="Path_90" d="M67.936 156.6a3.489 3.489 0 0 1-4.159-2.657l-12.156-55.15a3.489 3.489 0 0 1 2.657-4.159 3.489 3.489 0 0 1 4.159 2.657l12.156 55.146a3.491 3.491 0 0 1-2.657 4.163z" class="cls-5" data-name="Path 90" transform="translate(-51.538 -94.55)"/>
                </g>
                <g id="Group_34" data-name="Group 34" transform="translate(14.379 63.758)">
                    <path id="Path_91" d="M62.314 204.133h2.808l6.708-60.877h-4.481z" class="cls-10" data-name="Path 91" transform="translate(-62.314 -142.022)"/>
                    <path id="Path_92" d="M92.736 204.133H89.93l-6.709-60.877H87.7z" class="cls-11" data-name="Path 92" transform="translate(-55.323 -142.022)"/>
                    <path id="Path_93" d="M70.907 203.207h2.808l6.708-60.876h-4.481z" class="cls-12" data-name="Path 93" transform="translate(-59.441 -142.331)"/>
                    <path id="Path_94" d="M101.329 203.207h-2.806l-6.709-60.876h4.481z" class="cls-13" data-name="Path 94" transform="translate(-52.45 -142.331)"/>
                    <g id="Group_33" class="cls-8" data-name="Group 33" transform="translate(4.465)">
                        <path id="Path_95" d="M96.967 150.456h-4.258l-.9-8.125h4.481z" data-name="Path 95" transform="translate(-56.915 -142.331)"/>
                        <path id="Path_96" d="M88.272 150.147H83.98l-.759-6.891H87.7z" data-name="Path 96" transform="translate(-59.788 -142.022)"/>
                        <path id="Path_97" d="M74.848 142.331h4.481l-.9 8.125h-4.252z" data-name="Path 97" transform="translate(-62.812 -142.331)"/>
                        <path id="Path_98" d="M66.23 143.256h4.481l-.759 6.891H65.66z" data-name="Path 98" transform="translate(-65.66 -142.022)"/>
                    </g>
                </g>
                <path id="Path_99" d="M64.207 147.007h47.973v-6H64.207a3 3 0 0 0-3 3 3 3 0 0 0 3 3z" class="cls-4" data-name="Path 99" transform="translate(-48.305 -79.015)"/>
                <path id="Rectangle_33" d="M0 0h24.015v5.998H0z" class="cls-9" data-name="Rectangle 33" transform="translate(39.86 61.992)"/>
            </g>
            <g id="Group_36" data-name="Group 36" transform="translate(18.107 59.432)">
                <path id="Path_100" d="M100.457 191.743c.36-1.038 1-1.736 1.735-1.736s1.374.7 1.735 1.736h17.6l-.878-2.5a7.64 7.64 0 0 0-4.637-4.665l-6.957-2.486a3.552 3.552 0 0 1-2.27-4.126l1.643-7.287H98.314l-2.084 11.807-1.717 9.261h5.945z" class="cls-14" data-name="Path 100" transform="translate(-40.899 -48.971)"/>
                <path id="Path_101" d="M94.513 187.432h5.943c.36-1.038 1-1.736 1.735-1.736s1.374.7 1.735 1.736h17.6l-.878-2.5a7.7 7.7 0 0 0-.643-1.361H95.23z" class="cls-15" data-name="Path 101" transform="translate(-40.899 -44.66)"/>
                <path id="Path_102" d="M90.983 132.257s19.138 4.167 26.083 5.865 12.347 4.63 9.106 16.206-8.643 32.72-8.643 32.72h-12.347l6.482-38.034-36.115-4.255-6.649-14.765z" class="cls-16" data-name="Path 102" transform="translate(-49.465 -62.574)"/>
                <path id="Path_103" d="M106.854 194.57c.36-1.038 1-1.736 1.735-1.736s1.374.7 1.735 1.736h17.6l-.878-2.5a7.64 7.64 0 0 0-4.646-4.67l-6.526-2.333a7.554 7.554 0 0 1-4.585-4.614l-2.435-6.953H98.75l2.623 11.807-.463 9.261h5.943z" class="cls-17" data-name="Path 103" transform="translate(-39.482 -48.026)"/>
                <path id="Path_104" d="M64.32 131.812c.823 5.967-.926 12.831 8.335 15.521s23.719 2.9 23.719 2.9l13.117 39.305h13.118l-13.114-44.4a10.281 10.281 0 0 0-7.316-7.05l-22.239-6.762z" class="cls-18" data-name="Path 104" transform="translate(-50.995 -62.128)"/>
                <path id="Path_105" d="M84.933 112.9l5.144 12.3 16.147 1.955s8.008-1.595 10.622 3.421H84.933l-5.91-16.489z" class="cls-19" data-name="Path 105" transform="translate(-46.079 -68.291)"/>
                <path id="Path_106" d="M78.152 101.379c3.871 1.553 9.737 17.091 9.737 17.091h-9.737z" class="cls-20" data-name="Path 106" transform="translate(-46.37 -72.142)"/>
                <path id="Path_107" d="M79.429 84.926l3.241 7.563-1.7.54s1.312 3.859.849 5.171-4.4 2.007-4.4 2.007l.849 8.335H68.7a26.1 26.1 0 0 0-2.81-11.512 50.787 50.787 0 0 0-5.833-9.246z" class="cls-19" data-name="Path 107" transform="translate(-52.419 -77.643)"/>
                <path id="Path_108" d="M67.826 90.877c.44-1.238 2.976.247 2.976.247l1.1 1.991 1.676-.54-2.331-6.745-11.187 1.648a50.7 50.7 0 0 1 5.833 9.246 25.646 25.646 0 0 1 1.613 4.01 6.707 6.707 0 0 0 2.359-1.634 4.681 4.681 0 0 0 1.5-3.2c-1.625-.085-4.394-2.618-3.539-5.023z" class="cls-14" data-name="Path 108" transform="translate(-52.419 -77.341)"/>
                <path id="Path_109" d="M75.342 99.484l-15.571 1.767 5.244 41.208h29.677L84.3 102.013z" class="cls-21" data-name="Path 109" transform="translate(-52.516 -72.775)"/>
                <path id="Path_110" d="M62.475 112.9l-.694 11.917 16.051 3.208 5.255-1.234s6.859 1.26 7.94 4.142H54.913l.463-18.031h7.1z" class="cls-19" data-name="Path 110" transform="translate(-54.14 -68.291)"/>
                <path id="Path_111" d="M79.43 84.926l-19.37 2.856s.384.451 1.017 1.312l19.43-1.652z" class="cls-15" data-name="Path 111" transform="translate(-52.419 -77.643)"/>
                <path id="Path_112" d="M61.427 90.8s26.038-4.277 26.192-4.817-7.871-.386-7.871-.386.7-5.155-3.7-5.865c-4.957-.8-11.8.21-15.743 3.527C57.5 85.61 57.1 89.1 61.427 90.8z" class="cls-3" data-name="Path 112" transform="translate(-53.046 -79.468)"/>
                <path id="Path_113" d="M65.294 98.55l8.426 1.25-1.354 4.187-7.745-3.04z" class="cls-20" data-name="Path 113" transform="translate(-50.894 -73.088)"/>
                <path id="Path_114" d="M75.8 98.85l-4.359.891.85 4.361 4.3-2.874z" class="cls-20" data-name="Path 114" transform="translate(-48.614 -72.987)"/>
                <path id="Path_115" d="M63.276 100.632c-4.157.466-6.752 2.866-7.657 8.182-.975 5.736-1.285 9.9-1.285 9.9h9.3s.343-7.974.343-11.215a26.025 26.025 0 0 0-.701-6.867z" class="cls-20" data-name="Path 115" transform="translate(-54.334 -72.392)"/>
                <path id="Path_116" d="M76.945 85.581s.7-5.155-3.7-5.865c-.632-.1-1.3-.172-1.983-.215a8.3 8.3 0 0 0-4.636 8.444z" class="cls-15" data-name="Path 116" transform="translate(-50.244 -79.457)"/>
                <path id="Path_117" d="M100.369 190.236h5.943c.36-1.038 1-1.736 1.735-1.736s1.374.7 1.735 1.736h17.6l-.878-2.5a7.637 7.637 0 0 0-.592-1.269h-25.355z" class="cls-15" data-name="Path 117" transform="translate(-38.941 -43.691)"/>
            </g>
            <g id="Group_37" data-name="Group 37" transform="translate(96.977 48.454)">
                <path id="Path_118" d="M135.456 172.24L132.28 183l-10.827 10.393-8.012 3.607s4.692 4.258 13.281 1.588 11.981-3.176 12.7-4.764.578-8.524.578-8.524l3.464-12.271z" class="cls-19" data-name="Path 118" transform="translate(-113.44 -37.47)"/>
                <path id="Path_119" d="M126.722 195.107c8.589-2.67 11.981-3.176 12.7-4.764a19.921 19.921 0 0 0 .57-5.338l-5.105 1.7c-.734-2.6-3.8-3.648-5.869-4.065l-7.57 7.267-8.012 3.609s4.697 4.262 13.286 1.591z" class="cls-18" data-name="Path 119" transform="translate(-113.44 -33.991)"/>
                <path id="Path_120" d="M179.407 129.705l-2.989 11.254a9.654 9.654 0 0 1-9.331 7.176H152.86l-12.96 41.034h-12.2l10.308-51.087 26.27-9.724z" class="cls-21" data-name="Path 120" transform="translate(-108.671 -52.142)"/>
                <path id="Path_121" d="M149.638 132.071l-2.413.6-11.274 4.173-2.084 10.332 14.96 5.966 1.974-6.246h14.227a9.631 9.631 0 0 0 9.152-6.679z" class="cls-15" data-name="Path 121" transform="translate(-106.61 -50.901)"/>
                <path id="Path_122" d="M154.289 137.059h9.411s6.069-3.472 8.205-2.084 1.9 6.945 1.9 6.945 1.466 4.553.694 7.176a86.187 86.187 0 0 1-3.319 8.1l-4.358-8.477a10.115 10.115 0 0 0-8.483-5.478l-6.3-.32z" class="cls-19" data-name="Path 122" transform="translate(-100.53 -50.04)"/>
                <path id="Path_123" d="M168.47 134.975c-1.172-.762-3.521-.061-5.41.727a16.25 16.25 0 0 1 1.525 7.993 3.4 3.4 0 0 0-2.242 3.4l-.013.017a10.082 10.082 0 0 1 1.061 1.613l4.358 8.477a86.562 86.562 0 0 0 3.319-8.1c.771-2.623-.694-7.176-.694-7.176s.233-5.562-1.904-6.951z" class="cls-18" data-name="Path 123" transform="translate(-97.092 -50.04)"/>
                <path id="Path_124" d="M165.289 138.171l-1.544 9.744h-33.131c-8.643 0-10.324-7.587-7.306-9.744 4.322-3.086 30.305-9.155 30.305-9.155l11.674 1.541-16.566 6.893z" class="cls-21" data-name="Path 124" transform="translate(-110.604 -51.923)"/>
                <path id="Path_125" d="M162.856 101.137l-17.286 8.951-12.759-15.228v-.842a3.955 3.955 0 0 0-.963-2.587l-3.975-4.6v1.328a3.12 3.12 0 0 0 .171 1.019l.858 2.489-4.733-1.749-3.4-3.086-1.529 3.44a2.32 2.32 0 0 0 .212 2.262l2.719 3.935a4.988 4.988 0 0 0 3.791 2.142l2.936.183 13.482 23.126 26.032-11.113z" class="cls-16" data-name="Path 125" transform="translate(-111.566 -66.027)"/>
                <path id="Path_126" d="M132.811 94.861v-.842a3.955 3.955 0 0 0-.963-2.587l-3.975-4.6v1.328a3.12 3.12 0 0 0 .171 1.019l.858 2.489-4.733-1.749-3.4-3.086-1.529 3.44a2.32 2.32 0 0 0 .212 2.262l2.719 3.935a4.988 4.988 0 0 0 3.791 2.142l2.936.183 6.29 10.791a14.094 14.094 0 0 0 5.716-5.063z" class="cls-19" data-name="Path 126" transform="translate(-111.566 -66.027)"/>
                <path id="Path_127" d="M154.048 86.338s-6.816-3.8-3.241-10.417c2.6-4.812 7.731-2.882 7.731-2.882a9.882 9.882 0 0 1 9.491-1.1c4.421 1.595 8 6.939 6.405 11.05-1.764 4.553.749 11.365-2.294 12.59-3.962 1.595-5.458-.243-9.745-2.171s-8.347-7.07-8.347-7.07z" class="cls-22" data-name="Path 127" transform="translate(-101.292 -71.241)"/>
                <path id="Path_128" d="M155.078 77.425s-3.046 6.486-3.972 8.133h2.47s-.077 3.947.618 5.556c1.3 3.009 5.221.411 6.045 1.647s1.569 5.248 1.569 5.248h8.232l-1.7-9.183s3.009-2.16 2.47-4.476-3.164-.54-3.164-.54-1.234 5.248-1.544 5.248-.694-4.4-.694-4.4-2.547-.54-3.549-5.787c-.001-.002-3.127 1.563-6.781-1.446z" class="cls-19" data-name="Path 128" transform="translate(-100.845 -69.174)"/>
                <path id="Path_129" d="M161.921 90.768h10.187s-.052 2.366 3.344 3.91 4.733 2.263 5.351 8.335-6.893 41.671-6.893 41.671h-25.763a2.461 2.461 0 0 1-2.29-3.359c2.866-7.363 9.128-25.547 8.092-41.5l7.922-6.277z" class="cls-18" data-name="Path 129" transform="translate(-102.658 -64.712)"/>
                <path id="Path_130" d="M176.249 95.02c3.822 3.176 6.7 12.23 9.481 18.3s7.408 15.846 4.218 24.8h-37.454l4.733-5.556 6.833.721 18.17-3.91s-5.807-13.6-8.746-19.755a11.841 11.841 0 0 1 2.765-14.6z" class="cls-23" data-name="Path 130" transform="translate(-100.381 -63.29)"/>
                <path id="Path_131" d="M178.516 121.445l-13.94 3-3.339-.352a8.418 8.418 0 0 0-6.214 1.857l-4.067 3.329h29.172c.972-4.279-.323-6.612-1.612-7.834z" class="cls-19" data-name="Path 131" transform="translate(-100.896 -54.454)"/>
                <path id="Path_132" d="M143.09 135.692l-7.511-.515s4.733-1.645 7.511.515z" class="cls-15" data-name="Path 132" transform="translate(-106.037 -50.063)"/>
            </g>
            <g id="Group_41" data-name="Group 41" transform="translate(8.762 121.711)">
                <g id="Group_40" data-name="Group 40" transform="translate(7.473 3.241)">
                    <g id="Group_38" data-name="Group 38">
                        <path id="Path_133" d="M56.634 213.5h-3.7l2.933-84.929h7.408z" class="cls-24" data-name="Path 133" transform="translate(-52.93 -128.57)"/>
                        <path id="Path_134" d="M54.855 139.106H61.8l.823-10.536h-7.404z" class="cls-9" data-name="Path 134" transform="translate(-52.286 -128.57)"/>
                    </g>
                    <g id="Group_39" data-name="Group 39" transform="translate(162.288)">
                        <path id="Path_135" d="M181.188 213.5h3.7l-2.933-84.929h-7.408z" class="cls-25" data-name="Path 135" transform="translate(-174.551 -128.57)"/>
                        <path id="Path_136" d="M182.324 139.106h-6.949l-.823-10.536h7.408z" class="cls-9" data-name="Path 136" transform="translate(-174.551 -128.57)"/>
                    </g>
                </g>
                <path id="Rectangle_34" d="M0 0h187.575v6.988H0z" class="cls-26" data-name="Rectangle 34"/>
                <path id="Rectangle_35" d="M0 0h187.575v1.852H0z" class="cls-27" data-name="Rectangle 35" transform="translate(0 6.987)"/>
            </g>
            <g id="Group_43" data-name="Group 43" transform="translate(100.365 97.506)">
                <path id="Rectangle_36" d="M0 0h53.538v1.466H0z" class="cls-28" data-name="Rectangle 36" transform="translate(4.372 22.739)"/>
                <g id="Group_42" data-name="Group 42">
                    <path id="Path_137" d="M155.677 132.207h-36.188L116 110.055a1.7 1.7 0 0 1 1.718-2.055h32.116a2.484 2.484 0 0 1 2.359 2.054z" class="cls-29" data-name="Path 137" transform="translate(-115.979 -108.001)"/>
                    <path id="Path_138" d="M141.6 108h-.985a2.484 2.484 0 0 1 2.359 2.054l3.484 22.152h.985l-3.484-22.152A2.484 2.484 0 0 0 141.6 108z" class="cls-15" data-name="Path 138" transform="translate(-107.742 -108.001)"/>
                    <path id="Path_139" d="M135.683 118.067a3.3 3.3 0 0 1-3.315 3.974 4.809 4.809 0 0 1-4.565-3.974 3.3 3.3 0 0 1 3.315-3.974 4.809 4.809 0 0 1 4.565 3.974z" class="cls-15" data-name="Path 139" transform="translate(-112.041 -105.964)"/>
                </g>
            </g>
            <g id="Group_45" data-name="Group 45" transform="translate(35.337 97.506)">
                <path id="Rectangle_37" d="M0 0h53.538v1.466H0z" class="cls-28" data-name="Rectangle 37" transform="translate(0 22.739)"/>
                <g id="Group_44" data-name="Group 44" transform="translate(18.21)">
                    <path id="Path_140" d="M80.893 132.207h36.188l3.484-22.152a1.7 1.7 0 0 0-1.713-2.055H86.738a2.484 2.484 0 0 0-2.359 2.054z" class="cls-30" data-name="Path 140" transform="translate(-80.893 -108.001)"/>
                    <path id="Path_141" d="M86.737 108h.985a2.485 2.485 0 0 0-2.359 2.054l-3.484 22.152h-.985l3.484-22.152A2.484 2.484 0 0 1 86.737 108z" class="cls-15" data-name="Path 141" transform="translate(-80.893 -108.001)"/>
                    <path id="Path_142" d="M92.94 118.067a3.3 3.3 0 0 0 3.315 3.974 4.808 4.808 0 0 0 4.565-3.974 3.3 3.3 0 0 0-3.315-3.974 4.809 4.809 0 0 0-4.565 3.974z" class="cls-15" data-name="Path 142" transform="translate(-76.882 -105.964)"/>
                </g>
            </g>
            <g id="Group_51" data-name="Group 51" transform="translate(64.915 41.447)">
                <g id="Group_47" class="cls-8" data-name="Group 47" transform="translate(1.057 7.36)">
                    <g id="Group_46" data-name="Group 46">
                        <path id="Rectangle_38" d="M0 0h66.576v17.359H0z" class="cls-31" data-name="Rectangle 38"/>
                    </g>
                </g>
                <g id="Group_50" data-name="Group 50">
                    <g id="Group_48" data-name="Group 48" transform="translate(0 6.177)">
                        <path id="Rectangle_39" d="M0 0h66.576v17.359H0z" class="cls-3" data-name="Rectangle 39"/>
                    </g>
                    <path id="Rectangle_40" d="M0 0h17.112v17.359H0z" class="cls-18" data-name="Rectangle 40" transform="translate(0 6.177)"/>
                    <path id="Path_143" d="M140.146 72.163a6.168 6.168 0 0 0-12.081-1.763 6 6 0 0 0 .567 4.808l-.048.019 4.773 9.046a.7.7 0 0 0 1.232 0l4.773-9.046-.048-.019a6.088 6.088 0 0 0 .832-3.045zm-6.173 2.381a2.38 2.38 0 1 1 2.381-2.381 2.38 2.38 0 0 1-2.381 2.38z" class="cls-21" data-name="Path 143" transform="translate(-76.576 -65.99)"/>
                    <g id="Group_49" data-name="Group 49" transform="translate(19.582 10.641)">
                        <path id="Rectangle_41" d="M0 0h28.398v.926H0z" class="cls-32" data-name="Rectangle 41"/>
                        <path id="Rectangle_42" d="M0 0h28.398v.926H0z" class="cls-32" data-name="Rectangle 42" transform="translate(0 3.754)"/>
                        <path id="Rectangle_43" d="M0 0h28.398v.926H0z" class="cls-32" data-name="Rectangle 43" transform="translate(0 7.506)"/>
                    </g>
                    <path id="Path_144" d="M93.444 77.549l2.284 2.342 4.517-4.981" class="cls-33" data-name="Path 144" transform="translate(-88.064 -63.007)"/>
                </g>
            </g>
            <g id="Group_52" data-name="Group 52" transform="translate(0 15.87)">
                <circle id="Ellipse_10" cx="18.109" cy="18.109" r="18.109" class="cls-3" data-name="Ellipse 10"/>
                <path id="Path_145" d="M56.805 72.4l7.351 7.961-1-11.526z" class="cls-3" data-name="Path 145" transform="translate(-35.4 -39.462)"/>
            </g>
            <g id="Group_53" data-name="Group 53" transform="translate(144.109 .886)">
                <circle id="Ellipse_11" cx="18.109" cy="18.109" r="18.109" class="cls-3" data-name="Ellipse 11"/>
                <path id="Path_146" d="M166.05 60.614l-3.8 10.147-3.423-11.051z" class="cls-3" data-name="Path 146" transform="translate(-145.396 -27.529)"/>
            </g>
            <path id="Path_147" d="M67.528 64.975a10.213 10.213 0 0 0 0-3.806h-2.615a8.058 8.058 0 0 0-.971-2.332l1.858-1.855a10.748 10.748 0 0 0-2.7-2.691l-1.85 1.855a8.073 8.073 0 0 0-2.332-.971v-2.616a10.214 10.214 0 0 0-3.806 0v2.615a8.073 8.073 0 0 0-2.332.971l-1.855-1.855a10.748 10.748 0 0 0-2.691 2.691l1.855 1.855a8.073 8.073 0 0 0-.971 2.332H46.5a10.214 10.214 0 0 0 0 3.806h2.615a8.073 8.073 0 0 0 .971 2.332l-1.855 1.855a10.748 10.748 0 0 0 2.691 2.691L52.779 70a8.072 8.072 0 0 0 2.332.971v2.615a10.213 10.213 0 0 0 3.806 0v-2.615A8.073 8.073 0 0 0 61.25 70l1.85 1.854a10.748 10.748 0 0 0 2.7-2.692l-1.855-1.855a8.073 8.073 0 0 0 .971-2.332zm-10.514.6a2.5 2.5 0 1 1 2.5-2.5 2.5 2.5 0 0 1-2.5 2.502z" class="cls-15" data-name="Path 147" transform="translate(-38.906 -29.094)"/>
            <g id="Group_54" data-name="Group 54" transform="translate(153.938 6.239)">
                <ellipse id="Ellipse_12" cx="2.858" cy="1.222" class="cls-28" data-name="Ellipse 12" rx="2.858" ry="1.222" transform="translate(5.421 23.068)"/>
                <path id="Path_148" d="M172.688 47.885a8.28 8.28 0 1 0-14.553 5.4 8.282 8.282 0 0 1 2.134 5.39v.176h8.281v-.179a8.16 8.16 0 0 1 2.1-5.351 8.246 8.246 0 0 0 2.038-5.436z" class="cls-21" data-name="Path 148" transform="translate(-156.127 -39.605)"/>
                <path id="Rectangle_44" d="M0 0h3.786v11.494H0z" class="cls-34" data-name="Rectangle 44" transform="translate(6.387 8.635)"/>
                <path id="Rectangle_45" d="M0 0h8.241v5.048H0z" class="cls-32" data-name="Rectangle 45" transform="translate(4.159 19.242)"/>
                <path id="Rectangle_46" d="M0 0h8.241v.434H0z" class="cls-26" data-name="Rectangle 46" transform="translate(4.159 20.13)"/>
                <path id="Rectangle_47" d="M0 0h8.241v.434H0z" class="cls-26" data-name="Rectangle 47" transform="translate(4.159 21.549)"/>
                <path id="Rectangle_48" d="M0 0h8.241v.434H0z" class="cls-26" data-name="Rectangle 48" transform="translate(4.159 22.969)"/>
            </g>
            <g id="Group_62" data-name="Group 62" transform="translate(50.043)">
                <g id="Group_55" class="cls-8" data-name="Group 55" transform="translate(1.297 1.234)">
                    <path id="Path_149" d="M121.044 71.375H81.806a2.568 2.568 0 0 1-2.567-2.569v-30.89a2.061 2.061 0 0 1 2.061-2.062h40.25a2.062 2.062 0 0 1 2.062 2.062v30.892a2.568 2.568 0 0 1-2.568 2.567z" class="cls-31" data-name="Path 149" transform="translate(-79.239 -35.854)"/>
                </g>
                <g id="Group_61" data-name="Group 61">
                    <path id="Path_150" d="M120.073 70.45H80.834a2.567 2.567 0 0 1-2.567-2.567V36.991a2.062 2.062 0 0 1 2.062-2.062h40.25a2.061 2.061 0 0 1 2.062 2.062v30.892a2.567 2.567 0 0 1-2.568 2.567z" class="cls-3" data-name="Path 150" transform="translate(-78.267 -34.929)"/>
                    <path id="Path_151" d="M122.64 44.394H78.267v-6.478a2.061 2.061 0 0 1 2.062-2.062h40.25a2.061 2.061 0 0 1 2.062 2.062z" class="cls-15" data-name="Path 151" transform="translate(-78.267 -34.62)"/>
                    <path id="Path_152" d="M122.64 43.469H78.267v-6.478a2.062 2.062 0 0 1 2.062-2.062h40.25a2.061 2.061 0 0 1 2.062 2.062z" class="cls-21" data-name="Path 152" transform="translate(-78.267 -34.929)"/>
                    <g id="Group_56" data-name="Group 56" transform="translate(3.152 12.32)">
                        <path id="Rectangle_49" d="M0 0h3.324v.463H0z" class="cls-15" data-name="Rectangle 49"/>
                        <path id="Rectangle_50" d="M0 0h3.324v.463H0z" class="cls-15" data-name="Rectangle 50" transform="translate(5.791)"/>
                        <path id="Rectangle_51" d="M0 0h3.324v.463H0z" class="cls-15" data-name="Rectangle 51" transform="translate(11.582)"/>
                        <path id="Rectangle_52" d="M0 0h3.324v.463H0z" class="cls-15" data-name="Rectangle 52" transform="translate(17.374)"/>
                        <path id="Rectangle_53" d="M0 0h3.324v.463H0z" class="cls-15" data-name="Rectangle 53" transform="translate(23.165)"/>
                        <path id="Rectangle_54" d="M0 0h3.324v.463H0z" class="cls-15" data-name="Rectangle 54" transform="translate(28.956)"/>
                        <path id="Rectangle_55" d="M0 0h3.324v.463H0z" class="cls-15" data-name="Rectangle 55" transform="translate(34.747)"/>
                    </g>
                    <g id="Group_57" data-name="Group 57" transform="translate(3.152 15.124)">
                        <path id="Rectangle_56" d="M0 0h3.324v1.62H0z" class="cls-35" data-name="Rectangle 56"/>
                        <path id="Rectangle_57" d="M0 0h3.324v1.62H0z" class="cls-35" data-name="Rectangle 57" transform="translate(5.791)"/>
                        <path id="Rectangle_58" d="M0 0h3.324v1.62H0z" class="cls-35" data-name="Rectangle 58" transform="translate(11.582)"/>
                        <path id="Rectangle_59" d="M0 0h3.324v1.62H0z" class="cls-15" data-name="Rectangle 59" transform="translate(17.374)"/>
                        <path id="Rectangle_60" d="M0 0h3.324v1.62H0z" class="cls-15" data-name="Rectangle 60" transform="translate(23.165)"/>
                        <path id="Rectangle_61" d="M0 0h3.324v1.62H0z" class="cls-15" data-name="Rectangle 61" transform="translate(28.956)"/>
                        <path id="Rectangle_62" d="M0 0h3.324v1.62H0z" class="cls-15" data-name="Rectangle 62" transform="translate(34.747)"/>
                    </g>
                    <g id="Group_58" data-name="Group 58" transform="translate(3.152 18.776)">
                        <path id="Rectangle_63" d="M0 0h3.324v1.62H0z" class="cls-36" data-name="Rectangle 63"/>
                        <path id="Rectangle_64" d="M0 0h3.324v1.62H0z" class="cls-15" data-name="Rectangle 64" transform="translate(5.791)"/>
                        <path id="Rectangle_65" d="M0 0h3.324v1.62H0z" class="cls-15" data-name="Rectangle 65" transform="translate(11.582)"/>
                        <path id="Rectangle_66" d="M0 0h3.324v1.62H0z" class="cls-15" data-name="Rectangle 66" transform="translate(17.374)"/>
                        <path id="Rectangle_67" d="M0 0h3.324v1.62H0z" class="cls-15" data-name="Rectangle 67" transform="translate(23.165)"/>
                        <path id="Rectangle_68" d="M0 0h3.324v1.62H0z" class="cls-15" data-name="Rectangle 68" transform="translate(28.956)"/>
                        <path id="Rectangle_69" d="M0 0h3.324v1.62H0z" class="cls-15" data-name="Rectangle 69" transform="translate(34.747)"/>
                    </g>
                    <g id="Group_59" data-name="Group 59" transform="translate(3.152 22.427)">
                        <path id="Rectangle_70" d="M0 0h3.324v1.62H0z" class="cls-36" data-name="Rectangle 70"/>
                        <path id="Rectangle_71" d="M0 0h3.324v1.62H0z" class="cls-15" data-name="Rectangle 71" transform="translate(5.791)"/>
                        <path id="Rectangle_72" d="M0 0h3.324v1.62H0z" class="cls-15" data-name="Rectangle 72" transform="translate(11.582)"/>
                        <path id="Rectangle_73" d="M0 0h3.324v1.62H0z" class="cls-15" data-name="Rectangle 73" transform="translate(17.374)"/>
                        <path id="Rectangle_74" d="M0 0h3.324v1.62H0z" class="cls-15" data-name="Rectangle 74" transform="translate(23.165)"/>
                        <path id="Rectangle_75" d="M0 0h3.324v1.62H0z" class="cls-15" data-name="Rectangle 75" transform="translate(28.956)"/>
                        <path id="Rectangle_76" d="M0 0h3.324v1.62H0z" class="cls-15" data-name="Rectangle 76" transform="translate(34.747)"/>
                    </g>
                    <g id="Group_60" data-name="Group 60" transform="translate(3.152 26.079)">
                        <path id="Rectangle_77" d="M0 0h3.324v1.62H0z" class="cls-36" data-name="Rectangle 77"/>
                        <path id="Rectangle_78" d="M0 0h3.324v1.62H0z" class="cls-15" data-name="Rectangle 78" transform="translate(5.791)"/>
                        <path id="Rectangle_79" d="M0 0h3.324v1.62H0z" class="cls-15" data-name="Rectangle 79" transform="translate(11.582)"/>
                        <path id="Rectangle_80" d="M0 0h3.324v1.62H0z" class="cls-15" data-name="Rectangle 80" transform="translate(17.374)"/>
                        <path id="Rectangle_81" d="M0 0h3.324v1.62H0z" class="cls-15" data-name="Rectangle 81" transform="translate(23.165)"/>
                        <path id="Rectangle_82" d="M0 0h3.324v1.62H0z" class="cls-35" data-name="Rectangle 82" transform="translate(28.956)"/>
                        <path id="Rectangle_83" d="M0 0h3.324v1.62H0z" class="cls-35" data-name="Rectangle 83" transform="translate(34.747)"/>
                    </g>
                    <path id="Rectangle_84" d="M0 0h21.35v3.962H0z" class="cls-15" data-name="Rectangle 84" transform="translate(11.512 2.571)"/>
                </g>
            </g>
        </g>
    </g>
</svg>
