<svg xmlns="http://www.w3.org/2000/svg" width="328" height="230.011" viewBox="0 0 328 230.011">
    <defs>
        <style>
            .cls-1,.cls-3{fill:#1b84e7}.cls-2,.cls-7{fill:#e3eaff}.cls-3{opacity:.7}.cls-4{fill:#004ba8;opacity:.56}.cls-5{fill:#c8d6f2}.cls-6{fill:#424261;opacity:.2}.cls-7{opacity:.21}.cls-8{fill:#f9fbfc}.cls-9{fill:#6db8ff}.cls-10{fill:#9570ee}.cls-11{fill:#bb87ee}.cls-12{fill:#7f57ee}.cls-13{fill:#ced6ff}.cls-14{fill:#f7d3a9}.cls-15{fill:#2d24a3}.cls-16{fill:#f25f46}.cls-17{fill:#4b7dff}.cls-18{fill:#cdd4ff}.cls-19{fill:#ffc240}.cls-20{fill:#90c240}.cls-21{fill:#eb4f24}.cls-22{fill:#0cf}.cls-23{fill:#ff56a9}.cls-24{fill:#ffc359}.cls-25{fill:#fff}.cls-26{fill:#f79a74}.cls-27{fill:#544db8}.cls-28{fill:#ff4f72}.cls-29{filter:url(#Path_161)}.cls-30{filter:url(#Path_160)}
        </style>
        <filter id="Path_160" width="275.646" height="177.214" x="40.008" y="23.146" filterUnits="userSpaceOnUse">
            <feOffset dy="-3"/>
            <feGaussianBlur result="blur" stdDeviation="3"/>
            <feFlood flood-opacity=".161"/>
            <feComposite in2="blur" operator="in"/>
            <feComposite in="SourceGraphic"/>
        </filter>
        <filter id="Path_161" width="275.646" height="178.616" x="50.314" y="22.325" filterUnits="userSpaceOnUse">
            <feOffset dy="-3"/>
            <feGaussianBlur result="blur-2" stdDeviation="3"/>
            <feFlood flood-opacity=".161"/>
            <feComposite in2="blur-2" operator="in"/>
            <feComposite in="SourceGraphic"/>
        </filter>
    </defs>
    <g id="walk_through_illustration_4" data-name="walk through illustration_4" transform="translate(.001)">
        <path id="Path_153" d="M64.237 120.438a34.909 34.909 0 0 0 1.576 57.444 130.694 130.694 0 0 1-12.888 18.2 164.02 164.02 0 0 1-7.022 7.783q-1.655-1.169-3.25-2.443l-8.117 5.964a9.332 9.332 0 0 1-13.044-1.994l-9.668-13.159a9.331 9.331 0 0 1 1.994-13.044l8.117-5.964a67.214 67.214 0 0 1-4.43-19.555L7.6 151.8a9.332 9.332 0 0 1-7.433-10.9L3.2 124.851a9.333 9.333 0 0 1 10.9-7.433l9.9 1.872a67.207 67.207 0 0 1 8.162-12.963L26.2 98.21a9.333 9.333 0 0 1 1.994-13.044L41.351 75.5a9.333 9.333 0 0 1 13.044 1.994l5.964 8.117a67.05 67.05 0 0 1 15.005-3.925 107 107 0 0 1 6.592 32.114 34.807 34.807 0 0 0-17.719 6.638z" class="cls-1" data-name="Path 153" transform="translate(0 5.291)"/>
        <g id="Group_65" data-name="Group 65" transform="translate(47.564 26.834)">
            <g id="Group_64" data-name="Group 64">
                <path id="Path_154" d="M235.679 225.851H36.595c-5.4 0-9.782-5.5-9.782-12.283V43.051c0-6.784 4.38-12.283 9.782-12.283h199.084c5.4 0 9.782 5.5 9.782 12.283v170.517c-.001 6.785-4.38 12.283-9.782 12.283z" class="cls-2" data-name="Path 154" transform="translate(-17.267 -30.768)"/>
                <path id="Path_155" d="M231.171 221.133H36.5c-4.224 0-7.646-4.334-7.646-9.683V41.9c0-5.346 3.423-9.683 7.646-9.683h194.671c4.223 0 7.646 4.334 7.646 9.683v169.55c.001 5.35-3.424 9.683-7.646 9.683z" class="cls-3" data-name="Path 155" transform="translate(-14.964 -29.132)"/>
                <path id="Path_156" d="M213.089 195.3H39.846c-2.471 0-4.475-2.585-4.475-5.771v-146.5c0-3.187 2-5.771 4.475-5.771h173.243c2.471 0 4.475 2.585 4.475 5.771v146.5c0 3.188-2.004 5.771-4.475 5.771z" class="cls-4" data-name="Path 156" transform="translate(-7.597 -23.435)"/>
                <path id="Path_157" d="M23.379 135.093a16.884 16.884 0 0 0-1.048 5.859c0 6.831 3.773 12.368 8.427 12.368h220.886c4.654 0 8.427-5.538 8.427-12.368a16.917 16.917 0 0 0-1.048-5.859z" class="cls-2" data-name="Path 157" transform="translate(-22.331 47.839)"/>
            </g>
            <path id="Path_158" d="M23.053 140.595c1.421 3.859 4.161 6.509 7.349 6.509h219.967c3.188 0 5.928-2.652 7.349-6.509z" class="cls-5" data-name="Path 158" transform="translate(-21.515 54.056)"/>
        </g>
        <path id="Path_159" d="M284 30.768H71.408v147.083a5.792 5.792 0 0 0 5.692 5.889h221.155V45.524A14.51 14.51 0 0 0 284 30.768z" class="cls-6" data-name="Path 159" transform="translate(-20.566 3.545)"/>
        <g class="cls-30">
            <path id="Path_160-2" d="M326.967 181.966H81.1a5.815 5.815 0 0 1-5.889-5.738V28.49a5.815 5.815 0 0 1 5.889-5.738h245.867a5.815 5.815 0 0 1 5.889 5.738v147.738a5.815 5.815 0 0 1-5.889 5.738z" class="cls-7" data-name="Path 160" transform="translate(-26.2 12.39)"/>
        </g>
        <g class="cls-29">
            <path id="Path_161-2" d="M331.806 178.184H85.938a5.839 5.839 0 0 1-5.889-5.788V23.356a5.839 5.839 0 0 1 5.889-5.788h245.868a5.839 5.839 0 0 1 5.889 5.788V172.4a5.839 5.839 0 0 1-5.889 5.784z" class="cls-8" data-name="Path 161" transform="translate(-20.73 16.76)"/>
        </g>
        <path id="Path_162" d="M73.528 88.479H47.4a3.681 3.681 0 0 1-3.68-3.68V57.192a3.681 3.681 0 0 1 3.68-3.68h26.128a3.681 3.681 0 0 1 3.68 3.68V84.8a3.681 3.681 0 0 1-3.68 3.679z" class="cls-6" data-name="Path 162" transform="translate(23.877 27.914)"/>
        <path id="Path_163" d="M72.622 112.325H46.488a3.681 3.681 0 0 1-3.68-3.68V81.04a3.681 3.681 0 0 1 3.68-3.68h26.134a3.681 3.681 0 0 1 3.68 3.68v27.606a3.68 3.68 0 0 1-3.68 3.679z" class="cls-9" data-name="Path 163" transform="translate(23.381 40.354)"/>
        <path id="Path_164" d="M72.622 135.655H46.488a3.681 3.681 0 0 1-3.68-3.68v-27.607a3.681 3.681 0 0 1 3.68-3.68h26.134a3.681 3.681 0 0 1 3.68 3.68v27.606a3.68 3.68 0 0 1-3.68 3.681z" class="cls-9" data-name="Path 164" transform="translate(23.381 52.522)"/>
        <g id="Group_66" data-name="Group 66" transform="translate(73.193 159.881)">
            <path id="Path_165" d="M62.578 111.313a7.962 7.962 0 1 0-15.923 0s-1.122 8.432 7.962 15.137c9.083-6.705 7.961-15.137 7.961-15.137z" class="cls-10" data-name="Path 165" transform="translate(-46.61 -103.351)"/>
            <path id="Path_166" d="M53.895 115.9a5.767 5.767 0 1 1 5.28-5.28 5.766 5.766 0 0 1-5.28 5.28z" class="cls-8" data-name="Path 166" transform="translate(-45.423 -102.186)"/>
        </g>
        <g id="Group_73" data-name="Group 73" transform="translate(70.494 124.212)">
            <g id="Group_68" data-name="Group 68">
                <g id="Group_67" data-name="Group 67">
                    <circle id="Ellipse_13" cx="11.014" cy="11.014" r="11.014" class="cls-10" data-name="Ellipse 13"/>
                    <circle id="Ellipse_14" cx="8.884" cy="8.884" r="8.884" class="cls-8" data-name="Ellipse 14" transform="translate(2.13 2.13)"/>
                    <path id="Path_167" d="M55.182 81.56a8.885 8.885 0 0 1 8.518 6.349.358.358 0 0 0 .341.258.354.354 0 0 0 .341-.454 9.592 9.592 0 0 0-18.394 0 .354.354 0 0 0 .341.454.356.356 0 0 0 .341-.258 8.885 8.885 0 0 1 8.512-6.349z" class="cls-11" data-name="Path 167" transform="translate(-44.168 -79.427)"/>
                    <path id="Path_168" d="M65.945 85.484a1.059 1.059 0 0 0-1.054.909 8.881 8.881 0 0 1-17.6 0 1.059 1.059 0 0 0-1.054-.909 1.064 1.064 0 0 0-1.059 1.2 11.011 11.011 0 0 0 21.823 0 1.06 1.06 0 0 0-1.054-1.2z" class="cls-12" data-name="Path 168" transform="translate(-45.076 -74.187)"/>
                    <circle id="Ellipse_15" cx="8.884" cy="8.884" r="8.884" class="cls-8" data-name="Ellipse 15" transform="translate(2.13 2.13)"/>
                    <path id="Path_169" d="M63.736 86.7a.356.356 0 0 0-.334.236 8.883 8.883 0 0 1-16.647 0 .361.361 0 0 0-.334-.236.356.356 0 0 0-.334.479 9.6 9.6 0 0 0 17.987 0 .358.358 0 0 0-.337-.479z" class="cls-10" data-name="Path 169" transform="translate(-44.064 -72.816)"/>
                </g>
                <path id="Path_170" d="M50.51 89.487a.426.426 0 0 1-.426-.426v-6.253a.426.426 0 0 1 .426-.426.426.426 0 0 1 .426.426v6.253a.426.426 0 0 1-.426.426z" class="cls-10" data-name="Path 170" transform="translate(-39.52 -77.692)"/>
                <path id="Path_171" d="M50.194 85.487a.428.428 0 0 1 .6-.051l3.857 3.259a.428.428 0 0 1 .051.6.428.428 0 0 1-.6.051l-3.857-3.259a.424.424 0 0 1-.051-.6z" class="cls-10" data-name="Path 171" transform="translate(-39.51 -74.354)"/>
            </g>
            <g id="Group_69" data-name="Group 69" transform="translate(10.765 2.735)">
                <path id="Rectangle_85" d="M0 0h.319v.852H0z" class="cls-13" data-name="Rectangle 85"/>
                <path id="Rectangle_86" d="M0 0h.319v.852H0z" class="cls-13" data-name="Rectangle 86" transform="translate(0 15.563)"/>
            </g>
            <g id="Group_70" data-name="Group 70" transform="translate(2.718 10.784)">
                <path id="Rectangle_87" d="M0 0h.852v.319H0z" class="cls-13" data-name="Rectangle 87"/>
                <path id="Rectangle_88" d="M0 0h.852v.319H0z" class="cls-13" data-name="Rectangle 88" transform="translate(15.563)"/>
            </g>
            <g id="Group_71" data-name="Group 71" transform="translate(5.006 5.026)">
                <path id="Rectangle_89" d="M0 0h.319v.852H0z" class="cls-13" data-name="Rectangle 89" transform="rotate(-45 .273 .113)"/>
                <path id="Rectangle_90" d="M0 0h.319v.852H0z" class="cls-13" data-name="Rectangle 90" transform="rotate(-45 19.059 -7.67)"/>
            </g>
            <g id="Group_72" data-name="Group 72" transform="translate(4.998 5.031)">
                <path id="Rectangle_91" d="M0 0h.319v.852H0z" class="cls-13" data-name="Rectangle 91" transform="rotate(-135 2.563 5.867)"/>
                <path id="Rectangle_92" d="M0 0h.319v.852H0z" class="cls-13" data-name="Rectangle 92" transform="rotate(-135 5.796 -1.916)"/>
            </g>
        </g>
        <g id="Group_80" data-name="Group 80" transform="translate(49.3 34.903)">
            <path id="Path_172" d="M72.622 87.959H46.488a3.681 3.681 0 0 1-3.68-3.68v-27.6a3.681 3.681 0 0 1 3.68-3.68h26.134a3.681 3.681 0 0 1 3.68 3.68V84.28a3.68 3.68 0 0 1-3.68 3.679z" class="cls-9" data-name="Path 172" transform="translate(-2.664 -52.994)"/>
            <g id="Group_79" data-name="Group 79" transform="translate(0 18.402)">
                <path id="Path_173" d="M43 74.607l2.76-1.932 1.244-4.554-1.38-.277L44.8 69.5l.829-7.868-1.382.277-1.382 7.591-1.655 3.591 1.519.965" class="cls-14" data-name="Path 173" transform="translate(-4.469 -61.634)"/>
                <path id="Path_174" d="M49.721 75.475l.366-3.312 4.049-4.049.92 1.289-1.471 1.657 7.729-1.84v1.655l-7.178 2.76-1.472 2.577z" class="cls-14" data-name="Path 174" transform="translate(5.147 -54.312)"/>
                <g id="Group_78" data-name="Group 78" transform="translate(0 10.189)">
                    <g id="Group_77" data-name="Group 77">
                        <path id="Path_175" d="M26.061 110.021l15.054 73.646 11.393-1.22-7.729-2.847 2.848-.814-4.068-68.764z" class="cls-15" data-name="Path 175" transform="translate(-21.586 -17.151)"/>
                        <path id="Path_176" d="M47.908 111.611s19.124 17.9 16.275 39.467c-3.255 17.088-10.172 23.6-10.172 23.6l-2.034-.407 3.154 8.341-9.154-9.766s11.291-15.563 4.273-31.738-22.277-21.972-22.277-21.972 13.122-11.9 14.038-11.6a64.044 64.044 0 0 1 5.897 4.075z" class="cls-15" data-name="Path 176" transform="translate(-19.427 -19.962)"/>
                        <g id="Group_76" data-name="Group 76">
                            <path id="Path_177" d="M60.579 66.418s-31.431 38.144-35.094 45.774c0 0-1.525 2.748-1.525 10.681s2.748 37.227 2.748 37.227l32.042 1.832s-10.375-35.7-10.681-36.619-5.493-6.409-10.375-7.629l26.853-48.518z" class="cls-16" data-name="Path 177" transform="translate(-23.96 -66.418)"/>
                            <g id="Group_75" data-name="Group 75" transform="translate(8.244 28.932)">
                                <path id="Path_178" d="M35.4 90.175s1.335 3.962 2.072 6.356c0 0-6.541-.138-8.843-3.178L31.07 87.5z" class="cls-14" data-name="Path 178" transform="translate(-26.929 -71.524)"/>
                                <g id="Group_74" data-name="Group 74">
                                    <path id="Path_179" d="M41.277 86.273s1.934 11.265 0 13.825-8.566-1.791-11.331-5.889-3.316-13.314 1.383-14.081a8.686 8.686 0 0 1 9.948 6.145z" class="cls-14" data-name="Path 179" transform="translate(-27.831 -80.002)"/>
                                </g>
                            </g>
                            <path id="Path_180" d="M33.424 117.425s25.2-15.853 27.233-19.1 7.723-27.438 7.723-27.438l4.877 1.22s-2.845 27.029-3.657 29.874-25.606 29.265-31.3 29.265-7.721-7.318-4.876-13.821z" class="cls-16" data-name="Path 180" transform="translate(-14.709 -61.368)"/>
                        </g>
                    </g>
                    <path id="Path_181" d="M29.129 82.249a9.55 9.55 0 0 1 9.2-3.5c5.889 1.1 7.361-.183 7.361-.183s-1.29 6.444-5.336 7.916-5.152 1.1-5.152 1.1a13.74 13.74 0 0 1 2.76 3.864c.552 1.657-1.84-2.026-2.76-.737s0 4.049 1.84 3.866.737 1.289 0 2.76S35.2 100.65 34.1 100.1a13.006 13.006 0 0 1-6.441-7.361c-1.475-4.6-1.842-9.016 1.47-10.49z" class="cls-15" data-name="Path 181" transform="translate(-21.006 -52.689)"/>
                </g>
            </g>
        </g>
        <path id="Path_182" d="M162.013 155.9H90.239a2.76 2.76 0 0 1-2.76-2.76V28.363a2.76 2.76 0 0 1 2.76-2.76h71.774a2.76 2.76 0 0 1 2.76 2.76v124.774a2.762 2.762 0 0 1-2.76 2.763z" class="cls-2" data-name="Path 182" transform="translate(41.599 8.951)"/>
        <path id="Path_183" d="M141.55 41.572H95.909a2.208 2.208 0 0 1-2.209-2.209v-6.626a2.208 2.208 0 0 1 2.209-2.209h45.64a2.208 2.208 0 0 1 2.209 2.209v6.626a2.209 2.209 0 0 1-2.208 2.209z" class="cls-9" data-name="Path 183" transform="translate(48.849 17.421)"/>
        <path id="Path_184" d="M109.082 69.018h-9.94a4.232 4.232 0 0 1-4.232-4.232 4.232 4.232 0 0 1 4.232-4.232h9.94a4.232 4.232 0 0 1 4.232 4.232 4.233 4.233 0 0 1-4.232 4.232z" class="cls-9" data-name="Path 184" transform="translate(53.825 34.846)"/>
        <path id="Path_185" d="M122.561 69.018h-9.94a4.232 4.232 0 0 1-4.232-4.232 4.232 4.232 0 0 1 4.232-4.232h9.94a4.232 4.232 0 0 1 4.232 4.232 4.233 4.233 0 0 1-4.232 4.232z" class="cls-17" data-name="Path 185" transform="translate(61.469 34.846)"/>
        <path id="Rectangle_93" d="M0 0h53.737v8.466H0z" class="cls-8" data-name="Rectangle 93" transform="translate(141.22 64.431)"/>
        <path id="Rectangle_94" d="M0 0h53.737v8.466H0z" class="cls-8" data-name="Rectangle 94" transform="translate(141.22 75.048)"/>
        <path id="Rectangle_95" d="M0 0h30.918v1.932H0z" class="cls-18" data-name="Rectangle 95" transform="translate(152.857 85.899)"/>
        <path id="Path_186" d="M255.518 86.882H158.9a10.766 10.766 0 0 1-10.767-10.767A10.766 10.766 0 0 1 158.9 65.349h96.617a10.766 10.766 0 0 1 10.767 10.767 10.766 10.766 0 0 1-10.766 10.766z" class="cls-1" data-name="Path 186" transform="translate(56.195 35.952)"/>
        <g id="Group_81" data-name="Group 81" transform="translate(187.089 37.867)">
            <path id="Path_187" d="M195.891 41.975h-60.178a8.832 8.832 0 0 1-8.833-8.833 8.834 8.834 0 0 1 8.833-8.835h60.178a8.833 8.833 0 0 1 8.833 8.835 8.831 8.831 0 0 1-8.833 8.833z" class="cls-2" data-name="Path 187" transform="translate(-126.88 -24.307)"/>
            <circle id="Ellipse_16" cx="2.76" cy="2.76" r="2.76" class="cls-19" data-name="Ellipse 16" transform="translate(17.668 6.074)"/>
            <circle id="Ellipse_17" cx="2.76" cy="2.76" r="2.76" class="cls-20" data-name="Ellipse 17" transform="translate(36.622 6.074)"/>
            <circle id="Ellipse_18" cx="2.76" cy="2.76" r="2.76" class="cls-21" data-name="Ellipse 18" transform="translate(54.106 6.074)"/>
        </g>
        <g id="Group_82" data-name="Group 82" transform="translate(207.348 62.163)">
            <path id="Path_188" d="M192.495 80h-50.517a4.357 4.357 0 0 1-4.356-4.356V45.449a4.355 4.355 0 0 1 4.356-4.356h50.517a4.355 4.355 0 0 1 4.356 4.356v30.193A4.355 4.355 0 0 1 192.495 80z" class="cls-2" data-name="Path 188" transform="translate(-137.622 -41.093)"/>
        </g>
        <path id="Path_189" d="M241.287 107.862h-65.7a3.863 3.863 0 0 1-3.863-3.862V16.766a3.863 3.863 0 0 1 3.864-3.864h65.7a3.863 3.863 0 0 1 3.864 3.864V104a3.86 3.86 0 0 1-3.865 3.862z" class="cls-1" data-name="Path 189" transform="translate(82.848 14.578)"/>
        <g id="Group_83" data-name="Group 83" transform="translate(265.614 34.508)">
            <path id="Path_190" d="M182.271 19.881h-4.892c-.26 0-.471-.424-.471-.946s.211-.946.471-.946h4.892c.26 0 .471.424.471.946 0 .523-.211.946-.471.946z" class="cls-22" data-name="Path 190" transform="translate(-176.908 -17.99)"/>
            <path id="Path_191" d="M208.743 19.881h-27.985c-.26 0-.471-.424-.471-.946s.211-.946.471-.946h27.985c.26 0 .471.424.471.946-.001.523-.214.946-.471.946z" class="cls-22" data-name="Path 191" transform="translate(-173.09 -17.99)"/>
            <path id="Path_192" d="M189.684 21.717h-8.926c-.26 0-.471-.424-.471-.946s.211-.946.471-.946h8.926c.26 0 .471.424.471.946s-.211.946-.471.946z" class="cls-23" data-name="Path 192" transform="translate(-173.09 -15.915)"/>
            <path id="Path_193" d="M198.666 21.717H185.8c-.26 0-.471-.424-.471-.946s.211-.946.471-.946h12.865c.26 0 .471.424.471.946.003.522-.208.946-.47.946z" class="cls-2" data-name="Path 193" transform="translate(-167.391 -15.915)"/>
            <path id="Path_194" d="M208.743 30.655h-27.985c-.26 0-.471-.424-.471-.946s.211-.946.471-.946h27.985c.26 0 .471.424.471.946-.001.522-.214.946-.471.946z" class="cls-2" data-name="Path 194" transform="translate(-173.09 -5.816)"/>
            <path id="Path_195" d="M182.271 32.491h-4.892c-.26 0-.471-.424-.471-.946s.211-.946.471-.946h4.892c.26 0 .471.424.471.946 0 .523-.211.946-.471.946z" class="cls-22" data-name="Path 195" transform="translate(-176.908 -3.742)"/>
            <path id="Path_196" d="M189.684 32.491h-8.926c-.26 0-.471-.424-.471-.946s.211-.946.471-.946h8.926c.26 0 .471.424.471.946 0 .523-.211.946-.471.946z" class="cls-2" data-name="Path 196" transform="translate(-173.09 -3.742)"/>
            <path id="Path_197" d="M198.666 32.491H185.8c-.26 0-.471-.424-.471-.946s.211-.946.471-.946h12.865c.26 0 .471.424.471.946.003.523-.208.946-.47.946z" class="cls-23" data-name="Path 197" transform="translate(-167.391 -3.742)"/>
            <path id="Path_198" d="M215.683 23.553h-34.926c-.26 0-.471-.424-.471-.946s.211-.946.471-.946h34.926c.26 0 .471.424.471.946 0 .523-.211.946-.471.946z" class="cls-23" data-name="Path 198" transform="translate(-173.091 -13.841)"/>
            <path id="Path_199" d="M198.047 25.388h-8.132a.5.5 0 0 1-.5-.5V24a.5.5 0 0 1 .5-.5h8.132a.5.5 0 0 1 .5.5v.895a.5.5 0 0 1-.5.493z" class="cls-22" data-name="Path 199" transform="translate(-162.774 -11.768)"/>
            <path id="Path_200" d="M192.358 25.388h-11.6c-.26 0-.471-.424-.471-.946s.211-.946.471-.946h11.6c.26 0 .471.424.471.946 0 .525-.211.946-.471.946z" class="cls-2" data-name="Path 200" transform="translate(-173.091 -11.768)"/>
            <path id="Path_201" d="M191.543 25.388h-4.6c-.26 0-.471-.424-.471-.946s.211-.946.471-.946h4.6c.26 0 .471.424.471.946 0 .525-.214.946-.471.946z" class="cls-22" data-name="Path 201" transform="translate(-166.102 -11.768)"/>
            <path id="Path_202" d="M182.271 27.163h-4.892c-.26 0-.471-.424-.471-.946s.211-.946.471-.946h4.892c.26 0 .471.424.471.946 0 .523-.211.946-.471.946z" class="cls-2" data-name="Path 202" transform="translate(-176.908 -9.762)"/>
            <path id="Path_203" d="M215.683 27.163h-34.926c-.26 0-.471-.424-.471-.946s.211-.946.471-.946h34.926c.26 0 .471.424.471.946 0 .523-.211.946-.471.946z" class="cls-2" data-name="Path 203" transform="translate(-173.091 -9.762)"/>
            <path id="Path_204" d="M182.271 34.191h-4.892c-.26 0-.471-.424-.471-.946s.211-.946.471-.946h4.892c.26 0 .471.424.471.946s-.211.946-.471.946z" class="cls-2" data-name="Path 204" transform="translate(-176.908 -1.821)"/>
            <path id="Path_205" d="M201.459 34.191H190a.585.585 0 0 1-.586-.586v-.72A.585.585 0 0 1 190 32.3h11.457a.585.585 0 0 1 .586.586v.72a.585.585 0 0 1-.584.585z" class="cls-2" data-name="Path 205" transform="translate(-162.774 -1.821)"/>
            <path id="Path_206" d="M192.358 34.191h-11.6c-.26 0-.471-.424-.471-.946s.211-.946.471-.946h11.6c.26 0 .471.424.471.946s-.211.946-.471.946z" class="cls-2" data-name="Path 206" transform="translate(-173.091 -1.821)"/>
            <path id="Path_207" d="M191.543 34.191h-4.6c-.26 0-.471-.424-.471-.946s.211-.946.471-.946h4.6c.26 0 .471.424.471.946s-.214.946-.471.946z" class="cls-2" data-name="Path 207" transform="translate(-166.102 -1.821)"/>
            <path id="Path_208" d="M182.271 35.966h-4.892c-.26 0-.471-.424-.471-.946s.211-.946.471-.946h4.892c.26 0 .471.424.471.946s-.211.946-.471.946z" class="cls-24" data-name="Path 208" transform="translate(-176.908 .185)"/>
            <path id="Path_209" d="M186.8 35.966h-6.047c-.26 0-.471-.424-.471-.946s.211-.946.471-.946h6.047c.26 0 .471.424.471.946.005.522-.206.946-.471.946z" class="cls-22" data-name="Path 209" transform="translate(-173.091 .185)"/>
            <path id="Path_210" d="M177.379 29c-.26 0-.471-.424-.471-.946s.211-.946.471-.946h4.892c.26 0 .471.424.471.946s-.211.946-.471.946" class="cls-22" data-name="Path 210" transform="translate(-176.908 -7.688)"/>
            <path id="Path_211" d="M203.063 29h-13.024a.623.623 0 0 1-.622-.622v-.648a.623.623 0 0 1 .622-.622h13.024a.623.623 0 0 1 .622.622v.645a.623.623 0 0 1-.622.625z" class="cls-2" data-name="Path 211" transform="translate(-162.774 -7.688)"/>
            <path id="Path_212" d="M192.358 29h-11.6c-.26 0-.471-.424-.471-.946s.211-.946.471-.946h11.6c.26 0 .471.424.471.946s-.211.946-.471.946z" class="cls-24" data-name="Path 212" transform="translate(-173.091 -7.688)"/>
            <path id="Path_213" d="M191.543 29h-4.6c-.26 0-.471-.424-.471-.946s.211-.946.471-.946h4.6c.26 0 .471.424.471.946s-.214.946-.471.946z" class="cls-24" data-name="Path 213" transform="translate(-166.102 -7.688)"/>
            <path id="Path_214" d="M208.743 37.853h-27.985c-.26 0-.471-.424-.471-.946s.211-.946.471-.946h27.985c.26 0 .471.424.471.946-.001.523-.214.946-.471.946z" class="cls-2" data-name="Path 214" transform="translate(-173.09 2.317)"/>
            <path id="Path_215" d="M189.684 39.689h-8.926c-.26 0-.471-.424-.471-.946s.211-.946.471-.946h8.926c.26 0 .471.424.471.946 0 .523-.211.946-.471.946z" class="cls-2" data-name="Path 215" transform="translate(-173.09 4.391)"/>
            <path id="Path_216" d="M198.666 39.689H185.8c-.26 0-.471-.424-.471-.946s.211-.946.471-.946h12.865c.26 0 .471.424.471.946.003.523-.208.946-.47.946z" class="cls-2" data-name="Path 216" transform="translate(-167.391 4.391)"/>
            <path id="Path_217" d="M208.743 48.627h-27.985c-.26 0-.471-.424-.471-.946s.211-.946.471-.946h27.985c.26 0 .471.424.471.946-.001.519-.214.946-.471.946z" class="cls-2" data-name="Path 217" transform="translate(-173.09 14.49)"/>
            <path id="Path_218" d="M182.271 50.463h-4.892c-.26 0-.471-.424-.471-.946s.211-.946.471-.946h4.892c.26 0 .471.424.471.946 0 .523-.211.946-.471.946z" class="cls-23" data-name="Path 218" transform="translate(-176.908 16.565)"/>
            <path id="Path_219" d="M189.684 50.463h-8.926c-.26 0-.471-.424-.471-.946s.211-.946.471-.946h8.926c.26 0 .471.424.471.946 0 .523-.211.946-.471.946z" class="cls-22" data-name="Path 219" transform="translate(-173.09 16.565)"/>
            <path id="Path_220" d="M198.666 50.463H185.8c-.26 0-.471-.424-.471-.946s.211-.946.471-.946h12.865c.26 0 .471.424.471.946.003.523-.208.946-.47.946z" class="cls-2" data-name="Path 220" transform="translate(-167.391 16.565)"/>
            <path id="Path_221" d="M182.271 41.525h-4.892c-.26 0-.471-.424-.471-.946s.211-.946.471-.946h4.892c.26 0 .471.424.471.946 0 .521-.211.946-.471.946z" class="cls-23" data-name="Path 221" transform="translate(-176.908 6.466)"/>
            <path id="Path_222" d="M205.74 41.525h-24.885a.57.57 0 0 1-.569-.569V40.2a.569.569 0 0 1 .569-.569h24.885a.569.569 0 0 1 .569.569v.754a.569.569 0 0 1-.569.571z" class="cls-23" data-name="Path 222" transform="translate(-173.091 6.466)"/>
            <path id="Path_223" d="M182.271 43.361h-4.892c-.26 0-.471-.424-.471-.946s.211-.946.471-.946h4.892c.26 0 .471.424.471.946 0 .523-.211.946-.471.946z" class="cls-2" data-name="Path 223" transform="translate(-176.908 8.54)"/>
            <path id="Path_224" d="M192.358 43.361h-11.6c-.26 0-.471-.424-.471-.946s.211-.946.471-.946h11.6c.26 0 .471.424.471.946 0 .523-.211.946-.471.946z" class="cls-2" data-name="Path 224" transform="translate(-173.091 8.54)"/>
            <path id="Path_225" d="M191.543 43.361h-4.6c-.26 0-.471-.424-.471-.946s.211-.946.471-.946h4.6c.26 0 .471.424.471.946 0 .523-.214.946-.471.946z" class="cls-2" data-name="Path 225" transform="translate(-166.102 8.54)"/>
            <path id="Path_226" d="M182.271 45.135h-4.892c-.26 0-.471-.424-.471-.946s.211-.946.471-.946h4.892c.26 0 .471.424.471.946s-.211.946-.471.946z" class="cls-2" data-name="Path 226" transform="translate(-176.908 10.545)"/>
            <path id="Path_227" d="M212.418 45.135h-31.493a.639.639 0 0 1-.639-.637v-.616a.639.639 0 0 1 .639-.639h31.493a.639.639 0 0 1 .639.639v.618a.64.64 0 0 1-.639.635z" class="cls-2" data-name="Path 227" transform="translate(-173.091 10.545)"/>
            <path id="Path_228" d="M182.271 52.163h-4.892c-.26 0-.471-.424-.471-.946s.211-.946.471-.946h4.892c.26 0 .471.424.471.946s-.211.946-.471.946z" class="cls-2" data-name="Path 228" transform="translate(-176.908 18.486)"/>
            <path id="Path_229" d="M205.329 52.163h-15.441c-.26 0-.471-.424-.471-.946s.211-.946.471-.946h15.442c.26 0 .471.424.471.946-.001.522-.212.946-.472.946z" class="cls-2" data-name="Path 229" transform="translate(-162.774 18.486)"/>
            <path id="Path_230" d="M192.358 52.163h-11.6c-.26 0-.471-.424-.471-.946s.211-.946.471-.946h11.6c.26 0 .471.424.471.946s-.211.946-.471.946z" class="cls-2" data-name="Path 230" transform="translate(-173.091 18.486)"/>
            <path id="Path_231" d="M191.543 52.163h-4.6c-.26 0-.471-.424-.471-.946s.211-.946.471-.946h4.6c.26 0 .471.424.471.946s-.214.946-.471.946z" class="cls-2" data-name="Path 231" transform="translate(-166.102 18.486)"/>
            <path id="Path_232" d="M201.415 53.938H180.8a.517.517 0 0 1-.518-.518v-.856a.518.518 0 0 1 .518-.518h20.611a.517.517 0 0 1 .518.518v.854a.516.516 0 0 1-.514.52z" class="cls-24" data-name="Path 232" transform="translate(-173.091 20.491)"/>
            <path id="Path_233" d="M203.884 46.971h-13.827a.642.642 0 0 1-.641-.641v-.609a.642.642 0 0 1 .641-.641h13.827a.642.642 0 0 1 .641.641v.609a.642.642 0 0 1-.641.641z" class="cls-23" data-name="Path 233" transform="translate(-162.775 12.619)"/>
            <path id="Path_234" d="M192.358 46.971h-11.6c-.26 0-.471-.424-.471-.946s.211-.946.471-.946h11.6c.26 0 .471.424.471.946 0 .523-.211.946-.471.946z" class="cls-24" data-name="Path 234" transform="translate(-173.091 12.619)"/>
            <path id="Path_235" d="M191.543 46.971h-4.6c-.26 0-.471-.424-.471-.946s.211-.946.471-.946h4.6c.26 0 .471.424.471.946 0 .523-.214.946-.471.946z" class="cls-24" data-name="Path 235" transform="translate(-166.102 12.619)"/>
        </g>
        <g id="Group_84" data-name="Group 84" transform="translate(79.815)">
            <path id="Path_236" d="M179.862 0h-105.2a15.471 15.471 0 1 0 0 30.941H82.4l7.478 7.478 7.478-7.478h82.51a15.471 15.471 0 0 0 0-30.941z" class="cls-1" data-name="Path 236" transform="translate(-59.19)"/>
            <path id="Path_237" d="M139.355 11.415H70.131A1.731 1.731 0 0 1 68.4 9.686a1.732 1.732 0 0 1 1.732-1.732h69.224a1.732 1.732 0 0 1 1.732 1.732 1.731 1.731 0 0 1-1.733 1.729z" class="cls-25" data-name="Path 237" transform="translate(-48.785 8.987)"/>
            <path id="Path_238" d="M117.723 6.947H70.131A1.732 1.732 0 0 1 68.4 5.216a1.732 1.732 0 0 1 1.732-1.732h47.591a1.73 1.73 0 0 1 1.729 1.732 1.728 1.728 0 0 1-1.729 1.731z" class="cls-25" data-name="Path 238" transform="translate(-48.785 3.937)"/>
        </g>
        <g id="Group_88" data-name="Group 88" transform="translate(249.997 79.363)">
            <path id="Path_239" d="M184.415 93.405s-1.289 3.819-2 6.13c0 0 6.307-.134 8.528-3.065l-2.354-5.64z" class="cls-14" data-name="Path 239" transform="translate(-155.067 -54.703)"/>
            <g id="Group_85" data-name="Group 85" transform="translate(23.152 143.683)">
                <path id="Path_240" d="M182.91 141.671l.539 2.4 3.482.2-.735-2.944z" class="cls-26" data-name="Path 240" transform="translate(-177.662 -141.328)"/>
                <path id="Path_241" d="M186.233 142.617s-5.836 3.041-5.787 3.237 9.857-.835 9.857-.835l-.588-2.207z" class="cls-27" data-name="Path 241" transform="translate(-180.446 -139.872)"/>
            </g>
            <g id="Group_86" data-name="Group 86" transform="translate(54.962 137.683)">
                <path id="Path_242" d="M196.728 140.013l1.367 2.049 3.321-1.071-1.747-2.479z" class="cls-26" data-name="Path 242" transform="translate(-193.859 -138.511)"/>
                <path id="Path_243" d="M199.617 140.745s-4.351 4.937-4.234 5.1 8.9-4.326 8.9-4.326l-1.344-1.847z" class="cls-27" data-name="Path 243" transform="translate(-195.381 -137.195)"/>
            </g>
            <path id="Path_244" d="M181.52 111.825s-10.006 32.664 5.885 64.153h4.709s-9.416-35.608 2.354-64.447z" class="cls-15" data-name="Path 244" transform="translate(-159.593 -31.313)"/>
            <path id="Path_245" d="M183.949 114.665s1.551 34.127 27.1 58.447l4.434-1.583s-20.833-30.375-19.435-61.49z" class="cls-15" data-name="Path 245" transform="translate(-153.336 -32.999)"/>
            <g id="Group_87" data-name="Group 87">
                <path id="Path_246" d="M184.565 78.637l.011-2.013a.982.982 0 0 0-.034-.262l-.383-1.44-1.148.294-1.171-1.082a.993.993 0 0 0-1.574.3 11.152 11.152 0 0 0-.9 2.507.981.981 0 0 0 .253.824l1.789 1.96a1 1 0 0 0 1.018.283l1.427-.422a1 1 0 0 0 .712-.949z" class="cls-26" data-name="Path 246" transform="translate(-158.533 -73.868)"/>
                <path id="Path_247" d="M201.232 120.15s-13.05-13.985-13.908-19.22-2.767-24.707-2.767-24.707l-4.023.777s-1.38 27.853-.16 31.06 9.067 19.553 14.179 21.063 8.699-3.531 6.679-8.973z" class="cls-16" data-name="Path 247" transform="translate(-157.944 -71.207)"/>
                <path id="Path_248" d="M182.291 88.774s-2.946 9.793-1.08 12.262 8.728.232 11.393-3.719 3.2-12.839-1.333-13.58-7.913 1.086-8.98 5.037z" class="cls-26" data-name="Path 248" transform="translate(-157.128 -62.9)"/>
                <path id="Path_249" d="M202.421 134.959s2.647-28.251 2.647-35.9c0-.349-.006-.677-.013-1.007-1.97-4.973-6.858-4.877-8.816-4.486s-9.612 2.846-9.563 3.139l-.019-.026a18.943 18.943 0 0 0-4.835 4.735 45.611 45.611 0 0 0-.884 32.37z" class="cls-16" data-name="Path 249" transform="translate(-159.601 -51.8)"/>
                <path id="Path_250" d="M174.995 78.967l-.343-1.985a1.016 1.016 0 0 0-.079-.251l-.63-1.35-1.08.49-1.342-.858a.994.994 0 0 0-1.5.573 11 11 0 0 0-.447 2.626.979.979 0 0 0 .394.767l2.1 1.614a1 1 0 0 0 1.052.1l1.331-.667a.99.99 0 0 0 .544-1.059z" class="cls-26" data-name="Path 250" transform="translate(-169.576 -72.755)"/>
                <path id="Path_251" d="M198.57 117.167s-15.3-11.476-17.069-16.479-7.063-23.836-7.063-23.836l-3.825 1.472s3.531 27.661 5.3 30.6 12.36 17.657 17.657 18.245 7.944-4.999 5-10.002z" class="cls-16" data-name="Path 251" transform="translate(-168.404 -70.497)"/>
                <path id="Path_252" d="M193.971 84.051s-7.847-3.335-11.576 3.531c-1.962 4.315 4.315.2 5.493 1.57s-1.57 4.119-.784 5.1 2.158-1.766 2.944-.2-1.178 1.766-2.55 3.531 1.178 4.315-.784 5.885-7.455 2.748-4.119 11.182-5.493 10.594-1.766 22.168 29.035 18.049 33.744 4.315-10.986-17.067-10-23.15 4.511-7.651-.2-13.734-7.651-9.612-6.279-13.538-2.357-6.66-4.123-6.66z" class="cls-15" data-name="Path 252" transform="translate(-157.918 -63.278)"/>
            </g>
        </g>
        <path id="Path_253" d="M79.422 148.322l-.988-1.977 26.743-13.369 33.736.552 36.632-13.8h27.978l29.874-9.955.243.026 23.957 2.724L271.1 105.5l1.016 1.957-14.1 7.333-.337-.038-24.049-2.733-29.93 9.917h-27.951L139.3 135.745h-.211l-33.408-.55z" class="cls-8" data-name="Path 253" transform="translate(6.637 47.147)"/>
        <g id="Group_95" data-name="Group 95" transform="translate(172.217 34.097)">
            <path id="Path_254" d="M124.979 104.116s26.5 42.924 23.188 72.783l18.036.373-7.729-4.479 2.209-.373s-6.626-46.283-12.882-62.707c-6.554-17.2-8.466-10.824-8.466-10.824z" class="cls-16" data-name="Path 254" transform="translate(-105.84 -1.637)"/>
            <path id="Path_255" d="M125.563 100.26s1.472 29.814-.737 41.224-8.833 33.861-8.833 33.861l16.931.368-4.447-3.14-2.822-1.646s12.055-32.389 13.159-47.848a202.217 202.217 0 0 1 2.946-24.292z" class="cls-16" data-name="Path 255" transform="translate(-115.993 -.445)"/>
            <g id="Group_94" data-name="Group 94" transform="translate(5.678)">
                <path id="Path_256" d="M137.7 64.93l2.765-1.93 1.242-4.556-1.38-.275-.829 1.655.829-7.866-1.38.275-1.38 7.591-1.657 3.589 1.519.967" class="cls-14" data-name="Path 256" transform="translate(-99.168 -51.957)"/>
                <path id="Path_257" d="M144.42 65.8l.368-3.312 4.049-4.049.92 1.289-1.474 1.655 7.729-1.84V61.2l-7.176 2.76-1.474 2.577z" class="cls-14" data-name="Path 257" transform="translate(-89.552 -44.635)"/>
                <g id="Group_93" data-name="Group 93" transform="translate(0 10.189)">
                    <g id="Group_92" data-name="Group 92">
                        <g id="Group_91" data-name="Group 91">
                            <path id="Path_258" d="M155.278 56.741s-31.431 38.144-35.094 45.774c0 0-1.525 2.745-1.525 10.681s2.745 37.231 2.745 37.231l32.042 1.832s-10.375-35.7-10.681-36.619-5.493-6.409-10.375-7.629l26.854-48.521z" class="cls-15" data-name="Path 258" transform="translate(-118.659 -56.741)"/>
                            <g id="Group_90" data-name="Group 90" transform="translate(8.246 28.93)">
                                <path id="Path_259" d="M130.1 80.5s1.335 3.962 2.072 6.356c0 0-6.541-.138-8.843-3.178l2.441-5.849z" class="cls-14" data-name="Path 259" transform="translate(-121.629 -61.846)"/>
                                <g id="Group_89" data-name="Group 89">
                                    <path id="Path_260" d="M135.976 76.595s1.934 11.265 0 13.825-8.566-1.791-11.329-5.889-3.316-13.314 1.382-14.081a8.687 8.687 0 0 1 9.947 6.145z" class="cls-14" data-name="Path 260" transform="translate(-122.53 -70.324)"/>
                                </g>
                            </g>
                            <path id="Path_261" d="M128.123 107.747s25.2-15.851 27.233-19.1 7.723-27.435 7.723-27.435l4.877 1.218s-2.845 27.026-3.656 29.87-25.608 29.265-31.3 29.265-7.721-7.313-4.877-13.818z" class="cls-15" data-name="Path 261" transform="translate(-109.407 -51.693)"/>
                        </g>
                    </g>
                </g>
            </g>
            <path id="Path_262" d="M135.162 76.492s1.289-4.417-1.472-6.626-7.546-1.84-8.281-1.1c0 1.289 2.944 2.023 2.209 2.76s-4.6 0-5.521 3.864.368 4.6.368 4.6-2.023 2.392.368 5.706 7.8 6.043 9.144 5.691.609-5.506.609-5.506-3.129-.368-3.312-2.392 1.472-2.209 2.209-1.472.92 2.392 1.472 2.023-.183-4.232-.183-4.232 2.022-1.659 2.39-3.316z" class="cls-16" data-name="Path 262" transform="translate(-109.582 -33.928)"/>
        </g>
        <circle id="Ellipse_19" cx="3.497" cy="3.497" r="3.497" class="cls-19" data-name="Ellipse 19" transform="translate(141.397 179.018)"/>
        <circle id="Ellipse_20" cx="3.497" cy="3.497" r="3.497" class="cls-28" data-name="Ellipse 20" transform="translate(236.806 168.04)"/>
    </g>
</svg>
