<svg xmlns="http://www.w3.org/2000/svg" width="344" height="342.103" viewBox="0 0 344 342.103">
    <defs>
        <style>
            .cls-1,.cls-10{fill:url(#linear-gradient)}.cls-12,.cls-2,.cls-3{fill:#fff}.cls-2{opacity:.34}.cls-3{opacity:.13}.cls-27,.cls-4{fill:#d8d8d8}.cls-4{opacity:.32}.cls-15,.cls-5{fill:#f25f46}.cls-6{fill:#2d24a3}.cls-7{fill:#ed9169}.cls-8{fill:#ffaf84}.cls-9{clip-path:url(#clip-path)}.cls-10,.cls-30{opacity:.3}.cls-11{opacity:.8}.cls-13,.cls-23{fill:none;stroke-miterlimit:10}.cls-13{stroke:#bbceff;stroke-width:.925px}.cls-14{fill:#f6f3ff}.cls-15{opacity:.51}.cls-16{fill:#1c24bb}.cls-17{fill:#aaa4f7}.cls-18{opacity:.6}.cls-19,.cls-25{fill:#7bcaff}.cls-20,.cls-24{fill:#ff3369}.cls-20,.cls-25,.cls-31{opacity:.5}.cls-21{fill:#f2bbd2}.cls-22{fill:#edf4fc}.cls-23{stroke:#ffc550;stroke-width:1.01px}.cls-26{fill:#ffc550}.cls-27{opacity:.28}.cls-28{fill:#4b7dff}.cls-29{clip-path:url(#clip-path-2)}.cls-32{fill:#f49917}.cls-33{fill:#dc3545}
        </style>
        <linearGradient id="linear-gradient" x1=".867" x2="2.634" y1=".738" y2="1.201" gradientUnits="objectBoundingBox">
            <stop offset="0"/>
            <stop offset="1" stop-color="#9e005d"/>
        </linearGradient>
        <clipPath id="clip-path">
            <path id="Path_285" d="M119.924 61.7c-1.209-1.214-3.673 3.337-5.286 6.811-.273-1.218-.688-2.259-1.419-2.137-.746.124-.374 4.131-.308 4.806a4.946 4.946 0 0 0 .188 1.034c-.009.044-.021.089-.026.131-2.257 2.691-10.95 10.195-12.772 13.189-3.276-.939-9.157-3.122-16.511-5.365a3.09 3.09 0 0 0-1.1-.058 22.7 22.7 0 0 0-5.425-.965 50.81 50.81 0 0 1-.026-1.369c2.112-.294 3.67-2.547 4.163-4.356a27.619 27.619 0 0 0 .744-5.276 5.271 5.271 0 0 0 .346-.9c.38-1.31.971-5.326-.251-6.919 2.324-1.377 1.937-6.229-1.857-6.58-2.267 0-.625.539-2.462 1.284-.919.374-11.006.73-9.4 3.483-.771.124-1.392.756-1.8 2.285-.57 2.134-.819 3.481-.5 4.58a.907.907 0 0 0-.366.06c-.83.339-.978 1.9-.331 3.482A3.669 3.669 0 0 0 67.6 71.2a5.923 5.923 0 0 0 1.96 3.71c-.11 1.327-.223 2.892-.3 4.425-.969.13-1.94.3-2.839.473a12.9 12.9 0 0 0-2.334.664 4.4 4.4 0 0 0-1.693.879 7.139 7.139 0 0 0-2.581 2.938c-1.033 1.3-2.363 3.118-4.157 5.894-5.262 8.141-6.494 11.939-6.776 13.689a1.046 1.046 0 0 0 .018.4 1.767 1.767 0 0 0 .146.674c2.019 4.544 2.923 6.2 8.226 11.754a48.967 48.967 0 0 0 5.1 5.087 1.607 1.607 0 0 0 1.317 1.7 1.537 1.537 0 0 0 .956.026 54.965 54.965 0 0 1-.153 5.524 44.337 44.337 0 0 0-.97 9.812c-.461 4.053-2.531 33.26-3.267 38.64-.029.215-.048.415-.07.62 0 .006-.006.011-.009.016-4.11 9.221-3.782 38.7-3.563 44.581.011.309.086.466.2.54a4.032 4.032 0 0 0-.064 1.127 11.161 11.161 0 0 1-.771 3.882c-.685 2.2 1.705 2.467 5.739 2.388 3.77-.072 2.806-1.539 2.189-2.453-.558-.829-1.522-1.2-1.687-2.206-.119-.726-.031-1.163-.249-2.13.868-8.014 5.95-32.926 8.1-41.655a10.864 10.864 0 0 0 .308-2.289c2.663-9.076 6.774-24.562 7.778-31.209 1.317 7.462 4.352 24.293 6.514 32.15-2.859 11 2.529 33.477 2.871 46.425l.01-.016c-.015.08-.036.155-.046.238-.305 2.463-.286 2.6 1.978 2.611a30.773 30.773 0 0 1 4.587.268 15.314 15.314 0 0 0 6.8-.088c2.467-.794-1.974-1.217-4.068-2.118a9.385 9.385 0 0 1-3.922-2.863 1.826 1.826 0 0 0-.344-.443c-.169-17.213 1.788-34.348 2.173-43.244a11.118 11.118 0 0 0-.033-1.5 20.088 20.088 0 0 0-.039-2.673c-.315-4.018-1.009-21.21-1.452-31.476a157.42 157.42 0 0 0-1.009-16.935s-.14-22.18-1.628-36.744c7.877 1.63 11.47 1.525 13.154 1.227a1.619 1.619 0 0 0 1.482-.523c2.387-2.579 4.792-5.835 8.4-12.073 2.04-3.531 2.6-5.257 2.667-6.885a6.331 6.331 0 0 0 4.3-4.211c.479-1.528 1.34-6.157-.625-8.128zm-62.347 41.6c.869-1.183 2.123-2.741 3.642-4.62a122.036 122.036 0 0 1 3.108 18.773c-1.991-4.39-4.982-11.925-6.75-14.158z" class="cls-1" data-name="Path 285" transform="translate(-48.87 -53.74)"/>
        </clipPath>
        <clipPath id="clip-path-2">
            <path id="Path_352" d="M263.754 228.126a11.761 11.761 0 0 1-.774-3.787 5.743 5.743 0 0 0 .139-1.762c.219-5.883.546-35.36-3.565-44.581l-.009-.016c-.023-.205-.04-.405-.07-.62-.738-5.38-2.807-34.586-3.267-38.64a44.421 44.421 0 0 0-.97-9.812 73.9 73.9 0 0 1 .181-12.77 30.193 30.193 0 0 0 6.211-3.236 1.668 1.668 0 0 0 .768-1.089c.006-.019.021-.031.027-.051.525-1.693 1.112-5.642.016-15.273a62.049 62.049 0 0 0-1.825-10.107 4.466 4.466 0 0 0-1.452-2.346 9.6 9.6 0 0 0-5.855-4.356 15.262 15.262 0 0 0-2.877-.543 116.932 116.932 0 0 0-.2-2.939 3.392 3.392 0 0 0-.14-.714A5.791 5.791 0 0 0 252 72.34a10.921 10.921 0 0 0 .96-2.378 5.133 5.133 0 0 0 .981-1.567c.62-1.519.5-3-.239-3.422.18-3.184-.209-5.575-2.318-6.5.093-2.269-8.718-2.6-9.575-2.951-1.837-.745-.2-1.289-2.462-1.284-4.025.373-4.22 5.813-1.407 6.8.05.018.115.031.169.048a4.455 4.455 0 0 0-.31 1.108 34.219 34.219 0 0 0-.255 2.992 1.3 1.3 0 0 0-1.214-.27c-.829.339-.978 1.9-.33 3.483a4.1 4.1 0 0 0 1.777 2.17 20 20 0 0 0 .479 2.416c.519 1.9 2.018 4.632 4.281 4.746a4.815 4.815 0 0 0-.041.505c0 .248-.014.525-.019.786a21.978 21.978 0 0 0-6.008 1.164c-2.306.681-4.631 2.2-5.125 3.446-.2.508-.4 1.008-.591 1.5a10.289 10.289 0 0 0-.971 2.531c-2.652 7.008-4.38 12.344-5.43 14.046a2.55 2.55 0 0 0-.331.913c-2.8 2.471-8.821 11.749-11.126 14.3-.041.011-.084.03-.128.045a4.922 4.922 0 0 0-1.049-.044c-.679.026-4.7.209-4.719.964s1.069 1.01 2.313 1.111c-3.219 2.075-7.389 5.142-6.02 6.174 2.224 1.674 6.7.185 8.137-.5a6.327 6.327 0 0 0 3.578-4.841c1.6-.294 3.238-1.08 6.454-3.586 2.753-2.145 4.844-3.911 6.529-5.475-.383 9.8-.435 18.139-.435 18.139a157.425 157.425 0 0 0-1.009 16.935c-.443 10.266-1.136 27.457-1.452 31.476a19.675 19.675 0 0 0-.039 2.673 11.121 11.121 0 0 0-.033 1.5c.385 8.893 3.034 26.043 2.192 43.227a1.814 1.814 0 0 0-.363.459 9.4 9.4 0 0 1-3.922 2.863c-2.094.9-6.535 1.325-4.068 2.118a15.3 15.3 0 0 0 6.8.088 30.764 30.764 0 0 1 4.587-.268c2.264-.014 2.282-.148 1.977-2.611-.009-.073-.028-.136-.04-.206 0-.006 0-.01.005-.016.34-12.947 5.73-35.425 2.871-46.425 2.16-7.857 5.2-24.688 6.514-32.15 1 6.648 5.116 22.134 7.779 31.209a10.936 10.936 0 0 0 .306 2.289c2.149 8.729 7.4 33.071 8.1 41.655-.215.963-.13 1.4-.248 2.123-.165 1.01-1.128 1.377-1.687 2.205-.615.914-1.58 2.238 2.19 2.312 4.033.087 6.424-.041 5.739-2.239z" data-name="Path 352" transform="translate(-203.026 -54.242)"/>
        </clipPath>
    </defs>
    <g id="walk_through_illustration_3" data-name="walk through illustration_3" transform="translate(-201.088 -381)">
        <path id="Path_357" d="M28.525 191.286c32.684 38.392 73.941 47.8 123.053 39.454 27.012-4.59 56-13.906 76.18-31.749 16.188-14.315 26.532-34.391 24.846-62.067-3.747-61.5-64.56-67.753-100.672-114.509-21.811-28.24-77.072-32.639-114.102 3.33-27.119 26.345-64.642 100.54-9.305 165.541z" class="cls-2" data-name="Path 357" transform="rotate(41 -332.36 664.324)"/>
        <path id="Path_77" d="M34.833 246.088c39.912 46.418 90.293 57.792 150.265 47.7 32.986-5.55 68.389-16.813 93.026-38.386 19.767-17.308 32.4-41.581 30.34-75.043C303.889 106 229.627 98.443 185.53 41.913 158.9 7.77 91.415 2.452 46.2 45.94 13.08 77.792-32.741 167.5 34.833 246.088z" class="cls-3" data-name="Path 77" transform="translate(201.088 394.455)"/>
        <g id="Group_102" data-name="Group 102" transform="translate(264.855 487.61)">
            <ellipse id="Ellipse_21" cx="27.402" cy="2.083" class="cls-4" data-name="Ellipse 21" rx="27.402" ry="2.083" transform="translate(2.396 174.246)"/>
            <g id="Group_99" data-name="Group 99">
                <path id="Path_264" d="M60.479 189.793a14.676 14.676 0 0 1 .343 2.511c.165 1.01 1.128 1.377 1.687 2.205.615.914 1.58 2.379-2.189 2.453-4.033.079-6.424-.19-5.739-2.388a11.2 11.2 0 0 0 .771-3.882 2.376 2.376 0 0 1 .458-1.893c.453-.43 4.075-1.199 4.669.994z" class="cls-5" data-name="Path 264" transform="translate(-47.467 -20.06)"/>
                <path id="Path_265" d="M106.033 69.07c.175 2.26.041 3.793-2.626 8.409-3.6 6.238-6.01 9.495-8.4 12.073-2.2 2.383-7.149-3.6-4.935-7.383 1.87-3.2 12.143-11.915 13.273-13.866.755-1.29 2.545-1.067 2.688.767z" class="cls-5" data-name="Path 265" transform="translate(-38.694 -50.298)"/>
                <path id="Path_266" d="M98.452 88.217c-1.739.343-5.729.506-15.19-1.6a61.945 61.945 0 0 1-9.862-2.888c-3.048-1.135-3.5-4.465-2.362-5.738 1.835-2.052 5.709-3.592 7.342-3.094 9.22 2.811 16.137 5.536 18.489 5.823 3.439.417 3.644 7.092 1.583 7.497z" class="cls-5" data-name="Path 266" transform="translate(-43.461 -48.467)"/>
                <path id="Path_267" d="M73.919 67.358c1.65.774 2.368.78 2.963-1.272.461-1.593 1.244-7.192-1.312-7.565s-4.557-.448-4.261 3 .651 4.916 2.61 5.837z" class="cls-6" data-name="Path 267" transform="translate(-43.258 -52.586)"/>
                <path id="Path_268" d="M65.813 67.956c-.038.253-.594 5.616-.691 9.732a4.246 4.246 0 0 0 3.99 3.981h.088c1.978 0 4.306-1.792 4.131-3.772a53.176 53.176 0 0 1-.07-7.308z" class="cls-7" data-name="Path 268" transform="translate(-44.8 -50.181)"/>
                <path id="Path_269" d="M57.868 88.764c3.676 12.083 5.322 26.746 4.6 35.186h27.686s-.163-25.927-2.015-40.125a10.624 10.624 0 0 0-5.839-8.141 19.88 19.88 0 0 0-7.379-1.634H69.8a30.849 30.849 0 0 0-5.4.673c-7.33 1.377-8.662 7.037-6.532 14.041z" class="cls-5" data-name="Path 269" transform="translate(-46.845 -48.656)"/>
                <path id="Path_270" d="M61.677 130.9s-2.392-5.809-.114-16.935h27.682a157.42 157.42 0 0 1 1.009 16.935z" class="cls-6" data-name="Path 270" transform="translate(-45.937 -38.667)"/>
                <g id="Group_98" data-name="Group 98" transform="translate(7.632 76.39)">
                    <g id="Group_97" data-name="Group 97">
                        <path id="Path_271" d="M68.544 158.1c2.217-9.011-6.988-10.6-9.895-4.078-4.11 9.221-3.782 38.7-3.563 44.581.029.771.445.626.893.471a6.878 6.878 0 0 1 2.927-.53 2.521 2.521 0 0 1 1.54 1.212c.869-8.016 5.954-32.928 8.098-41.656z" class="cls-6" data-name="Path 271" transform="translate(-54.972 -106.027)"/>
                        <path id="Path_272" d="M76.107 131.894C77.08 120.7 72.645 112 65.7 115.7c-2.923 1.555-3.993 4.667-4.387 7.6s-2.544 33.392-3.3 38.9c-1.7 12.409 8.1 9.064 9.162 5.625 2.687-8.686 8.403-29.831 8.932-35.931z" class="cls-6" data-name="Path 272" transform="translate(-54.26 -114.838)"/>
                    </g>
                </g>
                <path id="Path_273" d="M87.709 157.306c.364-8.4-7.817-8.223-9.872-1.387-3.234 10.759 2.358 33.852 2.706 47.043 1.425-2.278 2.772-2.832 3.406-2.786a2.28 2.28 0 0 1 1.588.86c-.209-17.373 1.783-34.748 2.172-43.73z" class="cls-6" data-name="Path 273" transform="translate(-41.869 -29.425)"/>
                <path id="Path_274" d="M79.4 167.244c1.088 3.431 10.451 7.4 9.473-5.084-.434-5.54-1.589-36.122-1.813-39.069s-.733-7.257-2.213-7.794c-7.393-2.688-14.563 6.106-12.619 17.174 1.298 7.401 4.915 27.662 7.172 34.773z" class="cls-6" data-name="Path 274" transform="translate(-43.102 -38.455)"/>
                <path id="Path_275" d="M64.265 113.172c-2.18-.62-3.317-2.178-7-6.034-5.3-5.552-6.206-7.212-8.226-11.754-1.318-2.967 5.7-5.114 8.477-1.724 2.349 2.864 6.959 15.523 8.4 17.263.951 1.149.119 2.753-1.651 2.249z" class="cls-5" data-name="Path 275" transform="translate(-48.865 -44.18)"/>
                <path id="Path_276" d="M48.881 98.546c.284-1.75 1.514-5.549 6.776-13.689a62.186 62.186 0 0 1 6.128-8.243c2.123-2.464 5.4-1.734 6.2-.224 1.287 2.433 1.387 6.6.353 7.96C62.5 92.021 57.544 97.562 56.46 99.669c-1.583 3.074-7.915.95-7.579-1.123z" class="cls-5" data-name="Path 276" transform="translate(-48.868 -48.416)"/>
                <path id="Path_277" d="M63.529 67.164c.458 4.581.593 5.595 2.593 7.47a10.8 10.8 0 0 0 7.033 2.736c2.344 0 4.083-2.477 4.612-4.415a33.343 33.343 0 0 0 .531-11.73c-.334-2.542-3.472-5.626-6.708-5.626s-9.179.374-8.061 11.565z" class="cls-8" data-name="Path 277" transform="translate(-45.233 -53.273)"/>
                <path id="Path_278" d="M60.74 107.477c1.061-1.163 2.721-2.972 3.54-4.007s3.244.745 3.3 1.637c.079 1.327-1.258 4.946-2.957 4.94s-2.18 1.547-3.628 1.069-1.989-1.737-.255-3.639z" class="cls-8" data-name="Path 278" transform="translate(-46.168 -41.371)"/>
                <path id="Path_279" d="M85.172 191.172a9.385 9.385 0 0 0 3.922 2.863c2.094.9 6.535 1.325 4.068 2.118a15.3 15.3 0 0 1-6.8.088 30.773 30.773 0 0 0-4.587-.268c-2.264-.014-2.282-.148-1.978-2.611.421-3.388 4.355-4.104 5.375-2.19z" class="cls-5" data-name="Path 279" transform="translate(-41.161 -19.604)"/>
                <path id="Path_280" d="M63.729 65.972c1.239 1.24 1.887 1.479 3.094-.181.938-1.289 3.475-6.1 1.287-7.268s-3.975-1.894-4.834 1.323-1.017 4.654.453 6.126z" class="cls-6" data-name="Path 280" transform="translate(-45.425 -52.79)"/>
                <ellipse id="Ellipse_22" cx="1.623" cy="3.099" class="cls-6" data-name="Ellipse 22" rx="1.623" ry="3.099" transform="rotate(-22.18 39.068 -33.31)"/>
                <path id="Path_281" d="M64.676 58.6c1.783 2.663 10.4 2.912 13.217 1.93s2.618-6.421-1.407-6.8c-2.267 0-.625.539-2.462 1.284-.93.386-11.252.747-9.348 3.586z" class="cls-6" data-name="Path 281" transform="translate(-44.97 -53.739)"/>
                <path id="Path_282" d="M100.3 70.433c.5-1.387 5-12.074 6.779-10.289 1.963 1.974 1.1 6.605.625 8.127-.876 2.782-3.5 4.438-5.274 4.32-1.253-.084-2.607-.841-2.13-2.158z" class="cls-8" data-name="Path 282" transform="translate(-36.02 -52.186)"/>
                <path id="Path_283" d="M100.122 68.651c-.066-.675-.439-4.684.308-4.806 1.136-.189 1.513 2.423 1.768 4.152.139.936-.3 2.292-1.074 2.312s-.894-.578-1.002-1.658z" class="cls-8" data-name="Path 283" transform="translate(-36.078 -51.212)"/>
            </g>
            <g id="Group_101" data-name="Group 101" transform="translate(.002 .001)">
                <g id="Group_100" class="cls-9" data-name="Group 100">
                    <path id="Path_284" d="M43.386 46.344c14.44-2.419 34.959 7.239 39.114 22.339 4.238 15.417-7.347 22.79 2.152 44.135 7.514 16.884-1.117 35.4-3.149 50.012-2.232 16.046 5.8 23.805 3.146 38.115-6.1 32.927-5.705 42.633-28.34 49.613-23.239 7.165-28.014-25.247-43.106-50.869-11.148-18.918-17.485-38.481-9.866-52.371 10.942-19.947 26.936.288 21.326-23.779-3.357-14.4-2.813-39.295 18-35.548s-20.074-38.162.723-41.647z" class="cls-10" data-name="Path 284" transform="translate(-61.1 -55.684)"/>
                </g>
            </g>
        </g>
        <g id="Group_108" class="cls-11" data-name="Group 108" transform="translate(285.348 450.773)">
            <path id="Path_286" d="M106.934 9.758V157.18l171.808-13.212V28.526z" class="cls-5" data-name="Path 286" transform="translate(-81.32 2.442)"/>
            <path id="Path_287" d="M111.817 151.032l169.1-12.3V35.393l-169.1-16.031z" class="cls-12" data-name="Path 287" transform="translate(-80.098 4.846)"/>
            <path id="Path_288" d="M174.692 134.68l73.98-4.537V36.075l-73.98-6.451z" class="cls-6" data-name="Path 288" transform="translate(-64.362 7.414)"/>
            <path id="Path_289" d="M184.1 52.667l64.3 3.456c.783.043 1.417-.745 1.417-1.758V41.616a1.836 1.836 0 0 0-1.417-1.948l-64.3-5.13a1.727 1.727 0 0 0-1.729 1.892v14.113a2.027 2.027 0 0 0 1.729 2.124z" class="cls-13" data-name="Path 289" transform="translate(-62.439 8.643)"/>
            <path id="Path_290" d="M184.1 71.785l64.3 1.247a1.628 1.628 0 0 0 1.417-1.807V58.478a1.761 1.761 0 0 0-1.417-1.9l-64.3-2.922a1.8 1.8 0 0 0-1.729 1.952v14.114a1.943 1.943 0 0 0 1.729 2.063z" class="cls-13" data-name="Path 290" transform="translate(-62.439 13.429)"/>
            <path id="Path_291" d="M182.279 73.9l64.7 1.008a1.642 1.642 0 0 0 1.425-1.818V60.3a1.758 1.758 0 0 0-1.425-1.9l-64.7-2.692a1.813 1.813 0 0 0-1.739 1.964v14.165a1.942 1.942 0 0 0 1.739 2.063z" class="cls-14" data-name="Path 291" transform="translate(-62.898 13.943)"/>
            <path id="Path_292" d="M184.1 90.9l64.3-.961a1.7 1.7 0 0 0 1.417-1.854V75.34a1.688 1.688 0 0 0-1.417-1.849l-64.3-.714a1.873 1.873 0 0 0-1.729 2.01V88.9a1.864 1.864 0 0 0 1.729 2z" class="cls-13" data-name="Path 292" transform="translate(-62.439 18.214)"/>
            <path id="Path_293" d="M86.447 130.729l90.539-3.546V10.931L86.447 0z" class="cls-15" data-name="Path 293" transform="translate(-86.447)"/>
            <path id="Path_294" d="M184.1 110.324l64.3-3.169a1.767 1.767 0 0 0 1.417-1.9V92.5a1.619 1.619 0 0 0-1.417-1.8l-64.3 1.5a1.953 1.953 0 0 0-1.729 2.07v14.112a1.79 1.79 0 0 0 1.729 1.942z" class="cls-13" data-name="Path 294" transform="translate(-62.439 22.7)"/>
            <g id="Group_103" data-name="Group 103" transform="translate(8.601 16.74)">
                <path id="Path_295" d="M135.448 72.078c-10.826 4.328-24.032 1.655-33.325-8.178a34.881 34.881 0 0 1-8.8-16.795l15.731-2.619c1.557 7.474 7.859 13.265 15.255 13.585a14.037 14.037 0 0 0 5.629-.891z" class="cls-12" data-name="Path 295" transform="translate(-93.326 -5.606)"/>
                <path id="Path_296" d="M145.807 69.109c-.226.235-.46.461-.7.686l-9.972-11.856a15.481 15.481 0 0 0 4.685-11.316c0-8.726-6.645-16.359-15.006-17.067a14.118 14.118 0 0 0-13.978 7.963l-14.374-8.39a28.986 28.986 0 0 1 6.166-8.242c12.4-11.538 31.733-9.423 43.177 4.026 11.119 13.061 11.11 32.564.002 44.196z" class="cls-16" data-name="Path 296" transform="translate(-92.541 -13.389)"/>
                <path id="Path_297" d="M109.878 41.512a17.28 17.28 0 0 0 .366 3.533l-15.732 2.619a32.718 32.718 0 0 1 2.632-21.687l14.377 8.389a15.961 15.961 0 0 0-1.643 7.146z" class="cls-12" data-name="Path 297" transform="translate(-93.222 -10.238)"/>
                <path id="Path_298" d="M138.307 60.877a27.537 27.537 0 0 1-9.157 5.991l-5.507-14.9a13.886 13.886 0 0 0 4.694-2.949z" class="cls-17" data-name="Path 298" transform="translate(-85.738 -4.471)"/>
            </g>
            <g id="Group_104" class="cls-18" data-name="Group 104" transform="translate(156.546 74.106)">
                <path id="Path_299" d="M211.656 61.227l25.883.888v-1.879l-25.883-.964z" class="cls-19" data-name="Path 299" transform="translate(-211.656 -59.272)"/>
                <path id="Path_300" d="M211.656 64.007l25.883.751v-1.879l-25.883-.826z" class="cls-19" data-name="Path 300" transform="translate(-211.656 -58.576)"/>
                <path id="Path_301" d="M223.382 67.058l11.222.266v-1.878l-11.222-.3z" class="cls-19" data-name="Path 301" transform="translate(-208.721 -57.802)"/>
            </g>
            <path id="Path_302" d="M196.835 92.581l7.74.181v-9.233l-7.74-.289z" class="cls-20" data-name="Path 302" transform="translate(-58.82 20.833)"/>
            <path id="Path_303" d="M186.01 75.669l7.951.188V66.5l-7.951-.3z" class="cls-20" data-name="Path 303" transform="translate(-61.529 16.569)"/>
            <path id="Path_304" d="M123.684 71.405v58.609l1.367-.086V71.423z" class="cls-21" data-name="Path 304" transform="translate(-77.128 17.871)"/>
            <path id="Path_305" d="M168.416 100.8v18.3l1.177-.075v-18.269z" class="cls-22" data-name="Path 305" transform="translate(-65.932 25.217)"/>
            <path id="Path_306" d="M146.892 85v39.761l1.265-.081V84.991z" class="cls-17" data-name="Path 306" transform="translate(-71.319 21.271)"/>
            <path id="Path_307" d="M98.877 115.28c16.16-.726 16.16-37.534 31.681-37.5 14.921.028 14.921 35.41 29.273 34.766 13.819-.62 13.819-34.684 27.132-34.659" class="cls-23" data-name="Path 307" transform="translate(-83.336 19.465)"/>
            <path id="Path_308" d="M141.732 70.836v-3.02l-5.582-.1v3.043z" class="cls-24" data-name="Path 308" transform="translate(-74.008 16.947)"/>
            <path id="Path_309" d="M149.448 70.941v-2.982l-5.439-.1v3z" class="cls-24" data-name="Path 309" transform="translate(-72.041 16.983)"/>
            <path id="Path_310" d="M156.966 71.043V68.1l-5.3-.1v2.964z" class="cls-24" data-name="Path 310" transform="translate(-70.125 17.019)"/>
            <path id="Path_311" d="M210.144 79.683l26.277-.01V77.14l-26.277-.1z" class="cls-25" data-name="Path 311" transform="translate(-55.489 19.282)"/>
            <path id="Path_312" d="M217.2 83.386l17.456-.13v-2.533l-17.456.06z" class="cls-25" data-name="Path 312" transform="translate(-53.723 20.203)"/>
            <path id="Path_313" d="M211.9 83.423l4.536-.035v-2.611l-4.536.016z" class="cls-25" data-name="Path 313" transform="translate(-55.049 20.216)"/>
            <path id="Path_314" d="M210.144 43.7l26.277 1.773v-2.538l-26.277-1.878z" class="cls-25" data-name="Path 314" transform="translate(-55.489 10.276)"/>
            <path id="Path_315" d="M218.859 47.963l15.381.929v-2.533l-15.381-.99z" class="cls-25" data-name="Path 315" transform="translate(-53.308 11.355)"/>
            <path id="Path_316" d="M203.422 47.046l17.225 1.04v-2.6l-17.225-1.109z" class="cls-25" data-name="Path 316" transform="translate(-57.171 11.106)"/>
            <path id="Path_317" d="M222.971 97.5l10.24-.355v-2.533l-10.24.315z" class="cls-25" data-name="Path 317" transform="translate(-52.278 23.679)"/>
            <path id="Path_318" d="M212.91 97.863l10.639-.369v-2.582l-10.639.328z" class="cls-25" data-name="Path 318" transform="translate(-54.797 23.754)"/>
            <path id="Path_319" d="M217.2 101.477l17.456-.73v-2.533l-17.456.66z" class="cls-25" data-name="Path 319" transform="translate(-53.723 24.58)"/>
            <path id="Path_320" d="M200.909 102.18l18.278-.764v-2.61l-18.278.69z" class="cls-25" data-name="Path 320" transform="translate(-57.8 24.729)"/>
            <g id="Group_105" data-name="Group 105" transform="translate(76.572 32.679)">
                <path id="Path_321" d="M154.3 26.693a4.307 4.307 0 0 0-5.2.728 5 5 0 0 0-1.314 2.544l2.366.77a2.249 2.249 0 0 1 2.369-1.914 2.317 2.317 0 0 1 .894.266z" class="cls-22" data-name="Path 321" transform="translate(-147.668 -26.137)"/>
                <path id="Path_322" d="M155.828 27.667c-.036-.045-.076-.088-.115-.13l-1.628 1.8a3.054 3.054 0 0 1 .76 2.019 2.322 2.322 0 0 1-2.408 2.484 2.671 2.671 0 0 1-2.174-1.672l-2.169 1.011a5.972 5.972 0 0 0 .923 1.5 4.512 4.512 0 0 0 6.81.526 5.779 5.779 0 0 0 .001-7.538z" class="cls-26" data-name="Path 322" transform="translate(-147.59 -25.787)"/>
                <path id="Path_323" d="M150.114 30.538a2.989 2.989 0 0 1 .056-.57l-2.37-.768a6 6 0 0 0 .391 3.562l2.169-1.011a3.039 3.039 0 0 1-.246-1.213z" class="cls-26" data-name="Path 323" transform="translate(-147.691 -25.371)"/>
                <path id="Path_324" d="M154.666 27.775a5.3 5.3 0 0 0-1.5-1.194l-.885 2.393a2.663 2.663 0 0 1 .754.6z" class="cls-21" data-name="Path 324" transform="translate(-146.541 -26.026)"/>
            </g>
            <g id="Group_106" data-name="Group 106" transform="translate(76.573 65.072)">
                <path id="Path_325" d="M148.008 58.086a5.071 5.071 0 0 0 4.451 3.394 4.3 4.3 0 0 0 2.591-.764l-1.287-2.279a2.267 2.267 0 0 1-3.016-.469 2.832 2.832 0 0 1-.514-.858z" class="cls-21" data-name="Path 325" transform="translate(-147.613 -50.779)"/>
                <path id="Path_326" d="M147.692 57.213v.179h2.419a2.747 2.747 0 0 1 .711-1.964 2.253 2.253 0 0 1 3.416.14 2.96 2.96 0 0 1 .576 2.776l2.252.935a5.752 5.752 0 0 0 .253-1.7 5.355 5.355 0 0 0-4.785-5.532c-2.664-.12-4.842 2.194-4.842 5.166z" class="cls-17" data-name="Path 326" transform="translate(-147.692 -52.046)"/>
                <path id="Path_327" d="M153.015 58.1a2.3 2.3 0 0 1-.4.346l1.287 2.279a5.008 5.008 0 0 0 1.943-2.7l-2.252-.935a2.584 2.584 0 0 1-.578 1.01z" class="cls-22" data-name="Path 327" transform="translate(-146.461 -50.785)"/>
                <path id="Path_328" d="M147.7 56.321a5.9 5.9 0 0 0 .391 1.963l2.225-.978a2.95 2.95 0 0 1-.2-.981z" class="cls-26" data-name="Path 328" transform="translate(-147.691 -50.976)"/>
            </g>
            <g id="Group_107" data-name="Group 107" transform="translate(76.572 48.873)">
                <path id="Path_329" d="M153.276 48.921a5.021 5.021 0 0 0 2.888-4.727 5.985 5.985 0 0 0-.755-2.917l-2 1.3a2.869 2.869 0 0 1-.324 3.321 2.219 2.219 0 0 1-.751.524z" class="cls-17" data-name="Path 329" transform="translate(-146.529 -38.542)"/>
                <path id="Path_330" d="M152.54 49.8h.16l-.08-2.666a2.439 2.439 0 0 1-1.793-.89 2.893 2.893 0 0 1 0-3.8 2.169 2.169 0 0 1 2.488-.486l.768-2.469a4.551 4.551 0 0 0-1.544-.389c-2.668-.181-4.847 2.084-4.847 5.056a5.49 5.49 0 0 0 4.848 5.644z" class="cls-21" data-name="Path 330" transform="translate(-147.691 -39.09)"/>
                <path id="Path_331" d="M153.119 42.579a2.819 2.819 0 0 1 .324.468l2-1.3a5.368 5.368 0 0 0-2.487-2.334l-.768 2.469a2.58 2.58 0 0 1 .931.697z" class="cls-26" data-name="Path 331" transform="translate(-146.565 -39.01)"/>
                <path id="Path_332" d="M151.713 48.227a4.189 4.189 0 0 0 1.738-.336l-.944-2.5a2.129 2.129 0 0 1-.874.168z" class="cls-22" data-name="Path 332" transform="translate(-146.704 -37.512)"/>
            </g>
        </g>
        <g id="Group_115" data-name="Group 115" transform="translate(420.048 488.261)">
            <path id="Path_355" d="M27.4 0c15.136 0 27.4.933 27.4 2.083S42.536 4.166 27.4 4.166 0 3.233 0 2.083 12.268 0 27.4 0z" class="cls-27" data-name="Path 355" transform="translate(16.638 173.621)"/>
            <g id="Group_112" data-name="Group 112">
                <g id="Group_111" data-name="Group 111">
                    <path id="Path_333" d="M232.1 108.676c2.155.705 3.968.048 9.176-1.093 7.5-1.643 9.177-2.513 13.389-5.152 2.751-1.723-1.868-7.424-6.068-6.168-3.548 1.064-14.446 8.986-16.607 9.623-1.431.424-1.638 2.219.11 2.79z" class="cls-28" data-name="Path 333" transform="translate(-190.381 -43.766)"/>
                    <path id="Path_334" d="M252.768 106c.525-1.693 1.111-5.644.016-15.275a62.044 62.044 0 0 0-1.825-10.107c-.806-3.152-4.068-3.955-5.454-2.957-2.234 1.608-4.177 5.3-3.856 6.973 1.818 9.465 3.795 16.634 3.83 19 .051 3.466 6.667 4.375 7.289 2.366z" class="cls-28" data-name="Path 334" transform="translate(-187.688 -48.477)"/>
                    <path id="Path_335" d="M247.4 189.793a14.43 14.43 0 0 0-.343 2.511c-.165 1.01-1.128 1.377-1.687 2.205-.615.914-1.58 2.238 2.19 2.312 4.033.079 6.424-.049 5.739-2.247a11.2 11.2 0 0 1-.771-3.882 2.37 2.37 0 0 0-.456-1.893c-.455-.43-4.072-1.199-4.672.994z" class="cls-6" data-name="Path 335" transform="translate(-186.893 -20.685)"/>
                    <path id="Path_336" d="M210.446 91.07c-1.31-.676-11.87-5.466-11.961-2.948-.1 2.783 3.676 5.6 5.061 6.389 2.531 1.448 5.586.879 6.8-.41.864-.913 1.345-2.387.1-3.031z" class="cls-8" data-name="Path 336" transform="translate(-198.482 -45.94)"/>
                    <path id="Path_337" d="M208.51 90.4c-.41-.541-2.857-3.736-3.49-3.319-.961.634.535 2.807 1.522 4.248.535.781 1.778 1.477 2.359.966s.266-1.024-.391-1.895z" class="cls-8" data-name="Path 337" transform="translate(-196.923 -46.028)"/>
                    <path id="Path_338" d="M223.829 191.172a9.4 9.4 0 0 1-3.922 2.863c-2.094.9-6.535 1.325-4.068 2.118a15.3 15.3 0 0 0 6.8.088 30.762 30.762 0 0 1 4.587-.268c2.264-.014 2.282-.148 1.977-2.611-.421-3.388-4.354-4.104-5.374-2.19z" class="cls-6" data-name="Path 338" transform="translate(-194.32 -20.229)"/>
                    <path id="Path_339" d="M245.668 67.664c-.458 4.581-.593 5.595-2.593 7.47s-5.127 2.149-7.3 2.149c-2.344 0-3.891-2.828-4.421-4.767a28.225 28.225 0 0 1-.456-10.791c.334-2.542 3.471-5.626 6.708-5.626s9.179.374 8.062 11.565z" class="cls-8" data-name="Path 339" transform="translate(-190.443 -53.773)"/>
                    <path id="Path_340" d="M206.142 93.193c1.43 1.759 2.582 2.779 7.694 4.291 6.908 2.042 10.895 2.747 14.4 2.974 3.239.21 2.706-7.533-1.5-8.752-3.558-1.03-17.01-.281-19.173-.916-1.435-.421-2.583.975-1.421 2.403z" class="cls-6" data-name="Path 340" transform="translate(-196.685 -45.11)"/>
                    <path id="Path_341" d="M225.036 102.5c1.354-1.145 3.972-4.16 8.229-12.868a62.16 62.16 0 0 0 3.9-9.5c1.015-3.091-1.3-5.522-3.008-5.427-2.748.154-6.37 2.218-7 3.806-3.56 8.957-5.749 16.064-6.993 18.079-1.818 2.941 3.268 7.269 4.872 5.91z" class="cls-6" data-name="Path 341" transform="translate(-193.153 -49.118)"/>
                    <path id="Path_342" d="M242.37 72.4c.124 1.588.241 3.414.294 5.082a4.373 4.373 0 0 1-3.816 4.437c-.1.009-.173.011-.25.011-1.978 0-4.306-1.792-4.132-3.772.114-1.288.156-2.586.164-3.725a5.149 5.149 0 0 1 3.43-4.833 3.238 3.238 0 0 1 4.31 2.8z" class="cls-8" data-name="Path 342" transform="translate(-189.479 -50.441)"/>
                    <path id="Path_343" d="M254.491 90.818c-3.676 12.085-4.882 24.692-4.162 33.132h-27.683s.161-25.927 2.015-40.125a10.624 10.624 0 0 1 5.843-8.142 19.875 19.875 0 0 1 7.378-1.634H243a19.357 19.357 0 0 1 5.4.673c7.55 2.314 8.222 9.093 6.091 16.096z" class="cls-6" data-name="Path 343" transform="translate(-192.435 -49.281)"/>
                    <path id="Path_344" d="M250.417 130.9s2.392-5.809.114-16.935h-27.683a157.423 157.423 0 0 0-1.009 16.935z" class="cls-5" data-name="Path 344" transform="translate(-192.637 -39.292)"/>
                    <g id="Group_110" data-name="Group 110" transform="translate(43.907 75.765)">
                        <g id="Group_109" data-name="Group 109">
                            <path id="Path_345" d="M240.393 158.1c-2.215-9.011 6.989-10.6 9.895-4.078 4.11 9.221 3.782 38.7 3.565 44.581-.029.771.105 1.719-.286 1.985a5.925 5.925 0 0 1-2.927.471c-1.031-.033-2.044-.029-2.148-1.3-.702-8.59-5.95-32.931-8.099-41.659z" class="cls-5" data-name="Path 345" transform="translate(-231.985 -106.027)"/>
                            <path id="Path_346" d="M233.734 131.894C232.761 120.7 237.2 112 244.141 115.7c2.923 1.555 3.992 4.667 4.386 7.6s2.543 33.392 3.3 38.9c1.7 12.409-8.1 9.064-9.163 5.625-2.685-8.686-8.4-29.831-8.93-35.931z" class="cls-5" data-name="Path 346" transform="translate(-233.6 -114.838)"/>
                        </g>
                    </g>
                    <path id="Path_347" d="M227.79 202.962c.348-13.19 5.94-36.284 2.706-47.043-2.055-6.836-10.236-7.015-9.872 1.387.389 8.982 3.092 26.381 2.17 43.731-.094 1.706 4.933 3.463 4.996 1.925z" class="cls-5" data-name="Path 347" transform="translate(-192.944 -30.05)"/>
                    <path id="Path_348" d="M230.165 167.244c-1.086 3.431-10.45 7.4-9.472-5.084.434-5.54 1.589-36.122 1.813-39.069s.733-7.257 2.213-7.794c7.393-2.688 14.563 6.106 12.619 17.174-1.3 7.401-4.917 27.662-7.173 34.773z" class="cls-5" data-name="Path 348" transform="translate(-192.941 -39.08)"/>
                    <ellipse id="Ellipse_24" cx="1.623" cy="3.098" class="cls-8" data-name="Ellipse 24" rx="1.623" ry="3.098" transform="rotate(-22.18 47.46 -89.86)"/>
                    <ellipse id="Ellipse_25" cx="1.624" cy="3.098" class="cls-8" data-name="Ellipse 25" rx="1.624" ry="3.098" transform="rotate(-157.785 29.38 3.068)"/>
                    <path id="Path_349" d="M244.55 59.1c-1.784 2.663-10.4 2.912-13.217 1.93s-2.618-6.421 1.407-6.8c2.267 0 .625.539 2.462 1.284.929.386 11.251.747 9.348 3.586z" class="cls-5" data-name="Path 349" transform="translate(-190.735 -54.239)"/>
                </g>
                <path id="Path_350" d="M234.409 57.968c-2.654 1.6-3.271 3.008-3.2 6.29s1.479 8.882 7.522 10.132 7.469-4.745 7.834-8.882.129-7.228-2.927-7.971c-4.538-1.102-7.621-.537-9.229.431z" class="cls-5" data-name="Path 350" transform="translate(-190.293 -53.565)"/>
            </g>
            <g id="Group_114" data-name="Group 114" transform="translate(5.681 .004)">
                <g id="Group_113" class="cls-29" data-name="Group 113">
                    <path id="Path_351" d="M249.416 50.213c12.486-7.647 35.557 3.96 39.71 19.059 4.238 15.417-7.348 22.79 2.152 44.135 7.515 16.884-1.117 35.4-3.149 50.012-2.232 16.045 5.8 23.805 3.144 38.113-6.1 32.928 23.9 52.528 1.264 59.508-23.239 7.165-22.878-7.519-48.144-7.605-21.956-.076-23.126-55.951-20.866-77.326 2.394-22.625 15.413-26.5 9.8-50.567-3.356-14.4-6.1-22.626 8.207-38.2 7.335-7.981-16.006-22.499 7.882-37.129z" class="cls-30" data-name="Path 351" transform="translate(-198.098 -55.856)"/>
                </g>
            </g>
        </g>
        <g id="Group_116" class="cls-31" data-name="Group 116" transform="translate(449.656 469.465)">
            <path id="Path_353" d="M236.1 31.9a3.979 3.979 0 0 1-2.315-.726 4.927 4.927 0 0 1-.982-.889 5.79 5.79 0 0 1-.76-1.184 6.576 6.576 0 0 1 0-5.744 5.22 5.22 0 0 1 .76-1.128 4.416 4.416 0 0 1 .982-.818 3.778 3.778 0 0 1 2.315-.556 4.126 4.126 0 0 1 2.22.921 5.118 5.118 0 0 1 .888.916 5.818 5.818 0 0 1 .668 1.15 6.621 6.621 0 0 1 0 5.346 5.34 5.34 0 0 1-.668 1.1 4.583 4.583 0 0 1-.888.851 3.847 3.847 0 0 1-2.22.759m1.82-16.892l-3.7-.531-.12 1.835a7.041 7.041 0 0 0-2.472.916l-1.239-1.4-2.976 3.076 1.125 1.587a10.9 10.9 0 0 0-1.116 2.979l-1.76.045v4.956l1.76.173a11.671 11.671 0 0 0 1.116 3.062l-1.125 1.5 2.976 3.294 1.239-1.305a7.608 7.608 0 0 0 2.472 1.1l.115 1.843 3.7-.26.106-1.793a7.446 7.446 0 0 0 2.2-1.253l1.035 1.09 2.323-3.1-.853-1.277a11.233 11.233 0 0 0 .846-2.662l1.273-.105v-4.16l-1.273-.2a11.857 11.857 0 0 0-.846-2.723l.853-1.214-2.323-3.273-1.035 1.014a8.218 8.218 0 0 0-2.2-1.415l-.106-1.8" class="cls-32" data-name="Path 353" transform="translate(-211.991 -11.031)"/>
            <path id="Path_354" d="M221.128 19.8a1.5 1.5 0 0 1-.719-.266 1.7 1.7 0 0 1-.3-.265 1.746 1.746 0 0 1-.23-.334 1.566 1.566 0 0 1 0-1.518 1.292 1.292 0 0 1 .23-.288 1.247 1.247 0 0 1 .3-.205 1.283 1.283 0 0 1 .719-.121 1.5 1.5 0 0 1 .711.281 1.7 1.7 0 0 1 .29.266 1.78 1.78 0 0 1 .221.331 1.568 1.568 0 0 1 0 1.488 1.252 1.252 0 0 1-1.223.63m1.173-7.719l-2.371-.359-.073 1a4.685 4.685 0 0 0-1.539.444l-.76-.779-1.8 1.577.674.876a5.108 5.108 0 0 0-.669 1.55l-1.041-.038v2.616l1.041.171a6.307 6.307 0 0 0 .669 1.685l-.674.74 1.8 1.939.76-.625a5.72 5.72 0 0 0 1.539.753l.073 1.014 2.371.119.07-.986a4.625 4.625 0 0 0 1.445-.553l.69.681 1.567-1.6-.579-.776a5.182 5.182 0 0 0 .574-1.46l.873.008V17.7l-.873-.168a6.328 6.328 0 0 0-.574-1.577l.579-.659-1.567-1.915-.69.543a5.84 5.84 0 0 0-1.445-.843l-.07-1" class="cls-33" data-name="Path 354" transform="translate(-214.727 -11.721)"/>
        </g>
    </g>
</svg>
